<svg xmlns="http://www.w3.org/2000/svg" viewBox="0 0 500 500"><path fill="#d4d4d4" d="M389.1 36.6c0 1.1.3 1.4.6.6.3-.7.2-1.6-.1-1.9-.3-.4-.6.2-.5 1.3m-3 3c0 1.1.3 1.4.6.6.3-.7.2-1.6-.1-1.9-.3-.4-.6.2-.5 1.3m-8.2 4.1-2.4 2.8 2.8-2.4c2.5-2.3 3.2-3.1 2.4-3.1-.2 0-1.4 1.2-2.8 2.7m-267.8-.1c0 1.1.3 1.4.6.6.3-.7.2-1.6-.1-1.9-.3-.4-.6.2-.5 1.3m3.1 1.4c0 1.4.2 1.9.5 1.2.2-.6.2-1.8 0-2.5-.3-.6-.5-.1-.5 1.3m275 0c0 1.4.2 1.9.5 1.2.2-.6.2-1.8 0-2.5-.3-.6-.5-.1-.5 1.3m-3.1 5.6c0 1.1.3 1.4.6.6.3-.7.2-1.6-.1-1.9-.3-.4-.6.2-.5 1.3M132.5 54c1 1.1 2 2 2.3 2s-.3-.9-1.3-2-2-2-2.3-2 .3.9 1.3 2m3.5-.6c0 .2.8 1 1.8 1.7 1.5 1.3 1.6 1.2.3-.4s-2.1-2.1-2.1-1.3m228.9 2.3-2.4 2.8 2.8-2.4c2.5-2.3 3.2-3.1 2.4-3.1-.2 0-1.4 1.2-2.8 2.7m22.3.3c0 1.4.2 1.9.5 1.2.2-.6.2-1.8 0-2.5-.3-.6-.5-.1-.5 1.3m-30.8 4.2-1.9 2.3 2.3-1.9c1.2-1.1 2.2-2.1 2.2-2.3 0-.8-.8-.2-2.6 1.9m27.7 3.4c0 1.1.3 1.4.6.6.3-.7.2-1.6-.1-1.9-.3-.4-.6.2-.5 1.3m2 5c0 1.1.3 1.4.6.6.3-.7.2-1.6-.1-1.9-.3-.4-.6.2-.5 1.3m-41.2 6.1-3.4 3.8 3.8-3.4c2-1.9 3.7-3.6 3.7-3.8 0-.8-.8 0-4.1 3.4m38.2-1.1c0 1.1.3 1.4.6.6.3-.7.2-1.6-.1-1.9-.3-.4-.6.2-.5 1.3m2.1 4.4c0 1.4.2 1.9.5 1.2.2-.6.2-1.8 0-2.5-.3-.6-.5-.1-.5 1.3m10.9 1.6c0 1.1.3 1.4.6.6.3-.7.2-1.6-.1-1.9-.3-.4-.6.2-.5 1.3m-14 6c0 1.1.3 1.4.6.6.3-.7.2-1.6-.1-1.9-.3-.4-.6.2-.5 1.3m2 5c0 1.1.3 1.4.6.6.3-.7.2-1.6-.1-1.9-.3-.4-.6.2-.5 1.3m-2.9 4.4c0 1.4.2 1.9.5 1.2.2-.6.2-1.8 0-2.5-.3-.6-.5-.1-.5 1.3m2 5c0 1.9.2 2.7.5 1.7.2-.9.2-2.5 0-3.5-.3-.9-.5-.1-.5 1.8m-3 5c0 1.4.2 1.9.5 1.2.2-.6.2-1.8 0-2.5-.3-.6-.5-.1-.5 1.3m-1 9c0 1.9.2 2.7.5 1.7.2-.9.2-2.5 0-3.5-.3-.9-.5-.1-.5 1.8m2.9-1.4c0 1.1.3 1.4.6.6.3-.7.2-1.6-.1-1.9-.3-.4-.6.2-.5 1.3m5.8 1.1c-1.3 1.6-1.2 1.7.4.4s2.1-2.1 1.3-2.1c-.2 0-1 .8-1.7 1.7M117.5 124c1 1.1 2 2 2.3 2s-.3-.9-1.3-2-2-2-2.3-2 .3.9 1.3 2m3.9.9c2 2.2 2.6 2.5 2.6 1.3 0-.4-1-1.3-2.2-2.1-2.3-1.4-2.3-1.4-.4.8m193.7 36.7c0 1.1.3 1.4.6.6.3-.7.2-1.6-.1-1.9-.3-.4-.6.2-.5 1.3m-165.5 11.7c.3 1 .9 1.5 1.2 1.2s0-1.1-.7-1.8c-1-.9-1.1-.8-.5.6m43.5 15.3c0 1.1.3 1.4.6.6.3-.7.2-1.6-.1-1.9-.3-.4-.6.2-.5 1.3m121.2 23.7c0 5.3.3 9.4.7 9 .3-.5.3-4.9-.1-9.8l-.6-9zm-45.5-7.6c.7.3 1.6.2 1.9-.1.4-.3-.2-.6-1.3-.5-1.1 0-1.4.3-.6.6m-61.7 1.9c0 1.1.3 1.4.6.6.3-.7.2-1.6-.1-1.9-.3-.4-.6.2-.5 1.3m52.7-.9c.7.3 1.6.2 1.9-.1.4-.3-.2-.6-1.3-.5-1.1 0-1.4.3-.6.6M225.3 222c0 3.6.2 5 .4 3.2.2-1.7.2-4.7 0-6.5-.2-1.7-.4-.3-.4 3.3m-38 1.5c0 3.8.2 5.3.4 3.2.2-2 .2-5.2 0-7-.2-1.7-.4-.1-.4 3.8m116-3.8c.9.2 2.3.2 3 0 .6-.3-.1-.5-1.8-.5-1.6 0-2.2.2-1.2.5m-16.5 1c.7.3 1.6.2 1.9-.1.4-.3-.2-.6-1.3-.5-1.1 0-1.4.3-.6.6m-11 1c.7.3 1.6.2 1.9-.1.4-.3-.2-.6-1.3-.5-1.1 0-1.4.3-.6.6m17.5 2c.9.2 2.5.2 3.5 0 .9-.3.1-.5-1.8-.5s-2.7.2-1.7.5m20.9 1.3c0 1.4.2 1.9.5 1.2.2-.6.2-1.8 0-2.5-.3-.6-.5-.1-.5 1.3m-75.8 5.2-1.9 2.3 2.3-1.9c2.1-1.8 2.7-2.6 1.9-2.6-.2 0-1.2 1-2.3 2.2m-30.2.8c0 1.4.2 1.9.5 1.2.2-.6.2-1.8 0-2.5-.3-.6-.5-.1-.5 1.3m3.4 6.2c.3.5 1 .6 1.5.3 1.3-.9 1.1-1.2-.6-1.2-.8 0-1.2.4-.9.9m11.7 3.8c0 3 .2 4.3.4 2.7.2-1.5.2-3.9 0-5.5-.2-1.5-.4-.2-.4 2.8m11.6 2.7c-1.3 1.6-1.2 1.7.4.4.9-.7 1.7-1.5 1.7-1.7 0-.8-.8-.3-2.1 1.3m47.7 8c-.6 1.4-.5 1.5.5.6.7-.7 1-1.5.7-1.8s-.9.2-1.2 1.2m-37.6-.3c0 .2.8 1 1.8 1.7 1.5 1.3 1.6 1.2.3-.4s-2.1-2.1-2.1-1.3m-45.2 6.3c3.4.2 9 .2 12.5 0 3.4-.2.6-.3-6.3-.3s-9.7.1-6.2.3m37.5 0c1.5.2 3.9.2 5.5 0 1.5-.2.2-.4-2.8-.4s-4.3.2-2.7.4m49.4 0c1.8.2 5 .2 7 0 2.1-.2.7-.4-3.2-.4-3.8 0-5.5.2-3.8.4m-109.3 5.5-1.9 2.3 2.3-1.9c2.1-1.8 2.7-2.6 1.9-2.6-.2 0-1.2 1-2.3 2.2m147.1.8c1 1.1 2 2 2.3 2s-.3-.9-1.3-2-2-2-2.3-2 .3.9 1.3 2m5.5-1.6c0 .2 1.3.6 2.9.8 1.7.2 2.8.1 2.5-.4-.5-.8-5.4-1.2-5.4-.4m-76.7 5.6c0 2.5.2 3.5.4 2.2.2-1.2.2-3.2 0-4.5-.2-1.2-.4-.2-.4 2.3m-3.1 1c0 1.9.2 2.7.5 1.7.2-.9.2-2.5 0-3.5-.3-.9-.5-.1-.5 1.8m-88.8 11.2-1.9 2.3 2.3-1.9c2.1-1.8 2.7-2.6 1.9-2.6-.2 0-1.2 1-2.3 2.2m93.5 3.5c-1.3 1.6-1.2 1.7.4.4s2.1-2.1 1.3-2.1c-.2 0-1 .8-1.7 1.7m34.9 3c.7.3 1.6.2 1.9-.1.4-.3-.2-.6-1.3-.5-1.1 0-1.4.3-.6.6m-64 2c.6.2 1.8.2 2.5 0 .6-.3.1-.5-1.3-.5s-1.9.2-1.2.5m46 0c.6.2 1.8.2 2.5 0 .6-.3.1-.5-1.3-.5s-1.9.2-1.2.5m20 1c.7.3 1.6.2 1.9-.1.4-.3-.2-.6-1.3-.5-1.1 0-1.4.3-.6.6m1 5c.7.3 1.6.2 1.9-.1.4-.3-.2-.6-1.3-.5-1.1 0-1.4.3-.6.6m68.5 5.8c0 .8.4 1.2.9.9s.6-1 .3-1.5c-.9-1.3-1.2-1.1-1.2.6m-82.2-.2c.2.1 1.5 1.1 2.9 2.2l2.5 2-1.9-2.3c-1.1-1.2-2.4-2.2-2.9-2.2q-.9 0-.6.3M145 306.4c0 .2.8 1 1.8 1.7 1.5 1.3 1.6 1.2.3-.4s-2.1-2.1-2.1-1.3m205.4 3.8-1.9 2.3 2.3-1.9c1.2-1.1 2.2-2.1 2.2-2.3 0-.8-.8-.2-2.6 1.9m4.5.5c-1.3 1.6-1.2 1.7.4.4s2.1-2.1 1.3-2.1c-.2 0-1 .8-1.7 1.7m-136.2 0c-.4.3-.7 1-.7 1.5 0 .4 14.5.7 32.3.6l32.2-.3-31.8-.2c-20.6-.2-31.6-.7-31.2-1.3.7-1.1.2-1.3-.8-.3m116.2 6-2.4 2.8 2.8-2.4c2.5-2.3 3.2-3.1 2.4-3.1-.2 0-1.4 1.2-2.8 2.7m12.5.5-1.9 2.3 2.3-1.9c1.2-1.1 2.2-2.1 2.2-2.3 0-.8-.8-.2-2.6 1.9m-181.4.2c0 .2.8 1 1.8 1.7 1.5 1.3 1.6 1.2.3-.4s-2.1-2.1-2.1-1.3m63.7 5.3c1.8.2 5 .2 7 0 2.1-.2.7-.4-3.2-.4-3.8 0-5.5.2-3.8.4m40.1 0c.7.3 1.6.2 1.9-.1.4-.3-.2-.6-1.3-.5-1.1 0-1.4.3-.6.6m68.4 7.3c0 1.4.2 1.9.5 1.2.2-.6.2-1.8 0-2.5-.3-.6-.5-.1-.5 1.3m-177 4c0 1.4.2 1.9.5 1.2.2-.6.2-1.8 0-2.5-.3-.6-.5-.1-.5 1.3m199.6.7c.7.3 1.6.2 1.9-.1.4-.3-.2-.6-1.3-.5-1.1 0-1.4.3-.6.6m-201.7 19.9c0 1.1.3 1.4.6.6.3-.7.2-1.6-.1-1.9-.3-.4-.6.2-.5 1.3m64.7-.9c.7.3 1.6.2 1.9-.1.4-.3-.2-.6-1.3-.5-1.1 0-1.4.3-.6.6m10.2 10.7c0 .2.8 1 1.8 1.7 1.5 1.3 1.6 1.2.3-.4s-2.1-2.1-2.1-1.3m-126.2 6.3c.7.3 1.6.2 1.9-.1.4-.3-.2-.6-1.3-.5-1.1 0-1.4.3-.6.6m318 2c.7.3 1.6.2 1.9-.1.4-.3-.2-.6-1.3-.5-1.1 0-1.4.3-.6.6m-330 5c.7.3 1.6.2 1.9-.1.4-.3-.2-.6-1.3-.5-1.1 0-1.4.3-.6.6m256.4 3.8c0 1.6.2 2.2.5 1.2.2-.9.2-2.3 0-3-.3-.6-.5.1-.5 1.8m-3.1.1c0 1.1.3 1.4.6.6.3-.7.2-1.6-.1-1.9-.3-.4-.6.2-.5 1.3m-199 4c0 1.1.3 1.4.6.6.3-.7.2-1.6-.1-1.9-.3-.4-.6.2-.5 1.3m189.7 6.1c.7.3 1.6.2 1.9-.1.4-.3-.2-.6-1.3-.5-1.1 0-1.4.3-.6.6m15 1c.7.3 1.6.2 1.9-.1.4-.3-.2-.6-1.3-.5-1.1 0-1.4.3-.6.6m-6.2 1c.6.4 1.4 1.5 1.7 2.3.5 1.1.6.9.4-.4-.1-1.1-.9-2.1-1.7-2.3-1-.3-1.1-.2-.4.4m4.6 4.3c0 1.9.2 2.7.5 1.7.2-.9.2-2.5 0-3.5-.3-.9-.5-.1-.5 1.8m-207.1.6c0 1.1.3 1.4.6.6.3-.7.2-1.6-.1-1.9-.3-.4-.6.2-.5 1.3m204.1 1.9c0 1.6.2 2.2.5 1.2.2-.9.2-2.3 0-3-.3-.6-.5.1-.5 1.8M104 404c-.9.6-1 1-.3 1 .6 0 1.5-.5 1.8-1 .8-1.2.4-1.2-1.5 0m185 16c-.9.6-1 1-.3 1 .6 0 1.5-.5 1.8-1 .8-1.2.4-1.2-1.5 0m-101 17.4c0 .2.8 1 1.8 1.7 1.5 1.3 1.6 1.2.3-.4s-2.1-2.1-2.1-1.3m119.9 4.3c-1.3 1.6-1.2 1.7.4.4s2.1-2.1 1.3-2.1c-.2 0-1 .8-1.7 1.7m-110.1 1c.7.3 1.6.2 1.9-.1.4-.3-.2-.6-1.3-.5-1.1 0-1.4.3-.6.6m9 1c.7.3 1.6.2 1.9-.1.4-.3-.2-.6-1.3-.5-1.1 0-1.4.3-.6.6m85 0c.7.3 1.6.2 1.9-.1.4-.3-.2-.6-1.3-.5-1.1 0-1.4.3-.6.6m-55 3c2.3.2 5.9.2 8 0 2-.2.1-.4-4.3-.4s-6.1.2-3.7.4m17.9 0c1.8.2 5 .2 7 0 2.1-.2.7-.4-3.2-.4-3.8 0-5.5.2-3.8.4m62.2 11c-1.3 1.6-1.2 1.7.4.4s2.1-2.1 1.3-2.1c-.2 0-1 .8-1.7 1.7"/><g fill="#fff" stroke-width="0"><path d="M111 29c0 1.3 3.5 4.8 15.1 15 7.9 6.9 15.2 13.7 28.9 26.8 4.7 4.5 9 8.2 9.5 8.2.6 0 3.1-.8 5.6-1.8l4.7-1.7-14-17.5c-13.2-16.6-16-19.3-21.6-20.4-.9-.1-2.8-.8-4.2-1.3-1.4-.6-6.5-2.4-11.5-4.1-4.9-1.6-9.8-3.3-10.7-3.7-1.2-.5-1.8-.3-1.8.5m266 2.7c-5.2 1.9-12.4 4.6-15.9 5.8-7 2.5-6.7 2.2-19.8 19.4-4.9 6.2-10 12.8-11.5 14.5-1.6 1.7-2.8 3.3-2.8 3.6s2.1 1.3 4.6 2.3c5.6 2.1 4.4 2.9 21.1-13.3 7.1-6.9 17.7-16.9 23.5-22.3S387 31 387.3 29.9c.6-2.3 1.2-2.4-10.3 1.8m12.1 11.6c-.7 5.2-1.1 9.8-1 10.3.3.9-1 15.2-1.6 18.4-.1.8-.6 4.9-.9 9-1 11.2-2.6 28.8-3.2 35-.4 4.2-.2 5.1.6 3.7.6-.9.8-2.2.4-2.9-.4-.6-.3-.8.3-.5 1.2.8 7-5.4 8.3-8.8.4-1.2 1.1-4.2 1.3-6.6 1-7.8 2.6-19.2 4.3-30.2 1.4-9 1.4-11.5.4-15.2-.7-2.5-1.6-4.5-2-4.5s-.7-.6-.7-1.4c0-1.4-4.4-15.6-4.8-15.6-.1 0-.8 4.2-1.4 9.3M106 39.7c-.6 2.6-1.6 5.9-2 7.3-4.3 13.3-4.2 12.2-.6 29.5l3.3 16 4.3-.2c6.9-.3 6.8-.1 5.4-9.9-.7-4.9-1.3-9.7-1.3-10.7-.1-1-.4-1.6-.8-1.4-.5.3-.8-1.1-.9-3.1-.1-7.6-3.9-30.1-5.2-31.4-.5-.5-1.4 1.2-2.2 3.9m6.4-2.1c.7 1.7 1.9 9.1 3.2 19.9.3 2.2 1.2 7.8 2 12.5s1.7 10.1 1.9 12c1.1 8 1.3 8.3 5.3 7.7 2-.3 4.4-.8 5.3-1.1.9-.4 2.7.2 4.1 1.4 2.1 1.6 2.9 3.5 3.9 9 .7 4.3 1.6 6.7 2.3 6.3.5-.4 0 .7-1.2 2.4-1.3 1.9-3.4 3.4-5.2 3.7-1.7.3-4.4.9-6 1.2-2.6.5-3 1-2.9 3.7.2 5.9 2.2 12.2 6.9 21.2 10.5 20.1 19 37.2 19 38.2 0 .6.7 1.6 1.5 2.3s1.2 1.6.9 2.1 0 .9.5.9c.6 0 1.1.6 1.1 1.2 0 2.4 17.7 36.7 18.5 36 .5-.4.5-.2.2.4-.8 1.5 7.7 18.7 8.7 17.6.4-.4.6-.2.4.4-.4 1.4 2.4 8.4 3.4 8.4.5 0 .6-.5.3-1-.3-.6-.2-1 .3-1 1.1 0 1.1 2.7.1-35.5-1.2-46.7-1.3-48.3-3.6-55.5-1.1-3.6-2.6-8.3-3.2-10.5s-2.3-7.6-3.7-12-2.7-8.7-2.9-9.6-1.8-6.3-3.5-12c-3.6-11.8-4.7-15.6-6.1-21.6-.9-3.6-2.9-6-13.2-15.7-6.7-6.3-14.2-13.2-16.6-15.3-2.5-2.1-6.1-5.4-8.1-7.3-5.7-5.5-11.4-10.5-13-11.5-1-.6-1.2-.4-.6 1.1m264.5 7.7c-4.2 3.9-10.6 9.9-14.3 13.3-3.6 3.4-6.2 6.4-5.8 6.8s.2.6-.5.4c-.6-.2-4.9 3.4-9.6 7.9-8 7.9-10.7 12.3-10.7 17.7 0 .9-.4 2.4-.9 3.4-1 1.9-2.9 8.7-3.3 11.7-.2 1.1-.6 2.2-.9 2.5s-1.5 3.9-2.7 8c-3.5 12.7-9.1 32.2-10.9 38-1.4 4.5-1.8 11.3-2.2 38-.7 49.7-.7 51.3.4 51.7.6.1 2.3-2.5 3.9-5.9 3.9-8.3 16.1-32.9 19.7-39.6 1.5-2.8 2.5-5.2 2.1-5.2s-.2-.4.4-.8c1.4-.9 8.5-15.2 7.6-15.2-.4 0-.2-.4.4-.8 1-.7 8.7-14.8 17.5-32.2 2.3-4.7 5.9-11.2 8-14.5 3.7-5.9 3.7-6.2 4.1-17.1.2-6.2.6-11 .9-10.8s.6-.9.7-2.4c0-1.5.8-9.7 1.6-18.2.9-8.5 1.9-18.4 2.1-22 .3-3.6.8-10 1.1-14.3.4-4.3.3-7.7-.2-7.7s-4.3 3.3-8.5 7.3M171.6 80c-2.6 1.1-5 2.1-5.3 2.4-.4.4 10.7 39.3 12.4 43.6.4.8.7 1.8.8 2.2.2.5.3.9.5 1 .1.2.3 1.2.4 2.3.4 2.7 3.3 12.3 4.3 13.8.4.6.8 1.6.9 2.2 0 .5.4 2.5.9 4.4l.8 3.4 3-7.4c1.6-4.1 4.4-11.5 6.1-16.4l3.2-9-5.2-10c-2.9-5.5-6.4-12.4-7.8-15.3-1.7-3.5-3-5.1-3.7-4.6-.7.4-.9.3-.5-.4.7-1.2-1.3-6.2-2.6-6.2-.5 0-.7-.3-.5-.8.3-.4-.2-2.1-1.1-3.9l-1.7-3.1zm152.6-.7c-.5.6-5.8 10.8-11.8 22.5-12 23.8-11.5 21.2-6.3 32.7 1 2.2 3.2 7.8 5 12.5 3.1 7.9 3.3 8.3 4 5.5.4-1.7 2.6-9.7 4.8-17.8 2.3-8.2 3.9-15.3 3.6-15.7-.3-.5-.1-1 .3-1.2.5-.1 2.5-5.9 4.6-12.8 2-6.9 4.4-14.7 5.2-17.3 1.8-5.1 1.3-6.4-2.4-7.2-1.1-.2-3-.8-4-1.4-1.5-.8-2.3-.7-3 .2"/><path d="M127.5 93.5c-.5.1-6.5 1.3-13.2 2.6-6.8 1.3-12.3 2.6-12.3 3 0 .3-1.1.4-2.4.2-1.3-.3-2.7 0-3 .6-.8 1.3 1 12.1 2.3 13.4.5.5 3.1.4 6.3-.3 2.9-.6 10.3-2.2 16.5-3.5 6.1-1.2 11.7-2.6 12.3-3 1-.6.9-2.7-.5-10.3-.2-.9-.4-2-.4-2.5-.1-.7-3.6-.9-5.6-.2m-10.8 21.6c-1.6.9-1.5 1.3.9 4.4 1.4 1.9 3.1 3.2 3.7 2.8.5-.3.7-.1.3.5-.3.6-.1 1.4.5 1.7.7.5.8-.7.3-4.1-.3-2.7-.8-5.2-1.1-5.7-.6-1-2.5-.8-4.6.4m271.6 2.5c.4.4-1.6 3.3-4.4 6.5-2.7 3.2-6 7.7-7.3 10.1-1.2 2.4-4 7.4-6.1 11.3-2.1 3.8-5.4 9.9-7.3 13.5-2 3.6-5.7 10.5-8.4 15.5-2.7 4.9-7.1 13.7-9.9 19.5s-5.8 11.8-6.6 13.4c-1.1 2.2-1.2 2.6-.1 2 1.8-1 10.2-6.8 10.8-7.4 1.5-1.5 21.1-14 22-14 .5 0 .9-.3.8-.8-.1-.4.4-1.9 1-3.5.7-1.5 1.4-3.8 1.6-5s2.1-8.7 4.1-16.7 4.1-16.3 4.7-18.5c.5-2.2 1.1-4.5 1.2-5 1.3-5.2 2.1-7.9 3.7-13.4 2.2-7.4 2.3-8.1.7-8.1-.6 0-.8.3-.5.6m-276.3.6c0 1 8 30.9 8.4 31.7.3.4.7 1.8 1 3.2.2 1.3 1 4.4 1.6 6.9.7 2.5 1.4 6 1.7 7.7.3 1.8.9 3.3 1.5 3.3.5 0 .6.5.3 1-.4.6-.2 2.5.4 4.3.5 1.7 1.5 5.1 2.1 7.4.6 2.4 1.5 4.3 2.1 4.3s3.6 1.8 6.6 4c3.1 2.2 6.2 4 6.9 4s1.4.4 1.6.8c.4 1 11.2 8.2 12.2 8.2.4 0 1.7.9 2.9 2 1.2 1.2 2.3 1.7 2.4 1.3.3-.8-23.1-47.9-32.6-65.7-5.6-10.5-7.4-12.9-8.6-11.8-.5.4-.5.2-.2-.4.4-.7-1.1-2.8-3.2-4.7-2.2-2-3.8-3.7-3.6-3.9.1-.2-.6-1.2-1.6-2.2-1.1-1.1-1.9-1.7-1.9-1.4m87 15.4c-1.4 3.8-2.5 7.3-2.5 7.9 0 .5-.3 1.2-.7 1.5-.8.7-5 12.1-5.1 14.2-.1.9-.5 1.4-.9 1.2-1.1-.7-1 1.3.6 10.2.8 4.4 2 11.7 2.6 16.4s1.6 10.3 2 12.5c.5 2.2 1.6 8.5 2.4 14 2.4 14.9 3.8 21.9 4.6 22.8 1.7 2 3.4-2.7 3.2-9.1-.1-3.6.5-10.2 1.4-14.6.9-4.5 1.8-9.2 1.9-10.6.2-1.4.5-3.2.8-4s1-2.9 1.5-4.5l.9-3 2.3 3.7c1.2 2.1 2.3 3.8 2.5 3.8.1 0-.4-3-1.1-6.8-.8-3.7-1.7-8.2-2-9.9-.4-1.8-.9-3.1-1.3-2.9-.4.3-.6-.7-.5-2.1 0-1.5-1.5-9-3.3-16.7-1.9-7.8-3.7-15.7-3.9-17.6-.3-1.9-1-5.7-1.7-8.4l-1.3-4.8zm99.9-2.4c-.2 3.3-.6 5.1-3.3 17.3-1.4 6-2.8 12.6-3.2 14.5-.3 1.9-.8 4.4-1 5.5s-1 4.7-1.8 8-2.1 9.1-2.9 13c-.8 3.8-1.8 8.1-2.1 9.5-.7 2.7-.9 2.6 12 9.6 6.7 3.7 8.1 4 8.1 2.1 0-1.8 5.3-36.4 6.4-42 1.7-8.8.9-12.2-6.7-29.4-.8-1.7-1.4-3.6-1.4-4.2s-.4-1.1-1-1.1c-.5 0-.9-.3-.9-.8.1-.4.1-1.5 0-2.5-.2-2.5-2.1-2.1-2.2.5m-34.4 44.4c-1.6.7-7 3.2-12 5.5-4.9 2.3-9.6 4.3-10.4 4.5-1.8.4-3.1 2.5-2.4 3.9.4.5.3.7-.2.3-.9-.9-13.8 20-13.7 22.2 0 .8.1 7.3.2 14.4l.1 12.9 3.9-3.8c2.1-2.1 3.6-4.3 3.3-4.8-.3-.6-.1-.7.4-.4 2 1.3 9.1-9 19.6-28.3 10.4-19.2 14.7-27.4 14.4-27.5-.1-.2-1.5.3-3.2 1.1m101.4 19.2c-1.3 1-4.6 3.1-7.3 4.8-10.3 6.2-13.9 8.5-15.1 9.8-.6.6-2.8 2-5 3.1-3.6 1.8-4.6 3.4-11.7 17.5-4.3 8.5-7.8 16-7.8 16.7 0 1.6 4.1 4.4 5.3 3.6.6-.3.7-.2.4.3s.7 1.7 2.3 2.6l2.9 1.6 6.8-10.6c3.7-5.9 8.1-12.8 9.8-15.4 1.6-2.6 4.4-7 6-9.8 1.7-2.9 3.5-5.7 4-6.3.6-.7 2.6-3.9 4.4-7.2 1.9-3.3 4.5-7.5 5.8-9.3 2.7-3.7 2.6-4-.8-1.4M135.7 197c.9 1.6 2.1 3 2.5 3s.7.3.6.7c-.3.8 5.2 10 15 25.1 2.9 4.6 5.6 9 5.9 9.8s1 1.1 1.7.7c.6-.3.8-.3.4.2-.9.9.1 2.9 5.9 11.7l4.4 6.6 5.2-3.5c2.9-1.9 5.2-4 5.3-4.7 0-1.2-11.4-24.7-12.5-25.6-.3-.3-.7-1.2-.9-2-.4-1.7-4.2-6-5.3-6-.4 0-7.2-4.3-15-9.5s-14.4-9.5-14.6-9.5.4 1.3 1.4 3"/><path d="M211.2 204.2c-.7 3.5-1.6 8.5-2.2 11.3-1.8 8.7.9 22.9 4.1 21 .5-.4.8-.2.7.3-.4 1.3 8.2 13.2 9.5 13.2.5 0 .7-1.4.3-3.3-.3-1.7-.6-9.9-.7-18-.1-14.8-.1-14.9-3.3-20.5-4.5-8-6-10.2-6.7-10.2-.3 0-1.1 2.8-1.7 6.2m51.7 1.1c-8.6.9-8.7.9-10.8 4.7-1.1 2-1.8 4-1.4 4.4.3.3.1.6-.4.6-1.1 0-7.8 9.9-7.1 10.5 1.3.9 17.9 11.5 20.3 12.9 1.7.9 5.8 3.4 9.2 5.5l6.2 3.9-2-5.1c-1.1-2.9-3.4-8.2-5-11.9-1.6-3.6-2.9-7.1-2.9-7.6 0-1.2 5.7-1.9 23.9-3.2 7.9-.5 14.5-1.1 14.7-1.2.1-.2-2.3-1.7-5.4-3.3s-5.9-3.2-6.2-3.5c-.7-.7-3.4-2.3-9.2-5.4-5.1-2.8-7.8-2.9-23.9-1.3"/><path d="m292.5 223.9-9 .6 8.4 5.3c4.6 2.9 8.4 5.2 8.6 5 .3-.4 1.6-11.8 1.3-11.6-.2.1-4.3.4-9.3.7m-18.5 2.2c0 1 5.8 15.5 8.7 21.7 1.5 3.1 1.5 3.4-.6 5.6-1.1 1.2-2.1 2.5-2.1 2.7 0 .7-.7.7 21.2.9 15 .2 18.8.5 19.2 1.6.6 1.5 6.3 1.7 7.2.3.8-1.4-35.3-25.2-36.8-24.3-.6.4-.8.3-.5-.3.3-.5-2.3-2.8-5.8-5.1-6.3-4.1-10.5-5.3-10.5-3.1"/><path d="M235.1 234.4c-3.3 3.4-6.1 6.7-6.1 7.4s-.5 1-1 .7c-.7-.4-1 .8-.8 3.5.1 2.3.5 4.3.9 4.6.4.2 2.5-1.6 4.6-4.1l3.9-4.6 6.1 6.3c11.8 12.1 11.5 11.7 11.1 21.3-.2 5.1.1 8.7.7 8.9.5.3.4.5-.2.5-.8.1-1.3 1.5-1.3 3.7v3.5l4.8-6c9.6-12.1 21.2-27.7 21.2-28.4s-23.4-15.2-23.9-14.8c-.2.1-.7-.1-1-.6-1.2-1.7-6.9-5.3-8.5-5.3-.9 0-1.6-.4-1.6-.9 0-2.9-3.4-1.2-8.9 4.3m-35.6 6.6c-9.4 6-22.2 14.6-28.6 19.2-4 2.9-9.1 9.5-17.3 22.3l-2 3 2.5-2.1c7.7-6.7 9.8-8.8 9.3-9.5-.3-.5.1-.7.8-.4 1.5.6 16.8-13 16.8-15 0-.7 1-1.3 2.3-1.3 1.2.1 10.7 0 21-.1l18.8-.3-1.7-2.6c-1-1.4-3.6-4.9-5.8-7.7-2.3-2.7-5-6.2-6.1-7.8l-2-2.7z"/><path d="M233.5 250.7c-5.5 6.4-5.5 6.3 4.1 6.3h8.7l-3.9-4.4c-2.2-2.4-4.3-4.6-4.9-4.9-.5-.2-2.3 1.1-4 3m-47.1 10.8c.2 1.6 7.8 13.5 9.9 15.6.8.8 2.2 3 3.1 4.8 1.3 2.4 2.3 3.2 3.7 2.8 1-.3 1.7-.1 1.3.4-.3.5 1 .9 2.8 1 1.8 0 4 .2 4.8.3.8.2 6.8.9 13.3 1.6 7.7.9 12.1 1.8 12.4 2.6.3.7-2.5 5.1-6.2 9.8l-6.6 8.6h25c13.8 0 25.1-.4 25.1-.8s-2.7-4.1-6-8.2-6-8.2-6-9.1c0-1.3 2.7-1.9 16.3-3.3 8.9-1 16.8-2.3 17.6-2.9 1.2-.9 1.3-.9.7 0-.4.8-.2 1.1.6.8.7-.3 4-4.7 7.3-9.8 3.3-5 6.3-9.4 6.6-9.7s1.1-1.5 1.7-2.7c1.7-3.1.4-3.3-19.3-3.3h-17.3l-12.8 17c-7 9.3-13.1 17-13.6 17s-.8-7.2-.8-15.9c.1-8.8-.1-16.5-.4-17-.5-.7-11.7-1-32-1-25.9.1-31.4.3-31.2 1.4"/><path d="M181.5 264.5c-1.2 3.5-6.8 16.3-9.7 22.2-1.7 3.6-2.8 4.5-7.2 6-2.8.9-5.7 1.8-6.5 1.9-3 .5-17.7 4.6-18.9 5.3-1 .5-.2 1.6 2.5 3.6 3.7 2.8 5.5 4.3 16.2 13.4l5.1 4.4-.6 5.6c-.3 3.1-.7 7.2-1 9.1-1.1 8.8-1.6 19-.9 19 .9 0 5.8-3 19.2-11.7 4.4-2.9 8.8-5.3 9.6-5.3 1.8 0 15.3 4.6 17.9 6 1 .6 2.6 1 3.6 1s2.2.3 2.6.7c.8.9 7.9 3.3 8.4 2.9.1-.2-1.1-4.8-2.8-10.2-5-15.9-5.9-18.8-5.6-19.2.5-.5 72.8-.4 73.3.1.2.3 0 2-.6 3.9-3.8 12.8-7.1 24.4-7.1 25s5.8-.9 12.5-3.5c5.5-2.1 7-2.6 14.1-5.2l6.2-2.2 7.1 4.8c3.9 2.7 7.3 4.9 7.5 4.9.6 0 11.5 6.7 13.2 8.1 1.3 1 1.4.4.9-5.2-.6-6.9-1.4-13.9-2-17-.2-1.1-.5-4.2-.6-6.9-.2-4.4.1-5.1 3.1-7.7 7.2-5.9 13.5-11.7 13.8-12.5.2-.4.9-.8 1.6-.8 1.7 0 6-4.7 4.9-5.3-.5-.3-2-.8-3.4-1.1-1.3-.3-3.9-.9-5.8-1.5s-3.7-.8-4.2-.6c-.4.3-.9.1-1.1-.3-.1-.5-3.6-1.8-7.6-2.8-8.1-2.2-7.3-1.3-14.5-15.9-1.9-3.9-4-8.7-4.6-10.8-1.1-3.1-1.5-3.6-2.7-2.6-.8.6-1.4 1.5-1.4 2s-3.5 5.9-7.7 11.9l-7.7 10.9-7.1.8c-3.8.4-7.3.6-7.7.5-.5-.1-.8.1-.8.6 0 .4-3.2.8-7.2.9-4.6.1-7.4.6-7.9 1.5-.7 1.1-.9 1-.9-.1 0-.8-.3-1.2-.6-.9-.3.4 2.6 4.7 6.5 9.7s7.1 9.5 7.1 10.1c0 .7-11 1-32 1-17.6 0-32-.4-32-.8 0-.5.8-1.7 1.8-2.8 3.8-4.2 12.2-15.4 12.2-16.3 0-.5-3.5-1.3-7.7-1.7-4.3-.3-11.6-1.2-16.2-1.8l-8.5-1.1-6.3-9.5c-3.5-5.2-7-10.2-7.7-11.1s-1.8-2.5-2.4-3.5c-1-1.8-1.1-1.8-1.7.1m9.4 19.6 6.2 9.7 9.7.6c5.3.4 11.4.9 13.5 1.2l3.7.6-6.7 7.6c-3.8 4.2-7.8 8.7-8.9 10-2.4 2.7-2.7 1 3.5 20.2 1.1 3.5 1.8 6.6 1.6 6.9-.3.2-1.7-.1-3.2-.8-1.6-.7-5.9-2.4-9.8-3.8-3.8-1.4-7.4-2.9-8-3.4-2-1.9-6-.7-12.8 3.8-4 2.6-8.5 5.8-10 7-1.6 1.3-3.2 2.3-3.6 2.3s-.4-3 0-6.8c2.3-21.1 2.4-19.5-.6-22.4-1.5-1.5-3.1-2.5-3.6-2.2s-.9-.2-.9-1c0-.9-.3-1.6-.7-1.6-1.1-.1-11.8-9.9-11.2-10.3.2-.3 4.5-1.4 9.4-2.6 5-1.2 10.3-2.5 11.9-2.9 3.2-.8 3.5-1.3 6.7-8.7 1.1-2.8 2.5-5.9 3-7s1.3-3.3 1.9-4.9c1.3-3.4.9-3.8 8.9 8.5m129-6.4c.8 2.1 2.6 6.6 4.2 10s2.9 6.6 2.9 7 5.6 2.1 12.5 3.8c6.9 1.6 12.5 3.3 12.5 3.7s-.6 1.1-1.4 1.5-4.9 3.9-9.1 7.8c-4.3 3.8-8.2 7.3-8.8 7.6-.5.4-.7 1.1-.4 1.5.3.5.8 4.5 1.2 8.9s1.1 9.8 1.5 12c.5 2.2.7 4.1.5 4.3s-5.1-2.8-10.9-6.7c-10.5-7-13-8-16.4-6.2-.9.5-4.8 2.1-8.7 3.6-3.8 1.4-8.2 3.2-9.7 4-3 1.5-4.2.3-2.6-2.8 1.2-2.2 6.8-19.9 6.8-21.3 0-.6-3.3-4.5-7.2-8.7-4-4.3-7.2-7.7-7-7.7s-.4-.7-1.3-1.6c-2.5-2.6-1.7-2.8 9.3-3.2 2.4-.1 4.1-.5 3.9-1-.3-.4 2.3-.6 5.6-.5l6.2.1 5.8-8.4c3.2-4.7 5.5-9 5.1-9.6-.4-.7-.3-.8.4-.4s1.2.2 1.2-.3c0-2.6 2.7-.8 3.9 2.6m8.6-10.9c5.9 5.4 17.8 15.7 19.3 16.6 1.1.7-9.1-15.7-12-19.2-.6-.7-3.3-1.2-6.2-1.2h-5.1z"/><path d="M328.6 276.7c5.3 11.4 6 12.3 10.1 12.6 1.7.1 2.9.6 2.6 1.1s.6.7 2.1.4c1.4-.3 2.6-.2 2.6.2 0 .8 8 3.3 8.6 2.7.3-.2-1-1.6-2.8-3s-5.3-4.4-7.8-6.7-7-6.3-10-8.8c-3-2.6-5.7-5-5.8-5.5-.2-.4-1.2-1.2-2.2-1.7-1.5-.8-.9 1.2 2.6 8.7M169 274.1c-3.6 3.3-7.8 7.1-9.5 8.4-4.4 3.5-13.2 11.7-11.8 11 .7-.3 2.1-.8 3-1 1-.2 3.8-.8 6.3-1.5 2.5-.6 5.8-1.4 7.3-1.8 2.4-.6 3.5-2.2 7.3-10.6 2.4-5.4 4.3-10 4.1-10.2-.1-.2-3.2 2.4-6.7 5.7m186.5 36.7c-1.6 1.5-5.6 4.9-8.8 7.7-5.7 4.8-5.9 5-5.2 8.9 1.2 8.2 1.7 11.1 1.8 11.2.3.2 20.1-4.8 20.5-5.1.3-.3-3.7-19-4.6-21.5-.3-.8-.4-2.1-.3-2.8.3-1.7 0-1.6-3.4 1.6m-213.7.9c-.1 1.5-.2 3.6-.1 4.5 0 1-.5 1.8-1 1.8s-.7.9-.4 2 .1 2.3-.5 2.6c-.5.3-.8 1.5-.5 2.5s.1 1.9-.4 2.1c-.4.2-1 1.7-1.3 3.3-.6 3.1-.5 3.1 6.7 4.9 13.3 3.4 13.3 3.4 14-1.1 1.3-7.3.8-11.8-1.3-13.6-1.1-.9-2.2-1.7-2.3-1.7-.2 0-2.4-1.8-4.8-4.1-6.5-6.1-7.9-6.6-8.1-3.2m76.4 11.7c-.3.6 0 1.2.6 1.4.7.2 1 .7.8 1.1-.5.7 1.7 9.6 3.3 13.6.5 1.1 1.2 3.3 1.7 4.9l.9 3 24.9.1c16 0 25-.3 25.2-1 .2-.5.5-1.9.7-3s.7-2.7 1-3.5c1.5-3.8 4.9-16.2 4.5-16.5-.9-1-63-1-63.6-.1m-90.6 25.1-7.6 10.8 13.2 5.8c14.5 6.2 16.3 6.8 16.5 5.5.1-.5.5-1.2 1-1.5s1.9-2.3 3.2-4.4l2.3-3.8-3.5-4.2c-2-2.3-6.7-7.5-10.5-11.6l-6.9-7.4zm228.3-.4c-5.2 5.6-9.8 10.7-10.2 11.5-.8 1.3 3.3 10.7 5.2 11.8 1 .7 7.4-1.8 6.7-2.5-.3-.3.3-.6 1.2-.6.9-.1 6.2-2.2 11.8-4.5l10.1-4.4-2.1-3.1c-3.7-5.5-12.8-18.3-13.1-18.3-.1 0-4.4 4.6-9.6 10.1"/><path d="M181 346.8c-19.9 12.9-21.5 14.1-23.4 17.5-1 2-1.7 3.7-1.5 4 .2.2-.4 1.1-1.3 2.1-1 1-1.8 2-1.8 2.4s2.8 2 6.3 3.5c10.2 4.7 10.7 5 10.7 6.4 0 1.9-.9 1.7-10-2.2-4.5-1.9-8.3-3.5-8.5-3.5s-.5 2.9-.7 6.5l-.3 6.4 3.5.5c1.9.3 5.6.8 8.3 1.2 2.6.3 4.7.9 4.7 1.3-.1 2-1.9 3-4.5 2.5-1.7-.3-5.1-.9-7.7-1.3l-4.8-.8v3.1c0 1.7-.3 4-.5 5.1-.4 1.6.6 2.7 4.9 5.2 3 1.8 5.9 3.3 6.5 3.3s1.1.4 1.1.9 1.4 1.4 3 2.1c1.7.7 3 1.5 3 1.9 0 .3 2.9 2.2 6.4 4.1l6.4 3.4 19.3-1.3c21.5-1.4 19-.6 37.8-12 4.6-2.8 8.8-5.1 9.3-5.1.4 0 .8-5.6.8-12.6v-12.5l-8.2-8.5c-4.6-4.7-8.4-8.9-8.6-9.4-.2-.4 1-2 2.5-3.4 2.7-2.5 3.1-2.6 17.1-2.6 14.2 0 14.3 0 16.8 2.7l2.5 2.7-5.5 5.5c-3 3.1-7 7.3-9 9.5l-3.4 3.8.1 12 .2 11.9 4 2.2c2.2 1.2 4.5 2.7 5.1 3.2.6.6 3.3 2.2 6 3.5 2.7 1.4 5.1 2.8 5.4 3.1s2.4 1.6 4.6 2.8c3.1 1.7 5.3 2.2 8.8 2 2.5-.2 4.7-.1 4.8.3.2.3 7.4.9 16.2 1.3 11.7.5 15.7.4 15.2-.4-.4-.6-.3-1 .2-.9.6.2 7-3.5 14.4-8.1l13.3-8.3-.3-4.9c-.4-4.8-.4-4.9-3.8-4.9-1.9 0-3.4.3-3.4.7 0 1-7.7.9-8.7 0-1.3-1.4 1.3-2.6 7.7-3.6 3.6-.6 6.9-1.1 7.4-1.1.4 0 .5-2.1.1-4.8-.4-2.6-.7-5.5-.7-6.4.1-1.4-.4-1.5-2.9-.6-1.6.5-2.9 1.5-2.9 2.1s-.3.8-.6.4c-.3-.3-2.6.3-5.2 1.4-4.4 1.9-7.2 1.9-7.2 0 0-.5 2.8-2 6.3-3.4 3.4-1.4 7.4-3.1 8.8-3.8l2.6-1.3-2-4.1c-1.2-2.2-2.5-4.3-3-4.6s-.8-.9-.8-1.3c.3-2-.4-2.8-5.1-5.9-18.1-11.6-24.8-15.7-25.7-15.7-1.5 0-16.1 4.9-27.8 9.3-8.6 3.2-9.3 3.3-9.3 1.6 0-1.8-1.1-1.9-24-1.9-20.7 0-24 .2-24 1.5 0 .8-.4 1.5-1 1.5-1 0-7.4-2.3-12.5-4.5-1.6-.7-5.2-2-8-2.8-2.7-.8-7.2-2.4-10-3.5l-5-2zm-62 20.8c-2.5.8-8.6 2.5-13.7 3.8-9.4 2.5-8.9 2.5-20.3-.2-1.4-.3-3.7-.6-5.2-.6-1.4-.1-2.4-.4-2.1-.9.5-.9-6.1-1-7 0-.4.3-5.5 2.8-11.5 5.4-5.9 2.6-10.7 5.4-10.7 6.1 0 2.2 3.8 1.1 15.1-4.2 9.9-4.7 11-5 14.1-3.9 1.9.6 4.6.9 5.9.6 1.4-.2 2.2-.2 1.9.1-.8.9 7.4 3.2 11.3 3.2 1.8 0 4.6-.7 6.2-1.5 1.7-.9 3.2-1.5 3.5-1.5 3.2.1 4.5-.1 4.2-.8-.3-.4.8-.7 2.5-.8 1.6-.1 5.6-.9 8.8-1.9 4.9-1.5 6.2-1.6 7.5-.5.8.7 1.4 1.5 1.1 1.7-.2.2 1.1 3.9 2.9 8.1 3.2 7.7 3.2 7.7 7.8 8.6 2.6.5 4.9.7 5.2.5.2-.3.7-3.5 1.1-7.2.6-6.6.3-7.3-2.8-6.8-.5 0-.8-.4-.8-1s-.7-.8-1.6-.5c-.8.3-1.3.2-1-.3.7-1.1-2.2-2.3-3.5-1.5-.5.3-.9.1-.9-.4 0-1.3-5-3.3-6.2-2.6-.6.4-.8.2-.5-.3.7-1.1-2.5-2.4-5.3-2.2-.8.1-3.5.8-6 1.5m247.1 1.9c-4 1.9-7.9 3.5-8.7 3.5s-1.4.4-1.4 1c0 .5-.9 1-2.1 1-1.5 0-1.9.4-1.5 1.6.3.9.6 4.2.6 7.4v5.8l4.8-1c2.6-.6 5.2-1.8 5.7-2.7 1-1.6 6.1-13.2 7.1-16.2.6-1.8-.3-2 19.9 3.7 13.4 3.8 15.3 3.9 26.3 1l9.9-2.6 6.1 3c7.1 3.4 18.2 8 19.4 8 .4 0 .8-.7.8-1.6 0-.8-1.7-2.2-3.7-3-2.1-.8-5.5-2.4-7.5-3.5-2.1-1.1-3.8-1.7-3.8-1.3 0 .3-.7.1-1.5-.6-.8-.6-2-.8-2.6-.4q-1.05.6-.6-.3c1-1.6-6.7-3.6-10.7-2.9-2 .4-3.4 1.1-3.1 1.6.3.6 0 .7-.8.5-.7-.3-4.2.1-7.8.9-5.7 1.4-7 1.4-11.4.1-12.3-3.7-22.9-6.5-24.4-6.5-.9 0-4.9 1.6-9 3.5m-240.3 23.3c-2.4 1.3-6.9 3.8-10 5.4-3.3 1.7-5.5 3.5-5.1 4.1.3.6.1.7-.5.3-1.5-.9-17.3 7.4-16.5 8.7.3.6.1.7-.4.4-.6-.4-2.2.2-3.6 1.3s-2.8 2-3.2 2c-.3 0-3.4 1.9-6.7 4.2l-6.1 4.1-7.6-1.2c-5.2-.8-7.8-.8-8.5-.1-1.3 1.3.8 2.9 3.9 3.1 1.1 0 2.7.2 3.5.4 7.4 1.9 8.6 1.7 14.1-1.6 3-1.8 6.8-4.3 8.5-5.6s3.6-2.3 4.2-2.3c.7 0 1.2-.3 1.2-.8 0-.4.9-1.2 1.9-1.7 10.7-5.5 14.9-8 14.4-8.8q-.45-.9.6-.3c.6.4 3.5-.6 6.4-2.2 2.8-1.7 7-4 9.2-5.2 4.3-2.4 13.3-2.9 14.6-.8.4.6 1.2.7 2 .2 1.1-.6 1.2-.5.2.7-.9 1.1-.8 2.3.6 5.4 2.1 4.5 2.6 3.8 3.5-4.2l.5-5.2-3.2-.6c-1.8-.2-5.5-.9-8.4-1.3-4.6-.8-5.7-.6-9.5 1.6M366 391c-1.9.5-5.7 1.2-8.3 1.5-3.9.5-4.7.9-4.2 2.4.3.9.6 3.6.7 5.9q.15 4.2 1.5 4.2c.7 0 1.2-.3 1.1-.8-.1-.4.7-2.6 1.7-4.9 1.8-4 2.1-4.1 6.9-4.5 5.3-.3 4.9-.5 20.6 8 15.9 8.5 24.1 13.3 34.2 20l6.6 4.4 7.6-1.3c8.5-1.4 10.2-2.1 9.2-3.8-.7-1.1-5.8-.7-12.3.9-2.6.7-3.9.3-8.2-2.6-2.8-1.9-5.1-3.1-5.1-2.7 0 .5-.4.3-.8-.2-1.1-1.6-12.1-8.6-19.7-12.5-3.8-2-8.7-4.7-10.7-5.9-2.1-1.3-3.8-1.9-3.8-1.4 0 .4-.4.3-.8-.3-.7-1-11.6-7.5-12.3-7.3-.2.1-2 .5-3.9.9m-218 19.4c0 3.6 7.9 14.1 35.5 47.1 2.2 2.7 5.3 6.6 6.9 8.7l2.8 3.9 2.3-3.3c1.2-1.8 3.2-5.2 4.5-7.5l2.3-4.2-2.7-3.1c-1.4-1.7-2.6-3.5-2.6-3.8 0-.4-1.5-2.3-3.3-4.3-1.7-2-5.9-6.9-9.1-11-4.8-6.1-7.8-8.6-15.7-13.4-5.4-3.3-9.9-6.3-9.9-6.8 0-.4-.5-.7-1-.7-.6 0-2.8-1.1-5-2.5s-4.2-2.5-4.5-2.5-.5 1.5-.5 3.4"/><path d="M237.5 413c-13 7.6-15.5 9.3-15.5 10.5 0 .5 2.3 5.7 5.1 11.6l5.2 10.6 7.8.2 7.9.2v-19.5c0-10.8-.1-19.6-.2-19.5-.2 0-4.8 2.7-10.3 5.9m14.5 13.4v19.4l7.1.4c6.8.3 9.9-.4 9.9-2.2 0-.4 2.2-5.5 5-11.1l4.9-10.3-2.7-1.7c-16.7-9.9-23.4-13.9-23.8-13.9-.2 0-.4 8.7-.4 19.4m95.7-17.1c-2.1 1.3-3.4 2.7-3 3.2.4.4.3.5-.4.2-.6-.4-3.8 1-7 3.1s-7.7 4.9-10 6.2c-2.2 1.2-6.7 5.5-10 9.4-3.2 3.9-6.8 8.2-7.9 9.6-1.2 1.4-4.2 5.2-6.7 8.4l-4.4 5.9 2.9 5.2c6.2 10.7 5.3 10.7 13.5.2 4-5.1 8.3-10.4 9.5-11.8 1.3-1.5 3.7-4.4 5.3-6.5 1.7-2.1 4.7-5.8 6.7-8.3 2-2.4 3.4-4.9 3.1-5.4-.3-.6-.2-.7.4-.4.5.3 1.8-.6 2.9-2 1-1.5 3.7-4.9 5.9-7.7 3.4-4.3 4-5.6 3.5-8.3l-.5-3.3zm-149 35c4.3 6.9 8.2 10.5 15.6 14l7.9 3.7-3.3-5.7c-1.7-3.2-4-7.1-4.9-8.8-1.7-3.1-5.3-4.3-12.8-4.4-2.5-.1-3.1.2-2.5 1.2m93.2-.6c-1.5.2-3.4 1.2-4.3 2.1-1.7 2-9.7 16.2-9 16.2.3 0 3.3-1.4 6.7-3.2s6.5-3.2 6.9-3.3c.9 0 4.4-3.7 8.2-8.8l2.8-3.7-4.3.1c-2.4.1-5.6.4-7 .6"/><path d="M200.3 465c-3.7 6.2-4.1 7.1-2.5 7.6.9.3 2.6 1 3.7 1.4 1.1.5 6.9 2.5 12.9 4.5l10.9 3.6 27.5-.3c21-.2 27.6-.6 28-1.6.2-.6.8-1 1.2-.7.5.3 3.5-.5 6.7-1.8s8-2.9 10.6-3.7c2.6-.7 4.7-1.8 4.5-2.4-.7-2.4-7.4-13.6-8.2-13.6-.5 0-5.5 2.2-11.1 5l-10.2 5h-23.9c-22.1 0-24.2-.2-27.7-2-2.1-1.1-4.2-1.8-4.7-1.5-.4.3-1 .1-1.2-.4-.3-.9-10.1-6.1-11.5-6.1-.5 0-2.7 3.2-5 7"/></g><path fill="#aaa" d="M120 42.4c0 .2.8 1 1.8 1.7 1.5 1.3 1.6 1.2.3-.4s-2.1-2.1-2.1-1.3m109.8 215.3c1.2.2 3 .2 4 0 .9-.3-.1-.5-2.3-.4-2.2 0-3 .2-1.7.4m-82.7 129.9c0 1.1.3 1.4.6.6.3-.7.2-1.6-.1-1.9-.3-.4-.6.2-.5 1.3"/><path fill="#ffd4d4" d="M385.5 116c-.4.6-1.1.7-1.7.4-.7-.4-.8-.2-.4.5.6.9 1.1.9 2.2 0 1.4-1.1 1.8-1.9 1-1.9-.3 0-.8.5-1.1 1m4 0c-.3.5-.1 1 .4 1 .6 0 1.1-.5 1.1-1 0-.6-.2-1-.4-1-.3 0-.8.4-1.1 1m-3.1 4.2-1.9 2.3 2.3-1.9c1.2-1.1 2.2-2.1 2.2-2.3 0-.8-.8-.2-2.6 1.9m-260.3 6.4c0 1.1.3 1.4.6.6.3-.7.2-1.6-.1-1.9-.3-.4-.6.2-.5 1.3M315.2 170c0 1.9.2 2.7.5 1.7.2-.9.2-2.5 0-3.5-.3-.9-.5-.1-.5 1.8m-107.1 57.6c0 1.1.3 1.4.6.6.3-.7.2-1.6-.1-1.9-.3-.4-.6.2-.5 1.3M186.5 244c.3.5.8 1 1.1 1 .2 0 .4-.5.4-1 0-.6-.5-1-1.1-1-.5 0-.7.4-.4 1m5.3 13.7c.7.3 1.6.2 1.9-.1.4-.3-.2-.6-1.3-.5-1.1 0-1.4.3-.6.6m114 0c1.2.2 3.2.2 4.5 0 1.2-.2.2-.4-2.3-.4s-3.5.2-2.2.4m-55.7 6.9c0 1.1.3 1.4.6.6.3-.7.2-1.6-.1-1.9-.3-.4-.6.2-.5 1.3m-25.3 58.1c.7.3 1.6.2 1.9-.1.4-.3-.2-.6-1.3-.5-1.1 0-1.4.3-.6.6m17 0c1.2.2 3.2.2 4.5 0 1.2-.2.2-.4-2.3-.4s-3.5.2-2.2.4m23 0c.7.3 1.6.2 1.9-.1.4-.3-.2-.6-1.3-.5-1.1 0-1.4.3-.6.6m9.5 0c1.5.2 3.7.2 5 0 1.2-.2 0-.4-2.8-.4-2.7 0-3.8.2-2.2.4"/><path fill="#ffd4ff" d="M249.8 322.7c1.2.2 3 .2 4 0 .9-.3-.1-.5-2.3-.4-2.2 0-3 .2-1.7.4m8 0c1.2.2 3.2.2 4.5 0 1.2-.2.2-.4-2.3-.4s-3.5.2-2.2.4M198 450.4c0 .2.8 1 1.8 1.7 1.5 1.3 1.6 1.2.3-.4s-2.1-2.1-2.1-1.3"/><path fill="#ffffd4" d="M242.7 347.7c1.8.2 5 .2 7 0 2.1-.2.7-.4-3.2-.4-3.8 0-5.5.2-3.8.4m14.6 0c1.5.2 3.7.2 5 0 1.2-.2 0-.4-2.8-.4-2.7 0-3.8.2-2.2.4"/></svg>