<svg xmlns="http://www.w3.org/2000/svg" viewBox="0 0 1254 1254"><g stroke-width="0"><path d="M0 627v627h1254V0H0zM313.2 81.1c19.4 6.6 39.7 13.5 45.1 15.3l9.8 3.3 22.2 28c12.2 15.4 27.8 35.1 34.7 43.8 6.9 8.6 13.1 16.4 13.7 17.4 1.2 1.6 0 2.2-12.2 6.5-7.4 2.6-14.1 4.6-14.9 4.4-.7-.2-18.4-16.3-39.2-35.9-37.3-35.1-60.4-56.2-79.9-72.9-15.4-13.2-15.2-13.1-15.9-17.8-.4-2.3-.2-4.2.3-4.2s16.8 5.4 36.3 12.1M973 72.7c0 2.1-.3 4.8-.6 5.9-.3 1.2-6.5 7.5-13.7 14-18.3 16.5-39.3 36.2-65.6 61.4-12.3 11.8-28.2 27.1-35.3 33.9l-12.9 12.3-13.4-4.7c-7.4-2.6-13.5-5.2-13.5-5.7s7.4-10.3 16.3-21.6c24.5-31 43.3-54.9 48.9-62.3l5.1-6.7L916.4 89c15.4-5.7 34-12.5 41.1-15.1 7.2-2.7 13.6-4.8 14.3-4.9.7 0 1.2 1.4 1.2 3.7m17.5 40.9 11.8 35.1-6.7 47.9c-3.7 26.4-7.6 54.1-8.7 61.8-2 13.8-2 13.9-6.6 20-10.7 14-23.7 29.8-24 28.9-.2-.5 2.6-32.2 6.2-70.4 3.5-38.2 7.8-84.9 9.5-103.9s3.5-39.2 4-45c.6-5.8 1-11 1-11.5.1-2.4 2.4 4 13.5 37.1M274.5 92c.9 3.6 2 8.1 2.5 10s1.8 10 3 18 5.5 35.8 9.6 61.9 7.3 47.5 7.2 47.7c-.2.1-6.9 1.5-15.1 3.2l-14.7 2.9-.5-2.1c-.8-3.3-15.6-75.7-16.2-79.1-.3-1.9.7-7.3 2.7-14 7.9-27.7 17.3-59.1 17.8-60 .4-.5 1 .4 1.4 2 .4 1.7 1.4 5.9 2.3 9.5m21.4 8.2c79.9 72.6 112.4 103.2 113.4 107.2 1.3 4.9 30.6 103.7 44.8 151.1l12.9 43 1 40.5c.6 22.3 1.7 70 2.5 106l1.6 65.5-2.8 2.2c-1.5 1.3-3 2.3-3.3 2.2-.3 0-2.4-3.9-4.7-8.7s-20.8-42-41-82.7c-20.3-40.7-41-82.6-46.1-93-11.8-24.3-35.4-70.5-47.2-92.5-5.1-9.4-9.8-18.7-10.5-20.8-1.5-4.3-6.1-35.9-5.4-36.7.3-.3 7.2-1.8 15.4-3.5 8.1-1.6 15.3-3.5 16-4 .7-.6 2.4-2.7 3.8-4.8l2.6-3.7-1.9-10c-4.9-25.6-5.3-26.8-8.5-29.8-5.3-4.9-8.4-5.1-23.3-1.9-9.1 2-13.5 2.6-13.7 1.8-.2-.6-1.3-7.2-2.4-14.6-1.2-7.4-5.5-35.1-9.6-61.5s-8.1-51.9-8.9-56.8c-.7-4.8-1.1-8.7-.9-8.7.3 0 7.5 6.4 16.2 14.2m675.1-9c0 3.4-14.3 158.8-18 195.3-1.1 11-2 21.5-2 23.4 0 2-1.2 5.4-3.2 8.5-6.8 11.1-14 24.1-25.3 45.6-6.5 12.4-16.1 30.8-21.5 41s-16.6 32-25.1 48.5c-8.4 16.5-19 37-23.7 45.5-8.1 14.9-21.5 41.8-47.1 94.3L793 618.2l-3.1-2.3-3.1-2.2.7-29.1c.5-22.7 1-29.4 2.1-30.5 1.2-1.3 1.1-1.7-.1-3.1-1.2-1.3-1.2-11.7-.1-75.5l1.2-74 15.6-54c8.6-29.7 21.5-74.2 28.8-98.9l13.1-44.9 14.2-13.7c41.6-39.9 106.7-100.9 108-101 .4 0 .7 1 .7 2.2M834.3 201.5c4.2 1.5 7.7 3.2 7.7 3.8 0 1.2-4.2 16.1-12.6 44.3-6.3 21.3-23 79.9-33.5 117.1-4 14.5-7.6 26.3-8 26.3s-.9-1-1.3-2.3c-.3-1.2-6.7-17.5-14.2-36.2S757.9 318 756.7 315l-2-5.5 8-15.5c4.4-8.5 14.4-28.1 22.3-43.5 7.8-15.4 17.6-34.4 21.7-42.2l7.4-14.2 6.2 2.3c3.4 1.3 9.7 3.6 14 5.1m-377.1 20c7.6 14.3 18.1 34.1 23.2 44 5.2 9.9 12.2 23.2 15.6 29.5s6.2 11.9 6.3 12.5c0 .5-4.6 13.1-10.2 28-5.7 14.8-12.8 33.9-15.9 42.2-3.1 8.4-6 15.3-6.3 15.3-.6 0-1.6-3.2-30.6-101-25.9-87.3-25.6-86.1-24.7-87 1.3-1.3 25.7-9.9 27.3-9.7.7.1 7.6 11.9 15.3 26.2m-125 11.8c2.3 1.9 3 4.1 5.5 16.5 4 19.7 4.7 18.8-16.3 23-8.8 1.7-28.2 5.6-43.3 8.7-35 7.3-32.3 8.3-36.2-13.6-2.4-13.6-2.1-17.4 1.4-19 1.8-.8 81.8-17.5 85.2-17.8.6-.1 2.2.9 3.7 2.2m-23.6 68.9c2.3 14.2 2.7 19.7 1.1 17.7-.2-.2-6.1-7.3-13.1-15.7-8.1-9.7-12.2-15.4-11.4-15.7 3.3-1.2 19.4-4.1 20-3.6.4.3 1.9 8.1 3.4 17.3m666.1 11c-4.2 15.6-10.5 40-14.2 54.3-3.6 14.3-7.7 30-9 35-1.4 4.9-3.1 11.9-3.9 15.5-3.3 14.3-12.7 50.5-13.4 51.2-1.6 1.5-92.2 61.7-92.2 61.3 0-.3 1.9-4.2 4.2-8.8 2.2-4.5 10.5-21.5 18.3-37.7s24.5-48.6 37.1-72 28.8-53.4 35.9-66.7c7.2-13.3 13.5-24.2 14.2-24.3.6 0 3.7-3.3 6.7-7.3 17.6-22.8 23.1-29.6 23.4-29.2.2.2-3 13.1-7.1 28.7m-677.9-2.4c7.4 8.4 14.8 16.4 16.4 17.7 3.8 3.2 12.7 19.6 43.8 80.5 25 49.1 59.1 118.2 58.5 118.8-.3.3-18.7-11.4-66.8-42.3-19.7-12.7-23-15.2-24.3-18.3-.8-2.1-5.1-18.1-9.5-35.7s-9.5-37.4-11.4-44c-7.4-26.5-25.5-95.8-25.5-97.4 0-.3 1.2.7 2.7 2.4 1.4 1.6 8.6 9.9 16.1 18.3m212.1 18.3c1.7 7.4 6.6 29.6 11 49.4 13.6 61.2 27.1 120.9 27.6 122.2.2.7.1 1.3-.3 1.3s-4.1-5.9-8.1-13.1c-4.1-7.1-7.7-12.6-8.1-12.2s-2 6.6-3.4 13.8c-1.5 7.1-5.2 23.9-8.2 37.3l-5.5 24.4 1.5 6.2c.9 3.5 1.6 10.5 1.6 15.9v9.6l-6.1 4.2c-3.3 2.2-6.2 3.9-6.4 3.7-.3-.3-22-130.5-28.1-168.1l-3.6-22.8 4-11.2c5.8-16.5 28.5-74.8 28.8-74.4.2.2 1.7 6.4 3.3 13.8m255.6 18.1c6.6 16.7 13.8 35.2 16 41.1l4.1 10.8-1.8 11.7c-8.1 52.8-18.8 122.9-18.8 123.5 0 .4-.4.7-.9.7-.9 0-50.1-27.6-51.3-28.8-.5-.5 1.9-12.9 5.2-27.8 3.2-14.8 9.8-44.9 14.5-66.9s10-47.2 11.9-56 4.4-21.1 5.7-27.3c1.2-6.1 2.5-11.2 2.8-11.2.4 0 6.1 13.6 12.6 30.2m-89.6 89c-3.4 6.5-38.9 71.7-43.7 80.3-10.4 18.7-21 37.1-23.9 41.9-1.7 2.6-11.3 13.6-21.4 24.3l-18.4 19.6-.6-3.9c-.4-2.2-1.3-18.6-2-36.5-1.2-32.5-1.2-32.6.9-35.6 1.1-1.6 9.7-15.7 19.1-31.3 9.4-15.7 17.7-28.8 18.4-29.2.6-.4 8.9-4.1 18.2-8.2 9.4-4.1 25.1-11.1 35-15.5s18.4-8 18.8-8c.4-.1.2.9-.4 2.1m237.8 69.4c-14.1 22.7-37.6 60.2-72.1 114.6-8.5 13.5-13.6 20.6-14.4 20.3-1.3-.5-26.7-17.9-28.6-19.5-.8-.8 38.4-81.6 40.7-83.6.6-.6 13.6-8.8 28.7-18.2 15.1-9.5 34.9-22.1 44-28 9.1-6 16.6-10.8 16.8-10.7.2.2-6.6 11.5-15.1 25.1m-538.2 4c18.2 11.8 36.3 23.6 40.4 26.2l7.4 4.7 19.8 39.9 19.8 39.9-13.7 9.4c-7.5 5.2-14.4 9.9-15.3 10.4-1.4.7-6.4-6.5-30.5-44.9C357.5 524 332 483.1 332 482.5s2.9 1.2 42.5 27.1m161.1-17.3c.6 1.2 6.1 11.4 12.3 22.7l11.2 20.5.9 20c.5 11 1.2 33 1.5 49 .5 24 .4 28.7-.7 27.5-.7-.9-9.5-12-19.6-24.8L522.9 584l-1.5-15.4-1.5-15.5 3-13.8c1.6-7.6 4.4-21 6.1-29.8 4.2-21.7 4.3-21.9 6.6-17.2m193.7 30.3c13.3 7.5 29.5 16.6 36 20.2 6.4 3.6 11.7 6.9 11.7 7.4 0 .4-2.4.8-5.2.8-2.9 0-17 .9-31.3 2s-34.4 2.5-44.7 3.2c-10.4.6-19.3 1.5-19.9 1.8-1 .7.2 4 17.7 45.3 4.6 10.9 8.4 20 8.4 20.3 0 .4-.6.4-1.4.1-2.2-.9-89.9-55.7-91.4-57.2-1.7-1.6-2.3-.5 14.6-28.3 7.4-12.2 14-22.2 14.6-22.3.6 0 15.1-1.5 32.1-3.3 17.1-1.9 31.8-3.4 32.8-3.5.9 0 12.6 6 26 13.5m29.7 36.9c0 1.6-3.6 25.1-4.6 29.8l-.6 2.8-3.6-2.3c-2.1-1.2-12.2-7.9-22.7-14.7-12.8-8.5-18.4-12.7-17.1-12.9 1-.2 11.8-1.2 24-2.2 12.1-1 22.7-1.8 23.4-1.9.6 0 1.2.6 1.2 1.4m-56.6 6.9c2.8 1.9 25.4 16.7 50.1 32.8 60.4 39.5 79.3 52.2 79.4 53 .1.5-6.2.8-13.8.8h-13.9l-2.1-3.6c-1.2-1.9-2.6-3.2-3.2-2.9-1.2.8-98.8.7-100.1-.1-.4-.3 1.9-4 5.2-8.3 3.3-4.4 6-8.4 6-8.9 0-.6-2.9-7.9-6.4-16.4-14.5-34.9-19.6-48-19.1-48.9.4-.5 3.4-.9 6.7-.9 5.3 0 6.8.5 11.2 3.4m-54.6 30c49 30.2 54.2 33.5 54.2 34.2 0 .6-64.7 87.4-66.7 89.4-1.3 1.3-1.4-2-.8-28 .3-16.2.8-31.3 1.1-33.6l.5-4-20.3-22.4c-11.2-12.3-20.8-22.5-21.4-22.7s-6.4 5.7-13 13.2c-6.5 7.4-12.2 13.5-12.6 13.5s-.8-5.9-1-13.1l-.3-13.1L586 590c10.2-11 18.6-19.9 18.7-20 .2 0 19.5 11.9 43.1 26.4m-113.7 11.8c7.9 10.1 17.8 22.6 22.1 27.9 4.2 5.3 7.5 9.9 7.2 10.2s-22.7.6-49.7.7c-29.8 0-49.6.5-50.1 1-1.5 1.5-4.3 1.2-5-.5-1-2.6-2.3-1.6-5.5 4.4-3.1 5.8-14.7 16.6-49.3 45.9-5.4 4.5-14.1 11.8-19.3 16.3-5.2 4.4-9.5 7.7-9.5 7.2.1-.7 11.1-17 34.7-51.2 4.3-6.2 9.4-12.6 11.3-14.1s20.6-14.1 41.5-28c20.9-13.8 42.3-28 47.5-31.6 5.2-3.5 9.6-6.4 9.6-6.4.1 0 6.6 8.2 14.5 18.2m66.5 16c8.7 9.2 19.4 21.4 19.4 22.2s-31.9.6-42.6-.2l-8.1-.7 12.1-13.8c6.6-7.5 12.3-13.7 12.7-13.7.3 0 3.2 2.8 6.5 6.2m26.2 29 3.1 3.3-1.4 39c-.7 21.4-1.1 39.3-.9 39.7 1 1.5 3.9.8 5.2-1.2.7-1.2 13.9-19 29.4-39.8 15.4-20.7 29.1-39.1 30.3-40.7l2.3-3 46.5.4c25.6.2 48 .6 49.7 1l3.1.6-21.5 31.8c-11.8 17.6-21.6 32-21.8 32.2s-4.4.8-9.3 1.4c-5 .5-25 2.8-44.5 5.1-23.9 2.7-35.9 4.5-36.9 5.4-1.3 1.4 3.6 8.5 26.3 37.6 3.6 4.7 6.6 8.8 6.6 9.2 0 .5-29.2.8-65 .8-40.5 0-65-.4-65-1 0-.5 7.4-10.5 16.5-22.2 10.6-13.7 16.4-22 16.3-23.3-.3-2.4 1.2-2.1-41.3-7-17-2-35.1-4.1-40.2-4.7l-9.1-1.1-6.2-9.1c-26.7-39.1-36.1-53.9-35-55s34.4-1.7 127.6-2.4l32-.2zm222.6 18c5.1 7.9 14.3 21.9 20.5 31.2 6.1 9.3 11 17 10.9 17.2-.5.4-43.8-36.7-63.5-54.4l-9.2-8.2h32zm-369.8 19.3c11.5 17 21.1 31.3 21.4 31.7s19.4 3 42.4 5.7 41.9 5.1 42.1 5.3-2.8 4.4-6.7 9.3c-12.3 15.7-29.8 39.1-29.8 39.8 0 .4 35.3.7 78.5.7 56.2 0 78.5-.3 78.5-1.1 0-1.5-1.9-4.1-20.3-27.8-8.7-11.2-15.4-20.7-15-21.1s8-1.5 16.8-2.4c13.3-1.4 38.7-4.3 62-7.1 4.3-.6 5.3-1.1 7.6-4.3 1.4-2 11.2-16.6 21.8-32.5 10.7-15.8 19.7-28.5 20-28.2.3.4 7.8 16.4 16.6 35.7l16 35.2 19 5.3c10.5 2.9 28.2 7.9 39.5 10.9 11.3 3.1 20.9 6 21.3 6.4s-3.8 4.5-9.5 9.1c-30.5 24.7-53.8 45.2-53.8 47.2 0 1.2.9 10.7 2 21.2 4 37 6.8 65 6.5 65.3-.3.4-58.6-36.4-69.7-43.9l-5.6-3.9-4.9 2c-12.8 5.1-78.4 28.2-78.9 27.7-.3-.3 1-5.9 3-12.4 1.9-6.5 6.9-23.2 11.1-37.1s7.3-25.7 7-26.2c-.4-.6-34.8-1-91.1-1H537v2.1c0 1.2 4.5 17.3 9.9 35.8 11.6 39 11.6 39.1 10.4 39.1-1.1 0-79.7-28.5-81.2-29.4-.5-.4-9 4.5-18.8 10.7-25.6 16.3-55.6 35.2-57.2 36.2-1.2.7-1.3-.5-.7-7.6.8-10.7 7.4-74.5 8-78 .4-2.1-.7-3.5-7.7-9.5-15-12.8-51.3-42.9-54.3-45.1-2.2-1.6-2.5-2.3-1.4-2.7.8-.3 12.5-3.5 25.9-7.1 41.5-11.2 53.6-14.6 54.8-15.9 1.2-1.1 13-26.9 25.9-56.4 6.3-14.4 6.4-14.6 7.4-13.5.4.4 10.1 14.7 21.6 31.8m347.9-11c7.7 6.6 20.8 18.1 29 25.5 8.3 7.4 19.4 17.3 24.7 21.9 9.2 8 11.5 10.7 10.3 11.9-.3.3-12.8-2.9-27.8-7.2l-27.2-7.7-12.8-28c-7.1-15.4-13.1-28.8-13.4-29.7-.8-2.1-1.9-2.9 17.2 13.3m-391.9 10.1c-5.2 11.5-10.8 23.9-12.5 27.6s-3.8 6.9-4.8 7.2c-1 .2-7.2 2-13.8 4-10.7 3.1-34.6 9.6-36.9 10-4.1.6 2.7-6 30.6-30.2 46.3-40 46.3-40 46.6-39.7.2.2-3.9 9.7-9.2 21.1m464.9 84.6c2.4 10.3 13.5 63.3 13.5 64.5s-.8 1.4-3.2 1c-2.1-.3-11.6 1.5-25.3 4.8-12.1 2.9-23.1 5.5-24.5 5.7l-2.4.3-1.7-17c-2.6-25.5-2.8-24.2 3.4-29.2 2.9-2.2 12.6-10.5 21.7-18.2s16.8-14.1 17.2-14.1 1 1 1.3 2.2m-521 17 21.5 18.1-.5 3.6c-.8 5.3-3.5 33.1-3.5 35.2 0 1.1-.7 1.9-1.7 1.9s-12-2.5-24.5-5.5c-15-3.6-23.8-5.3-25.8-4.9-1.6.4-3 .3-3-.2s1.6-7.9 3.5-16.4c2-8.5 5.1-22.7 7-31.5 3.9-17.4 4.2-18.5 5-18.5.3 0 10.2 8.2 22 18.2m330.2 18.2c-.3.8-1.1 3.4-1.7 5.8-1.2 4.6-3.8 13.3-12.1 40.5l-5.2 17.3H564.3l-3.6-11.8c-2-6.4-6.1-20.5-9.2-31.2-3-10.7-5.7-20.1-6-20.8-.3-.9 16.5-1.2 82.1-1.2 71.4 0 82.5.2 82.1 1.4m-348.5 59.9c11.9 12.8 23.9 25.9 26.8 29l5.1 5.6-1.7 3.3c-1.6 3.3-14.5 26.9-15.1 27.7-.1.2-7.8-2.9-17-6.9-24.1-10.5-57.6-24.9-58.8-25.3-.5-.2-.1-1.7.9-3.3 4.5-7.1 37.2-53.4 37.6-53.4.3 0 10.3 10.5 22.2 23.3m561.9-15.5c11.4 15.8 32.9 47.1 32.9 47.9 0 .5-5.7 3.3-12.7 6.2-7.1 3-24 10.3-37.7 16.3s-25.4 10.7-26 10.5c-.7-.3-4.7-7.3-9-15.6l-7.8-15.1 5.2-5.8c11.3-12.4 48.5-52 49-52.1.3 0 3 3.4 6.1 7.7m-430.5 7.3c70.8 25.4 72.7 26 73.6 24.7.4-.7.7-2.7.6-4.3l-.3-3 61.3-.3 61.2-.2-.6 3.9c-1.1 6.6-6.4 8 55-13.8l37-13.1 30.2 19.3c16.7 10.5 33.6 21.3 37.7 23.8l7.4 4.6 9.3 17.2c5.1 9.6 8.9 17.6 8.4 18.1-.5.4-10.1 4.7-21.4 9.6-11.3 4.8-20.9 9.1-21.4 9.5-.6.5-.5 1.9.2 3.4 1.1 2.4 1.3 2.5 4.4 1.1 1.8-.8 11.6-5 21.8-9.5 10.1-4.4 18.6-7.9 18.8-7.7.3.4 1.7 14.7 2.5 27.8.5 7.8 3.3 6.5-21.3 10.3-9 1.4-16.8 2.9-17.3 3.4s-.3 1.8.5 3c.9 1.6 2 2 3.8 1.7 7.5-1.5 34.1-4.8 34.6-4.3.4.3.9 6.5 1.3 13.7.5 11 .4 13.4-.9 14.4-.8.7-9.8 6.4-20 12.6s-26.3 16.2-35.8 22.3l-17.4 10.9-10.6-.6c-5.9-.4-28.9-1.8-51.2-3.2l-40.5-2.5-34.5-20.1c-19-11-35.3-20.7-36.2-21.6-1.6-1.4-1.8-4.2-1.8-31.6l.1-30.1 22-23.3 22.1-23.2-5.2-6-5.2-6h-73.4l-5.7 5.8c-3.1 3.2-5.7 6.1-5.7 6.5 0 .5 9.9 11.1 22 23.7l22 22.9v60.8l-36.3 21.1-36.4 21.1-40.4 2.5c-22.2 1.4-45.1 2.8-50.9 3.2l-10.6.6-19.9-12.4c-11-6.9-27.4-17-36.5-22.5-9.1-5.6-17.2-10.7-18.1-11.5-1.4-1.1-1.5-2.9-.6-14.6 1-12.8 1.1-13.2 3.2-13.2 1.3 0 10 1.1 19.5 2.5s17.5 2.5 18 2.5c.8 0 2.4-5 1.7-5.6-.1-.2-9.2-1.7-20.1-3.3s-20-3.2-20.3-3.5c-.6-.6 1.6-29 2.6-32.7l.6-2.6 22 9.8c19.9 8.9 22.1 9.7 23.3 8.2.6-.9 1.2-2.2 1.2-2.9 0-1.1-18.1-9.5-36.7-17.2-3.6-1.4-6.7-3.2-7-3.9-.3-.6 3.7-8.8 8.8-18.1l9.3-16.8 15-9.5c8.2-5.2 24.9-15.8 37-23.6 12.2-7.8 22.4-14.2 22.7-14.2.3-.1 8.2 2.6 17.5 6m-169.9 57.5c3.2 1.4 12.3 5.4 20.3 8.9s18 7.9 22.3 9.9l7.7 3.6-.5 6.7c-.3 3.8-.9 11.9-1.4 18.1-.4 6.2-1 11.4-1.3 11.7-.5.5-26.7-3-27.1-3.6-.2-.2-4.7-11-10.1-23.9s-9.9-23.6-10.1-23.8c-.3-.3-39.1 10.1-49.5 13.3-2.5.7-10.5 3-17.8 5l-13.3 3.7-27.7-6.7c-22.5-5.5-28.1-6.6-30.2-5.7-1.4.6-15.8 6.9-31.9 14.1-16.2 7.2-29.6 13.1-29.8 13.1-.5 0-4.3-9-4.3-10.1 0-.5.4-.9.9-.9s15.6-6.5 33.6-14.6l32.7-14.5 23.7 5.7c13 3.2 25.7 6.2 28.3 6.8 4.3.9 6.3.5 22-3.9 43.3-12.1 55.4-15.4 56.5-15.4.7-.1 3.8 1.1 7 2.5m648.7 5.8c45.7 12.8 42.8 12.2 48.3 10.8 2.6-.6 15.2-3.7 28-6.8l23.2-5.6 33.6 14.9c18.4 8.1 33.5 15.3 33.5 16 0 1-2.5 7.3-3.7 9.1-.1.2-14.7-6-32.4-13.9l-32.2-14.2-27.6 6.8-27.6 6.8-40.2-11.3c-22.2-6.2-40.9-11-41.5-10.7-.7.3-5.8 10.9-11.2 23.6-5.5 12.8-10.5 23.5-11 24-1.2.8-25.5 4.5-26.1 4-.2-.2-.7-8.3-1.2-17.9-.7-12.3-.6-17.9.1-18.7 1.2-1.4 54.3-25.1 56.5-25.2.7-.1 14.9 3.7 31.5 8.3m-622 57.3 19.9 2.7-.7 8.6c-.4 4.7-1.3 14.3-2 21.5l-1.2 13-1.7-3.5c-.9-1.9-4.4-9.8-7.6-17.5l-5.9-14-11.3-1.3-11.2-1.2-21.1 11.4c-11.6 6.3-30.5 16.4-41.9 22.5-11.5 6.1-22.7 12.4-25 14-4.9 3.3-50.1 31.7-53 33.3-1.5.8-7.3.1-23.4-2.8l-21.5-3.9.7-4.5c.4-2.5 1-4.8 1.3-5.2.7-.7 12 .9 29.6 4l10 1.8 24.6-15.7c33.2-21.1 33.8-21.5 77.9-45.1 21.2-11.4 39.7-20.8 41.1-20.8s11.4 1.2 22.4 2.7m595.6 4.6c7.4 4 25.2 13.5 39.5 21.1 30 16 27 14.3 61.5 36.1 14.6 9.3 27.4 16.8 28.4 16.7 1.1 0 10-1.5 19.8-3.2 9.9-1.8 18.2-3 18.4-2.7.3.2.7 2.7 1 5.4l.6 4.9-21.5 3.9-21.6 3.8-23.8-15c-13.1-8.2-27.6-17.3-32.3-20.2s-26.1-14.7-47.6-26.2l-39-20.9-11.1 1.1c-6.1.7-11.6 1.5-12.1 1.8s-4 8-7.7 17.1-7.1 16.8-7.5 17.3c-.9 1-2.8-12.2-4-28.2-.8-10-.8-13.6.1-14.2.6-.3 8.6-1.6 17.8-2.8 9.1-1.2 17.3-2.4 18.1-2.5 6.4-1.4 9.7-.5 23 6.7m-562.3 38.3c39.7 24.5 64 39.8 65 41.1.6.8 10.1 12.2 21.1 25.2 24.3 28.9 40.5 50 39.8 51.8-.9 2.2-20.8 35.7-22 36.9-.8.9-4.9-3.5-15.7-17-23.3-28.9-64.8-80.2-84-103.9-16.7-20.6-17.7-22.1-17.3-25.5 1.2-12.6 1.6-15.2 1.9-15.2s5.3 3 11.2 6.6m241.1 46-.3 49.9-20.2.3-20.3.2-4.8-9.7c-5.6-11.1-24.2-50.8-24.2-51.6 0-.4 11.2-7.2 31-18.7 27.8-16.2 37.6-21.6 38.3-21.1.4.4.6 23.2.5 50.7m59.2-21.9c7.4 4.4 14.5 8.6 15.6 9.3l2.1 1.3-2.4 5.6c-1.4 3.1-7.9 17-14.5 30.9l-12.1 25.2-20.1-.2-20.1-.3-.3-47.5c-.1-26.1 0-48.9.3-50.7l.6-3.2 18.7 10.8c10.3 6 24.8 14.4 32.2 18.8m200-29c0 .5.5 4.8 1.1 9.6l1.1 8.8-21.5 26.7c-24.3 30.3-81.9 101.8-88.9 110.5l-4.7 5.7-3.5-5.4c-7.7-12.1-19.6-32.3-19.6-33.3 0-2 22-30.3 42.5-54.5l19.9-23.7 26.3-16.3c14.5-9 30.7-19.1 36.1-22.4 9.9-6.3 11.2-7 11.2-5.7m-372.2 90.4c6.3.6 14.2 1.9 17.4 2.8l5.9 1.6 12.4 22.5c6.7 12.4 12.2 22.6 12 22.8-.1.2-9.6-3.9-21-9l-20.7-9.3-11.9-15.7c-6.5-8.7-11.9-16-11.9-16.3 0-.8 5.3-.6 17.8.6m252.2-.8c0 .2-5.3 7.4-11.9 16.1l-11.8 15.7-20.9 9.9c-11.5 5.5-21.3 10-21.8 10-1.3 0-.2-2.1 11.5-23.5 6.1-11 12-20.8 13.1-21.8 3-2.6 11-4.6 22.3-5.6 11.2-.9 19.5-1.3 19.5-.8m-244.9 39.1c3 1.3 15.8 7.4 28.6 13.5l23.2 11.1H686l20.2-9.6c11.2-5.3 24-11.4 28.5-13.5l8.2-3.8 11.6 19.1c6.4 10.5 11.2 19.4 10.8 19.8s-16.4 5.9-35.4 12.3l-34.6 11.7H560.7l-34.6-11.7c-19-6.4-35-12-35.5-12.4-.5-.5 3.9-8.9 10.5-19.9 6.3-10.4 11.5-19 11.5-19 .1 0 2.6 1.1 5.5 2.4"/><path d="M448.1 713.7c-6.3 14.8-11.7 27.2-12.1 27.6-.5.5-14.6 4.4-31.5 8.6l-30.8 7.7 24.4 20.9c13.4 11.5 24.6 21 24.8 21.2s-.8 10.3-2.2 22.5c-3.8 31.6-5 42.9-4.4 43.4.2.3 12.7-7.6 27.6-17.6 14.9-9.9 27.4-18 27.8-18s12.2 4.6 26.2 10.1c14.1 5.6 28.4 11.2 31.8 12.5l6.2 2.3-1.5-4.9c-.8-2.7-5.2-16.5-9.9-30.7-4.6-14.1-8.1-26.2-7.7-26.9.7-1.1 20.3-23.5 34.9-39.8 4-4.5 7.3-8.4 7.3-8.7s-14.7-1.9-32.7-3.4l-32.7-2.9-16.5-25.3c-9.1-13.9-16.8-25.2-17.1-25.3-.3 0-5.7 12-11.9 26.7m331.6-2-16.5 25.1-4.8.6c-5.5.7-58 5.6-60.2 5.6-.7 0-1.2.4-1 .9.3 1 9.6 11.7 30.9 35.7l11.7 13.2-9.9 30.7c-5.5 16.9-9.8 30.9-9.7 31 .2.2 14.5-5.3 31.8-12.1s31.8-12.4 32.3-12.4c.4 0 12.9 8.1 27.8 18.1s27.2 17.9 27.5 17.6c.3-.2-.6-9.6-2-20.8s-3-25.8-3.7-32.3l-1.3-12 5-4.4c2.7-2.5 13.5-11.9 23.9-21 10.5-9.1 19.1-16.8 19.3-17.2.3-.8-5.3-2.4-37.8-10.6l-22.6-5.6-10.7-25.1c-6-13.9-11.4-26.3-12.2-27.7-1.2-2.3-1.8-1.6-17.8 22.7"/></g><path fill="#aaa" d="M972.1 72.6c0 1.1.3 1.4.6.6.3-.7.2-1.6-.1-1.9-.3-.4-.6.2-.5 1.3m-695 3c0 1.1.3 1.4.6.6.3-.7.2-1.6-.1-1.9-.3-.4-.6.2-.5 1.3M976.2 88c0 1.4.2 1.9.5 1.2.2-.6.2-1.8 0-2.5-.3-.6-.5-.1-.5 1.3m-686.2.4c0 .2.8 1 1.8 1.7 1.5 1.3 1.6 1.2.3-.4s-2.1-2.1-2.1-1.3M970.2 93c0 1.4.2 1.9.5 1.2.2-.6.2-1.8 0-2.5-.3-.6-.5-.1-.5 1.3m-7.3 2.7c-1.3 1.6-1.2 1.7.4.4.9-.7 1.7-1.5 1.7-1.7 0-.8-.8-.3-2.1 1.3M293 98.4c0 .2.8 1 1.8 1.7 1.5 1.3 1.6 1.2.3-.4s-2.1-2.1-2.1-1.3m656.4 1.8-1.9 2.3 2.3-1.9c2.1-1.8 2.7-2.6 1.9-2.6-.2 0-1.2 1-2.3 2.2m19.8 2.8c0 1.4.2 1.9.5 1.2.2-.6.2-1.8 0-2.5-.3-.6-.5-.1-.5 1.3m-20.3 5.7-2.4 2.8 2.8-2.4c1.5-1.4 2.7-2.6 2.7-2.8 0-.8-.8-.1-3.1 2.4M305.5 110c1 1.1 2 2 2.3 2s-.3-.9-1.3-2-2-2-2.3-2 .3.9 1.3 2m632.9.2-1.9 2.3 2.3-1.9c2.1-1.8 2.7-2.6 1.9-2.6-.2 0-1.2 1-2.3 2.2m-623.4.2c0 .2.8 1 1.8 1.7 1.5 1.3 1.6 1.2.3-.4s-2.1-2.1-2.1-1.3m653.1 4.2c0 1.1.3 1.4.6.6.3-.7.2-1.6-.1-1.9-.3-.4-.6.2-.5 1.3M315 118.4c0 .2.8 1 1.8 1.7 1.5 1.3 1.6 1.2.3-.4s-2.1-2.1-2.1-1.3m620.9 2.3c-1.3 1.6-1.2 1.7.4.4s2.1-2.1 1.3-2.1c-.2 0-1 .8-1.7 1.7m-12 3-3.4 3.8 3.8-3.4c2-1.9 3.7-3.6 3.7-3.8 0-.8-.8 0-4.1 3.4m43.2.9c0 1.1.3 1.4.6.6.3-.7.2-1.6-.1-1.9-.3-.4-.6.2-.5 1.3M338.5 132c1 1.1 2 2 2.3 2s-.3-.9-1.3-2-2-2-2.3-2 .3.9 1.3 2m584.4.7-2.4 2.8 2.8-2.4c1.5-1.4 2.7-2.6 2.7-2.8 0-.8-.8-.1-3.1 2.4m43.3 3.3c0 1.4.2 1.9.5 1.2.2-.6.2-1.8 0-2.5-.3-.6-.5-.1-.5 1.3m-627.7 4c1 1.1 2 2 2.3 2s-.3-.9-1.3-2-2-2-2.3-2 .3.9 1.3 2m566.4 1.7-2.4 2.8 2.8-2.4c1.5-1.4 2.7-2.6 2.7-2.8 0-.8-.8-.1-3.1 2.4M352 144.5c1.3 1.4 2.6 2.5 2.8 2.5.3 0-.5-1.1-1.8-2.5s-2.6-2.5-2.8-2.5c-.3 0 .5 1.1 1.8 2.5m619.1-.9c0 1.1.3 1.4.6.6.3-.7.2-1.6-.1-1.9-.3-.4-.6.2-.5 1.3m-63.2 3.1c-1.3 1.6-1.2 1.7.4.4s2.1-2.1 1.3-2.1c-.2 0-1 .8-1.7 1.7m57.3 1.3c0 1.4.2 1.9.5 1.2.2-.6.2-1.8 0-2.5-.3-.6-.5-.1-.5 1.3m-617.2.4c0 .2.8 1 1.8 1.7 1.5 1.3 1.6 1.2.3-.4s-2.1-2.1-2.1-1.3m-57.9 6.2c0 1.1.3 1.4.6.6.3-.7.2-1.6-.1-1.9-.3-.4-.6.2-.5 1.3m680 1c0 1.1.3 1.4.6.6.3-.7.2-1.6-.1-1.9-.3-.4-.6.2-.5 1.3m-5.9 2.4c0 1.4.2 1.9.5 1.2.2-.6.2-1.8 0-2.5-.3-.6-.5-.1-.5 1.3M369 160.5c1.3 1.4 2.6 2.5 2.8 2.5.3 0-.5-1.1-1.8-2.5s-2.6-2.5-2.8-2.5c-.3 0 .5 1.1 1.8 2.5m-6.5 1.5c1 1.1 2 2 2.3 2s-.3-.9-1.3-2-2-2-2.3-2 .3.9 1.3 2m528.4.7-2.4 2.8 2.8-2.4c1.5-1.4 2.7-2.6 2.7-2.8 0-.8-.8-.1-3.1 2.4m-13 5-3.4 3.8 3.8-3.4c2-1.9 3.7-3.6 3.7-3.8 0-.8-.8 0-4.1 3.4m85.3 1.3c0 1.4.2 1.9.5 1.2.2-.6.2-1.8 0-2.5-.3-.6-.5-.1-.5 1.3M378 176.4c0 .2.8 1 1.8 1.7 1.5 1.3 1.6 1.2.3-.4s-2.1-2.1-2.1-1.3m9 .9c0 .2 1.5 1.6 3.3 3.3l3.2 2.9-2.9-3.3c-2.8-3-3.6-3.7-3.6-2.9m575.1 3.3c0 1.1.3 1.4.6.6.3-.7.2-1.6-.1-1.9-.3-.4-.6.2-.5 1.3m-97.2 7.1-3.4 3.8 3.8-3.4c2-1.9 3.7-3.6 3.7-3.8 0-.8-.8 0-4.1 3.4m96.3 3.3c0 1.4.2 1.9.5 1.2.2-.6.2-1.8 0-2.5-.3-.6-.5-.1-.5 1.3m-564.7 3c1 1.1 2 2 2.3 2s-.3-.9-1.3-2-2-2-2.3-2 .3.9 1.3 2m6.5-1.6c0 .2.8 1 1.8 1.7 1.5 1.3 1.6 1.2.3-.4s-2.1-2.1-2.1-1.3m444.4 4.8-1.9 2.3 2.3-1.9c2.1-1.8 2.7-2.6 1.9-2.6-.2 0-1.2 1-2.3 2.2m118.7 1.4c0 1.1.3 1.4.6.6.3-.7.2-1.6-.1-1.9-.3-.4-.6.2-.5 1.3m-5.9 2.4c0 1.4.2 1.9.5 1.2.2-.6.2-1.8 0-2.5-.3-.6-.5-.1-.5 1.3m4.9 8.6c0 1.1.3 1.4.6.6.3-.7.2-1.6-.1-1.9-.3-.4-.6.2-.5 1.3m-5.9 2.4c0 1.4.2 1.9.5 1.2.2-.6.2-1.8 0-2.5-.3-.6-.5-.1-.5 1.3m4.9 8.6c0 1.1.3 1.4.6.6.3-.7.2-1.6-.1-1.9-.3-.4-.6.2-.5 1.3m-5.9 2.4c0 1.4.2 1.9.5 1.2.2-.6.2-1.8 0-2.5-.3-.6-.5-.1-.5 1.3m-657.1 1.6c0 1.1.3 1.4.6.6.3-.7.2-1.6-.1-1.9-.3-.4-.6.2-.5 1.3m662 7c0 1.1.3 1.4.6.6.3-.7.2-1.6-.1-1.9-.3-.4-.6.2-.5 1.3m-5.9 2.4c0 1.4.2 1.9.5 1.2.2-.6.2-1.8 0-2.5-.3-.6-.5-.1-.5 1.3m-1 11c0 1.4.2 1.9.5 1.2.2-.6.2-1.8 0-2.5-.3-.6-.5-.1-.5 1.3m4.9 7.6c0 1.1.3 1.4.6.6.3-.7.2-1.6-.1-1.9-.3-.4-.6.2-.5 1.3m-5.9 3.4c0 1.4.2 1.9.5 1.2.2-.6.2-1.8 0-2.5-.3-.6-.5-.1-.5 1.3m-1.1 9.6c0 1.1.3 1.4.6.6.3-.7.2-1.6-.1-1.9-.3-.4-.6.2-.5 1.3m-.9 10.4c0 1.4.2 1.9.5 1.2.2-.6.2-1.8 0-2.5-.3-.6-.5-.1-.5 1.3m4.9 8.6c0 1.1.3 1.4.6.6.3-.7.2-1.6-.1-1.9-.3-.4-.6.2-.5 1.3m-6 2c0 1.1.3 1.4.6.6.3-.7.2-1.6-.1-1.9-.3-.4-.6.2-.5 1.3m16.8 5.1c-1.3 1.6-1.2 1.7.4.4.9-.7 1.7-1.5 1.7-1.7 0-.8-.8-.3-2.1 1.3m-11.8 3.9c0 1.1.3 1.4.6.6.3-.7.2-1.6-.1-1.9-.3-.4-.6.2-.5 1.3m-6 1c0 1.1.3 1.4.6.6.3-.7.2-1.6-.1-1.9-.3-.4-.6.2-.5 1.3m-668.1-.2c0 .2.8 1 1.8 1.7 1.5 1.3 1.6 1.2.3-.4s-2.1-2.1-2.1-1.3m7 8c0 .2.8 1 1.8 1.7 1.5 1.3 1.6 1.2.3-.4s-2.1-2.1-2.1-1.3m660.2 2.6c0 1.4.2 1.9.5 1.2.2-.6.2-1.8 0-2.5-.3-.6-.5-.1-.5 1.3M306 322.4c0 .2.8 1 1.8 1.7 1.5 1.3 1.6 1.2.3-.4s-2.1-2.1-2.1-1.3m167.1 79.2c0 1.1.3 1.4.6.6.3-.7.2-1.6-.1-1.9-.3-.4-.6.2-.5 1.3M790.3 432c0 4.1.2 5.8.4 3.7.2-2 .2-5.4 0-7.5-.2-2-.4-.3-.4 3.8m-323 3c0 2.5.2 3.5.4 2.2.2-1.2.2-3.2 0-4.5-.2-1.2-.4-.2-.4 2.3m1 43.5c0 3.3.2 4.5.4 2.7s.2-4.5 0-6-.4 0-.4 3.3m321 13.5c0 4.1.2 5.8.4 3.7.2-2 .2-5.4 0-7.5-.2-2-.4-.3-.4 3.8m-243.8 8c.3.5.8 1 1.1 1 .2 0 .4-.5.4-1 0-.6-.5-1-1.1-1-.5 0-.7.4-.4 1m150.3 10.7c.6.2 1.8.2 2.5 0 .6-.3.1-.5-1.3-.5s-1.9.2-1.2.5m-10 1c.6.2 1.8.2 2.5 0 .6-.3.1-.5-1.3-.5s-1.9.2-1.2.5m-9 1c.7.3 1.6.2 1.9-.1.4-.3-.2-.6-1.3-.5-1.1 0-1.4.3-.6.6m-11 1c.6.2 1.8.2 2.5 0 .6-.3.1-.5-1.3-.5s-1.9.2-1.2.5m-10 1c.6.2 1.8.2 2.5 0 .6-.3.1-.5-1.3-.5s-1.9.2-1.2.5m-9 1c.7.3 1.6.2 1.9-.1.4-.3-.2-.6-1.3-.5-1.1 0-1.4.3-.6.6M469.3 527c0 2.5.2 3.5.4 2.2.2-1.2.2-3.2 0-4.5-.2-1.2-.4-.2-.4 2.3m95 8c0 2.5.2 3.5.4 2.2.2-1.2.2-3.2 0-4.5-.2-1.2-.4-.2-.4 2.3m198.3-1.3c-.6 1.4-.5 1.5.5.6.7-.7 1-1.5.7-1.8s-.9.2-1.2 1.2m5.2 17c.6.2 1.8.2 2.5 0 .6-.3.1-.5-1.3-.5s-1.9.2-1.2.5m-208.5 4.8c0 2.7.2 3.8.4 2.2.2-1.5.2-3.7 0-5-.2-1.2-.4 0-.4 2.8m194-3.8c.9.2 2.3.2 3 0 .6-.3-.1-.5-1.8-.5-1.6 0-2.2.2-1.2.5m-255.2 1.9c0 1.1.3 1.4.6.6.3-.7.2-1.6-.1-1.9-.3-.4-.6.2-.5 1.3m240.7-.9c.7.3 1.6.2 1.9-.1.4-.3-.2-.6-1.3-.5-1.1 0-1.4.3-.6.6m-15 1c.6.2 1.8.2 2.5 0 .6-.3.1-.5-1.3-.5s-1.9.2-1.2.5m65.4.5c-.7.7-1.1 2.1-1.1 3.2.1 2.1.1 2.1.6.1.3-1.1 1-2.6 1.5-3.3 1.3-1.5.6-1.6-1 0m-77.4.5c.6.2 1.8.2 2.5 0 .6-.3.1-.5-1.3-.5s-1.9.2-1.2.5m-14 1c.6.2 1.8.2 2.5 0 .6-.3.1-.5-1.3-.5s-1.9.2-1.2.5m-15 1c.6.2 1.8.2 2.5 0 .6-.3.1-.5-1.3-.5s-1.9.2-1.2.5m66 3c.7.3 1.6.2 1.9-.1.4-.3-.2-.6-1.3-.5-1.1 0-1.4.3-.6.6m-14 1c.6.2 1.8.2 2.5 0 .6-.3.1-.5-1.3-.5s-1.9.2-1.2.5m-12 1c.7.3 1.6.2 1.9-.1.4-.3-.2-.6-1.3-.5-1.1 0-1.4.3-.6.6m-201.7 1.9c0 1.1.3 1.4.6.6.3-.7.2-1.6-.1-1.9-.3-.4-.6.2-.5 1.3m44.1 1.4c0 1.9.2 2.7.5 1.7.2-.9.2-2.5 0-3.5-.3-.9-.5-.1-.5 1.8m126.6-1.3c.7.3 1.6.2 1.9-.1.4-.3-.2-.6-1.3-.5-1.1 0-1.4.3-.6.6M470.3 570c0 3 .2 4.3.4 2.7.2-1.5.2-3.9 0-5.5-.2-1.5-.4-.2-.4 2.8m45.7 9.7c-.3 2.9-.1 4.8.3 4.4.5-.5.7-2.8.5-5.2l-.3-4.4zm72.5-.5-4 4.3 4.3-4c3.9-3.6 4.7-4.5 3.9-4.5-.2 0-2.1 1.9-4.2 4.2m8.4-.5-2.4 2.8 2.8-2.4c1.5-1.4 2.7-2.6 2.7-2.8 0-.8-.8-.1-3.1 2.4m-36.6 2.8c0 2.7.2 3.8.4 2.2.2-1.5.2-3.7 0-5-.2-1.2-.4 0-.4 2.8m194.8-1.9c0 1.1.3 1.4.6.6.3-.7.2-1.6-.1-1.9-.3-.4-.6.2-.5 1.3m-189 10c0 1.1.3 1.4.6.6.3-.7.2-1.6-.1-1.9-.3-.4-.6.2-.5 1.3m15.3 5.6-1.9 2.3 2.3-1.9c2.1-1.8 2.7-2.6 1.9-2.6-.2 0-1.2 1-2.3 2.2m-13 5-1.9 2.3 2.3-1.9c1.2-1.1 2.2-2.1 2.2-2.3 0-.8-.8-.2-2.6 1.9m-7 21.8c0 5.2.1 7.4.3 4.7.2-2.6.2-6.8 0-9.5-.2-2.6-.3-.4-.3 4.8m22.5-3.3c-1.3 1.6-1.2 1.7.4.4s2.1-2.1 1.3-2.1c-.2 0-1 .8-1.7 1.7m-15.7 6.3c0 1.4.2 1.9.5 1.2.2-.6.2-1.8 0-2.5-.3-.6-.5-.1-.5 1.3m40.8 9.4c0 .2.8 1 1.8 1.7 1.5 1.3 1.6 1.2.3-.4s-2.1-2.1-2.1-1.3m-133.7 12.3c5.4.2 13.9.2 19 0 5.1-.1.7-.3-9.8-.3-10.4 0-14.6.2-9.2.3m274 0c5.4.2 13.9.2 19 0 5.1-.1.7-.3-9.8-.3-10.4 0-14.6.2-9.2.3m-245 5c3.7.2 9.6.2 13 0s.4-.3-6.8-.3c-7.1 0-9.9.1-6.2.3m246.5 0c2.8.2 7.6.2 10.5 0 2.8-.2.5-.3-5.3-.3s-8.1.1-5.2.3m58.5 1c2.6.2 6.8.2 9.5 0 2.6-.2.4-.3-4.8-.3s-7.4.1-4.7.3m22.5 5c1.2.2 3 .2 4 0 .9-.3-.1-.5-2.3-.4-2.2 0-3 .2-1.7.4m-11.8 9.7c0 .2.8 1 1.8 1.7 1.5 1.3 1.6 1.2.3-.4s-2.1-2.1-2.1-1.3m-184.8 4.1c0 1.6.2 2.2.5 1.2.2-.9.2-2.3 0-3-.3-.6-.5.1-.5 1.8m-7 13.5c0 1.9.2 2.7.5 1.7.2-.9.2-2.5 0-3.5-.3-.9-.5-.1-.5 1.8m6.1 20.5c0 2.2.2 3 .4 1.7.2-1.2.2-3 0-4-.3-.9-.5.1-.4 2.3m-7.1 9c0 1.6.2 2.2.5 1.2.2-.9.2-2.3 0-3-.3-.6-.5.1-.5 1.8m-236.3.2c-1.3 1.6-1.2 1.7.4.4.9-.7 1.7-1.5 1.7-1.7 0-.8-.8-.3-2.1 1.3m115.9 2c.7.3 1.6.2 1.9-.1.4-.3-.2-.6-1.3-.5-1.1 0-1.4.3-.6.6m9 1c.7.3 1.6.2 1.9-.1.4-.3-.2-.6-1.3-.5-1.1 0-1.4.3-.6.6m223 0c.7.3 1.6.2 1.9-.1.4-.3-.2-.6-1.3-.5-1.1 0-1.4.3-.6.6m-215 1c.7.3 1.6.2 1.9-.1.4-.3-.2-.6-1.3-.5-1.1 0-1.4.3-.6.6m17 2c.7.3 1.6.2 1.9-.1.4-.3-.2-.6-1.3-.5-1.1 0-1.4.3-.6.6m164 1c.7.3 1.6.2 1.9-.1.4-.3-.2-.6-1.3-.5-1.1 0-1.4.3-.6.6m-147 1c.7.3 1.6.2 1.9-.1.4-.3-.2-.6-1.3-.5-1.1 0-1.4.3-.6.6m8 1c.7.3 1.6.2 1.9-.1.4-.3-.2-.6-1.3-.5-1.1 0-1.4.3-.6.6m-57 1c.7.3 1.6.2 1.9-.1.4-.3-.2-.6-1.3-.5-1.1 0-1.4.3-.6.6m66 0c.7.3 1.6.2 1.9-.1.4-.3-.2-.6-1.3-.5-1.1 0-1.4.3-.6.6m-57 1c.7.3 1.6.2 1.9-.1.4-.3-.2-.6-1.3-.5-1.1 0-1.4.3-.6.6m66 0c.7.3 1.6.2 1.9-.1.4-.3-.2-.6-1.3-.5-1.1 0-1.4.3-.6.6m86 0c.7.3 1.6.2 1.9-.1.4-.3-.2-.6-1.3-.5-1.1 0-1.4.3-.6.6m66 0c.7.3 1.6.2 1.9-.1.4-.3-.2-.6-1.3-.5-1.1 0-1.4.3-.6.6m-209 1c.7.3 1.6.2 1.9-.1.4-.3-.2-.6-1.3-.5-1.1 0-1.4.3-.6.6m201 0c.7.3 1.6.2 1.9-.1.4-.3-.2-.6-1.3-.5-1.1 0-1.4.3-.6.6m-352.9 2c-1.3 1.6-1.2 1.7.4.4.9-.7 1.7-1.5 1.7-1.7 0-.8-.8-.3-2.1 1.3m167.9 0c.7.3 1.6.2 1.9-.1.4-.3-.2-.6-1.3-.5-1.1 0-1.4.3-.6.6m168 0c.7.3 1.6.2 1.9-.1.4-.3-.2-.6-1.3-.5-1.1 0-1.4.3-.6.6m-151 2c.7.3 1.6.2 1.9-.1.4-.3-.2-.6-1.3-.5-1.1 0-1.4.3-.6.6m134 0c.7.3 1.6.2 1.9-.1.4-.3-.2-.6-1.3-.5-1.1 0-1.4.3-.6.6m-9 1c.7.3 1.6.2 1.9-.1.4-.3-.2-.6-1.3-.5-1.1 0-1.4.3-.6.6m-9 1c.7.3 1.6.2 1.9-.1.4-.3-.2-.6-1.3-.5-1.1 0-1.4.3-.6.6M762 736c-.9.6-1 1-.3 1 .6 0 1.5-.5 1.8-1 .8-1.2.4-1.2-1.5 0m-262.2 1.7c.6.2 1.8.2 2.5 0 .6-.3.1-.5-1.3-.5s-1.9.2-1.2.5m252 0c.7.3 1.6.2 1.9-.1.4-.3-.2-.6-1.3-.5-1.1 0-1.4.3-.6.6m-242 1c.6.2 1.8.2 2.5 0 .6-.3.1-.5-1.3-.5s-1.9.2-1.2.5m232 0c.7.3 1.6.2 1.9-.1.4-.3-.2-.6-1.3-.5-1.1 0-1.4.3-.6.6m-221 1c.6.2 1.8.2 2.5 0 .6-.3.1-.5-1.3-.5s-1.9.2-1.2.5m209 0c.6.2 1.8.2 2.5 0 .6-.3.1-.5-1.3-.5s-1.9.2-1.2.5m-198 1c.6.2 1.8.2 2.5 0 .6-.3.1-.5-1.3-.5s-1.9.2-1.2.5m187 0c.6.2 1.8.2 2.5 0 .6-.3.1-.5-1.3-.5s-1.9.2-1.2.5m-176 1c.6.2 1.8.2 2.5 0 .6-.3.1-.5-1.3-.5s-1.9.2-1.2.5m166 0c.7.3 1.6.2 1.9-.1.4-.3-.2-.6-1.3-.5-1.1 0-1.4.3-.6.6m-154 1c.7.3 1.6.2 1.9-.1.4-.3-.2-.6-1.3-.5-1.1 0-1.4.3-.6.6m142 0c.6.2 1.8.2 2.5 0 .6-.3.1-.5-1.3-.5s-1.9.2-1.2.5m7.7 11.3c1 1.1 2 2 2.3 2s-.3-.9-1.3-2-2-2-2.3-2 .3.9 1.3 2m-155.1 1.2-1.9 2.3 2.3-1.9c1.2-1.1 2.2-2.1 2.2-2.3 0-.8-.8-.2-2.6 1.9m-6.5 7.5c-1.3 1.6-1.2 1.7.4.4.9-.7 1.7-1.5 1.7-1.7 0-.8-.8-.3-2.1 1.3m175.6 7.3c1 1.1 2 2 2.3 2s-.3-.9-1.3-2-2-2-2.3-2 .3.9 1.3 2m6.5 7.4c0 .2.8 1 1.8 1.7 1.5 1.3 1.6 1.2.3-.4s-2.1-2.1-2.1-1.3m-197.1 2.3c-1.3 1.6-1.2 1.7.4.4.9-.7 1.7-1.5 1.7-1.7 0-.8-.8-.3-2.1 1.3m205.1 6.7c0 .2.8 1 1.8 1.7 1.5 1.3 1.6 1.2.3-.4s-2.1-2.1-2.1-1.3m-154.7 13.3c22.4.2 59 .2 81.5 0 22.4-.1 4-.2-40.8-.2s-63.2.1-40.7.2m132.5 0c1.2.2 3.2.2 4.5 0 1.2-.2.2-.4-2.3-.4s-3.5.2-2.2.4m7.8 1.6c.3 1 .9 1.5 1.2 1.2s0-1.1-.7-1.8c-1-.9-1.1-.8-.5.6m194.8 48.9-2.9 3.3 3.3-2.9c1.7-1.7 3.2-3.1 3.2-3.3 0-.8-.8-.1-3.6 2.9m-5.5 5.5c-1.3 1.6-1.2 1.7.4.4s2.1-2.1 1.3-2.1c-.2 0-1 .8-1.7 1.7M350 858.5c1.3 1.4 2.6 2.5 2.8 2.5.3 0-.5-1.1-1.8-2.5s-2.6-2.5-2.8-2.5c-.3 0 .5 1.1 1.8 2.5m14 15c1.3 1.4 2.6 2.5 2.8 2.5.3 0-.5-1.1-1.8-2.5s-2.6-2.5-2.8-2.5c-.3 0 .5 1.1 1.8 2.5m526.9.2c-1.3 1.6-1.2 1.7.4.4s2.1-2.1 1.3-2.1c-.2 0-1 .8-1.7 1.7M556.5 876c-.3.5-.1 1 .4 1 .6 0 1.1-.5 1.1-1 0-.6-.2-1-.4-1-.3 0-.8.4-1.1 1m320.9 12.2-1.9 2.3 2.3-1.9c1.2-1.1 2.2-2.1 2.2-2.3 0-.8-.8-.2-2.6 1.9m-478.3 1.4c0 1.1.3 1.4.6.6.3-.7.2-1.6-.1-1.9-.3-.4-.6.2-.5 1.3m184.9 9.1-5.5 5.8 5.8-5.5c3.1-3 5.7-5.6 5.7-5.7 0-.8-1 .1-6 5.4m-197-.4c0 .2 1.5 1.6 3.3 3.3l3.2 2.9-2.9-3.3c-2.8-3-3.6-3.7-3.6-2.9m479.9 1.4c-1.3 1.6-1.2 1.7.4.4s2.1-2.1 1.3-2.1c-.2 0-1 .8-1.7 1.7m-196 9-3.4 3.8 3.8-3.4c3.4-3.3 4.2-4.1 3.4-4.1-.2 0-1.9 1.7-3.8 3.7m-81.4 7.3c2.7 2.7 5.1 5 5.4 5s-1.7-2.3-4.4-5c-2.7-2.8-5.1-5-5.4-5s1.7 2.2 4.4 5M321 925.4c0 .2.7.7 1.6 1 .8.3 1.2.2.9-.4-.6-1-2.5-1.4-2.5-.6m331.4 2.8-1.9 2.3 2.3-1.9c1.2-1.1 2.2-2.1 2.2-2.3 0-.8-.8-.2-2.6 1.9M613 940.5c1.3 1.4 2.6 2.5 2.8 2.5.3 0-.5-1.1-1.8-2.5s-2.6-2.5-2.8-2.5c-.3 0 .5 1.1 1.8 2.5m22.4 5.7-1.9 2.3 2.3-1.9c2.1-1.8 2.7-2.6 1.9-2.6-.2 0-1.2 1-2.3 2.2m-394.6 1.5c.7.3 1.6.2 1.9-.1.4-.3-.2-.6-1.3-.5-1.1 0-1.4.3-.6.6m773 0c.7.3 1.6.2 1.9-.1.4-.3-.2-.6-1.3-.5-1.1 0-1.4.3-.6.6M371.2 954c0 1.4.2 1.9.5 1.2.2-.6.2-1.8 0-2.5-.3-.6-.5-.1-.5 1.3m512 1c0 1.4.2 1.9.5 1.2.2-.6.2-1.8 0-2.5-.3-.6-.5-.1-.5 1.3m-506.1 8.6c0 1.1.3 1.4.6.6.3-.7.2-1.6-.1-1.9-.3-.4-.6.2-.5 1.3m500 2c0 1.1.3 1.4.6.6.3-.7.2-1.6-.1-1.9-.3-.4-.6.2-.5 1.3M370.2 969c0 1.4.2 1.9.5 1.2.2-.6.2-1.8 0-2.5-.3-.6-.5-.1-.5 1.3m514 3.5c0 1.6.2 2.2.5 1.2.2-.9.2-2.3 0-3-.3-.6-.5.1-.5 1.8m-508.1 2.1c0 1.1.3 1.4.6.6.3-.7.2-1.6-.1-1.9-.3-.4-.6.2-.5 1.3m-21.3 1.1c.7.3 1.6.2 1.9-.1.4-.3-.2-.6-1.3-.5-1.1 0-1.4.3-.6.6m544 0c.7.3 1.6.2 1.9-.1.4-.3-.2-.6-1.3-.5-1.1 0-1.4.3-.6.6m-537 1c.7.3 1.6.2 1.9-.1.4-.3-.2-.6-1.3-.5-1.1 0-1.4.3-.6.6m6.3 13.9c0 1.1.3 1.4.6.6.3-.7.2-1.6-.1-1.9-.3-.4-.6.2-.5 1.3m-22.3 1.1c.7.3 1.6.2 1.9-.1.4-.3-.2-.6-1.3-.5-1.1 0-1.4.3-.6.6m540.4 7.8c0 1.6.2 2.2.5 1.2.2-.9.2-2.3 0-3-.3-.6-.5.1-.5 1.8m-519.1 1.1c0 1.1.3 1.4.6.6.3-.7.2-1.6-.1-1.9-.3-.4-.6.2-.5 1.3m7 3c0 1.1.3 1.4.6.6.3-.7.2-1.6-.1-1.9-.3-.4-.6.2-.5 1.3m505 0c0 1.1.3 1.4.6.6.3-.7.2-1.6-.1-1.9-.3-.4-.6.2-.5 1.3m-514 17c0 1.1.3 1.4.6.6.3-.7.2-1.6-.1-1.9-.3-.4-.6.2-.5 1.3m171.7 34.1c.7.3 1.6.2 1.9-.1.4-.3-.2-.6-1.3-.5-1.1 0-1.4.3-.6.6m181 0c.7.3 1.6.2 1.9-.1.4-.3-.2-.6-1.3-.5-1.1 0-1.4.3-.6.6m-198 1c.6.2 1.8.2 2.5 0 .6-.3.1-.5-1.3-.5s-1.9.2-1.2.5m214 0c.7.3 1.6.2 1.9-.1.4-.3-.2-.6-1.3-.5-1.1 0-1.4.3-.6.6m-229 1c.7.3 1.6.2 1.9-.1.4-.3-.2-.6-1.3-.5-1.1 0-1.4.3-.6.6m244 0c.7.3 1.6.2 1.9-.1.4-.3-.2-.6-1.3-.5-1.1 0-1.4.3-.6.6m-260 1c.7.3 1.6.2 1.9-.1.4-.3-.2-.6-1.3-.5-1.1 0-1.4.3-.6.6m277 0c.7.3 1.6.2 1.9-.1.4-.3-.2-.6-1.3-.5-1.1 0-1.4.3-.6.6m-294 1c.7.3 1.6.2 1.9-.1.4-.3-.2-.6-1.3-.5-1.1 0-1.4.3-.6.6m311 0c.7.3 1.6.2 1.9-.1.4-.3-.2-.6-1.3-.5-1.1 0-1.4.3-.6.6m-329 1c.7.3 1.6.2 1.9-.1.4-.3-.2-.6-1.3-.5-1.1 0-1.4.3-.6.6m347 0c.7.3 1.6.2 1.9-.1.4-.3-.2-.6-1.3-.5-1.1 0-1.4.3-.6.6m-307 50c.7.3 1.6.2 1.9-.1.4-.3-.2-.6-1.3-.5-1.1 0-1.4.3-.6.6m266 0c.6.2 1.8.2 2.5 0 .6-.3.1-.5-1.3-.5s-1.9.2-1.2.5m-251 1c.7.3 1.6.2 1.9-.1.4-.3-.2-.6-1.3-.5-1.1 0-1.4.3-.6.6m237 0c.6.2 1.8.2 2.5 0 .6-.3.1-.5-1.3-.5s-1.9.2-1.2.5m-227 1c.7.3 1.6.2 1.9-.1.4-.3-.2-.6-1.3-.5-1.1 0-1.4.3-.6.6m59.5 62c2.6.2 6.7.2 9 0s.2-.3-4.8-.3c-4.9 0-6.8.1-4.2.3m51 0c9.2.2 24.2.2 33.5 0 9.2-.1 1.6-.3-16.8-.3s-26 .2-16.7.3m-36.5 35c18.4.2 48.1.2 66 0 18-.1 3-.2-33.3-.2s-51 .1-32.7.2"/><path fill="#555" d="M955.9 101.7c-1.3 1.6-1.2 1.7.4.4.9-.7 1.7-1.5 1.7-1.7 0-.8-.8-.3-2.1 1.3m18.2 3.9c0 1.1.3 1.4.6.6.3-.7.2-1.6-.1-1.9-.3-.4-.6.2-.5 1.3M319 114.4c0 .2.8 1 1.8 1.7 1.5 1.3 1.6 1.2.3-.4s-2.1-2.1-2.1-1.3m613.4 1.8-1.9 2.3 2.3-1.9c2.1-1.8 2.7-2.6 1.9-2.6-.2 0-1.2 1-2.3 2.2M329 123.4c0 .2.8 1 1.8 1.7 1.5 1.3 1.6 1.2.3-.4s-2.1-2.1-2.1-1.3m-6 2c0 .2.8 1 1.8 1.7 1.5 1.3 1.6 1.2.3-.4s-2.1-2.1-2.1-1.3m649.1 3.2c0 1.1.3 1.4.6.6.3-.7.2-1.6-.1-1.9-.3-.4-.6.2-.5 1.3m-5 1c0 1.1.3 1.4.6.6.3-.7.2-1.6-.1-1.9-.3-.4-.6.2-.5 1.3m-50.7 1.6-1.9 2.3 2.3-1.9c2.1-1.8 2.7-2.6 1.9-2.6-.2 0-1.2 1-2.3 2.2m49.7 10.4c0 1.1.3 1.4.6.6.3-.7.2-1.6-.1-1.9-.3-.4-.6.2-.5 1.3m-71.2 10.1c-1.3 1.6-1.2 1.7.4.4s2.1-2.1 1.3-2.1c-.2 0-1 .8-1.7 1.7m3 4-3.4 3.8 3.8-3.4c3.4-3.3 4.2-4.1 3.4-4.1-.2 0-1.9 1.7-3.8 3.7m-541.9-.3c0 .2.8 1 1.8 1.7 1.5 1.3 1.6 1.2.3-.4s-2.1-2.1-2.1-1.3m607.1 19.2c0 1.1.3 1.4.6.6.3-.7.2-1.6-.1-1.9-.3-.4-.6.2-.5 1.3m-95.2 3.1-2.4 2.8 2.8-2.4c1.5-1.4 2.7-2.6 2.7-2.8 0-.8-.8-.1-3.1 2.4M408 197.4c0 .2.8 1 1.8 1.7 1.5 1.3 1.6 1.2.3-.4s-2.1-2.1-2.1-1.3m442.9 3.3c-1.3 1.6-1.2 1.7.4.4.9-.7 1.7-1.5 1.7-1.7 0-.8-.8-.3-2.1 1.3m108.2 15.9c0 1.1.3 1.4.6.6.3-.7.2-1.6-.1-1.9-.3-.4-.6.2-.5 1.3m-3 33c0 1.1.3 1.4.6.6.3-.7.2-1.6-.1-1.9-.3-.4-.6.2-.5 1.3m-1 11c0 1.1.3 1.4.6.6.3-.7.2-1.6-.1-1.9-.3-.4-.6.2-.5 1.3m1 42c0 1.1.3 1.4.6.6.3-.7.2-1.6-.1-1.9-.3-.4-.6.2-.5 1.3M790.3 409.5c0 4.4.2 6.1.4 3.7.2-2.3.2-5.9 0-8-.2-2-.4-.1-.4 4.3m-323 12c0 2.2.2 3 .4 1.7.2-1.2.2-3 0-4-.3-.9-.5.1-.4 2.3m1 41c0 2.7.2 3.8.4 2.2.2-1.5.2-3.7 0-5-.2-1.2-.4 0-.4 2.8m321 7.5c0 3.6.2 5 .4 3.2.2-1.7.2-4.7 0-6.5-.2-1.7-.4-.3-.4 3.3m-320 43c0 2.5.2 3.5.4 2.2.2-1.2.2-3.2 0-4.5-.2-1.2-.4-.2-.4 2.3m232.5-3.3c.7.3 1.6.2 1.9-.1.4-.3-.2-.6-1.3-.5-1.1 0-1.4.3-.6.6m-10 1c.7.3 1.6.2 1.9-.1.4-.3-.2-.6-1.3-.5-1.1 0-1.4.3-.6.6m96.5 23.3c0 4.1.2 5.8.4 3.7.2-2 .2-5.4 0-7.5-.2-2-.4-.3-.4 3.8m-229.1 10.5c0 1.6.2 2.2.5 1.2.2-.9.2-2.3 0-3-.3-.6-.5.1-.5 1.8m5 3.5c0 1.9.2 2.7.5 1.7.2-.9.2-2.5 0-3.5-.3-.9-.5-.1-.5 1.8m-93.9 7c0 3 .2 4.3.4 2.7.2-1.5.2-3.9 0-5.5-.2-1.5-.4-.2-.4 2.8m303.5-4.3c.6.2 1.8.2 2.5 0 .6-.3.1-.5-1.3-.5s-1.9.2-1.2.5m-14 1c.7.3 1.6.2 1.9-.1.4-.3-.2-.6-1.3-.5-1.1 0-1.4.3-.6.6m-15 1c.7.3 1.6.2 1.9-.1.4-.3-.2-.6-1.3-.5-1.1 0-1.4.3-.6.6m-14 1c.7.3 1.6.2 1.9-.1.4-.3-.2-.6-1.3-.5-1.1 0-1.4.3-.6.6m-27 2c.7.3 1.6.2 1.9-.1.4-.3-.2-.6-1.3-.5-1.1 0-1.4.3-.6.6m-183.7 1.9c0 1.1.3 1.4.6.6.3-.7.2-1.6-.1-1.9-.3-.4-.6.2-.5 1.3m168.7-.9c.7.3 1.6.2 1.9-.1.4-.3-.2-.6-1.3-.5-1.1 0-1.4.3-.6.6m68 2c.7.3 1.6.2 1.9-.1.4-.3-.2-.6-1.3-.5-1.1 0-1.4.3-.6.6m-13 1c.7.3 1.6.2 1.9-.1.4-.3-.2-.6-1.3-.5-1.1 0-1.4.3-.6.6m-27 2c.7.3 1.6.2 1.9-.1.4-.3-.2-.6-1.3-.5-1.1 0-1.4.3-.6.6m-31 2c.7.3 1.6.2 1.9-.1.4-.3-.2-.6-1.3-.5-1.1 0-1.4.3-.6.6M560.2 571c0 1.9.2 2.7.5 1.7.2-.9.2-2.5 0-3.5-.3-.9-.5-.1-.5 1.8m43.3 0c-.3.6.1.7.9.4 1.8-.7 2.1-1.4.7-1.4-.6 0-1.3.4-1.6 1m-8.6 1.7c-1.3 1.6-1.2 1.7.4.4s2.1-2.1 1.3-2.1c-.2 0-1 .8-1.7 1.7m-29.7 1.3c0 1.4.2 1.9.5 1.2.2-.6.2-1.8 0-2.5-.3-.6-.5-.1-.5 1.3m24.7 11.7-3.4 3.8 3.8-3.4c3.4-3.3 4.2-4.1 3.4-4.1-.2 0-1.9 1.7-3.8 3.7m197.5 9.3c0 5.2.1 7.4.3 4.7.2-2.6.2-6.8 0-9.5-.2-2.6-.3-.4-.3 4.8m-316.1 5c0 4.1.2 5.8.4 3.7.2-2 .2-5.4 0-7.5-.2-2-.4-.3-.4 3.8m103.1 2.2-2.9 3.3 3.3-2.9c3-2.8 3.7-3.6 2.9-3.6-.2 0-1.6 1.5-3.3 3.2m-13.1 3.3c0 3.3.2 4.5.4 2.7s.2-4.5 0-6-.4 0-.4 3.3m1 40c0 .8.4 1.2.9.9s.6-1 .3-1.5c-.9-1.3-1.2-1.1-1.2.6m-15.5 1.2c2.3.2 5.9.2 8 0 2-.2.1-.4-4.3-.4s-6.1.2-3.7.4m49.5 0c3.7.2 9.7.2 13.5 0 3.7-.2.6-.3-6.8-.3s-10.5.1-6.7.3m106.5 0c2.3.2 5.9.2 8 0 2-.2.1-.4-4.3-.4s-6.1.2-3.7.4m-127 4c8.9.2 23.5.2 32.5 0 8.9-.1 1.6-.3-16.3-.3s-25.2.2-16.2.3m121.9 0c1.8.2 5 .2 7 0 2.1-.2.7-.4-3.2-.4-3.8 0-5.5.2-3.8.4m-230.4 1c.9.2 2.3.2 3 0 .6-.3-.1-.5-1.8-.5-1.6 0-2.2.2-1.2.5m315.5 0c1.2.2 3.2.2 4.5 0 1.2-.2.2-.4-2.3-.4s-3.5.2-2.2.4M629.3 662c0 2.5.2 3.5.4 2.2.2-1.2.2-3.2 0-4.5-.2-1.2-.4-.2-.4 2.3m5.9-.5c0 1.6.2 2.2.5 1.2.2-.9.2-2.3 0-3-.3-.6-.5.1-.5 1.8m188.8 9.9c0 .2.8 1 1.8 1.7 1.5 1.3 1.6 1.2.3-.4s-2.1-2.1-2.1-1.3m-195.8 23.1c0 1.6.2 2.2.5 1.2.2-.9.2-2.3 0-3-.3-.6-.5.1-.5 1.8m213.8-2.1c0 .2.8 1 1.8 1.7 1.5 1.3 1.6 1.2.3-.4s-2.1-2.1-2.1-1.3M634.2 696c0 1.4.2 1.9.5 1.2.2-.6.2-1.8 0-2.5-.3-.6-.5-.1-.5 1.3m216.8 4.4c0 .2.8 1 1.8 1.7 1.5 1.3 1.6 1.2.3-.4s-2.1-2.1-2.1-1.3M627.2 724c0 1.4.2 1.9.5 1.2.2-.6.2-1.8 0-2.5-.3-.6-.5-.1-.5 1.3m36.6 2.7c.7.3 1.6.2 1.9-.1.4-.3-.2-.6-1.3-.5-1.1 0-1.4.3-.6.6m-169 11c.7.3 1.6.2 1.9-.1.4-.3-.2-.6-1.3-.5-1.1 0-1.4.3-.6.6m11 1c.7.3 1.6.2 1.9-.1.4-.3-.2-.6-1.3-.5-1.1 0-1.4.3-.6.6m10 1c.7.3 1.6.2 1.9-.1.4-.3-.2-.6-1.3-.5-1.1 0-1.4.3-.6.6m220 0c.7.3 1.6.2 1.9-.1.4-.3-.2-.6-1.3-.5-1.1 0-1.4.3-.6.6m-186 3c.7.3 1.6.2 1.9-.1.4-.3-.2-.6-1.3-.5-1.1 0-1.4.3-.6.6m153 0c.7.3 1.6.2 1.9-.1.4-.3-.2-.6-1.3-.5-1.1 0-1.4.3-.6.6m-3.8 4.7c0 .2.8 1 1.8 1.7 1.5 1.3 1.6 1.2.3-.4s-2.1-2.1-2.1-1.3m-12.2 36.3c.6.2 1.8.2 2.5 0 .6-.3.1-.5-1.3-.5s-1.9.2-1.2.5m10.5 0c1.5.2 3.9.2 5.5 0 1.5-.2.2-.4-2.8-.4s-4.3.2-2.7.4m150.2 22.4c-.4.6-.5 1.2-.2 1.5.2.3.7-.2 1-1.1.7-1.7.1-2-.8-.4M340 847.3c0 .2 1.5 1.6 3.3 3.3l3.2 2.9-2.9-3.3c-2.8-3-3.6-3.7-3.6-2.9m518 1.6c0 .6.4 1.3 1 1.6s.7-.1.4-.9c-.7-1.8-1.4-2.1-1.4-.7M356.5 865c1 1.1 2 2 2.3 2s-.3-.9-1.3-2-2-2-2.3-2 .3.9 1.3 2m240.8 13.7c16.9.2 44.5.2 61.5 0 16.9-.1 3-.2-30.8-.2s-47.7.1-30.7.2M382 892.4c0 .2.8 1 1.8 1.7 1.5 1.3 1.6 1.2.3-.4s-2.1-2.1-2.1-1.3m473.6 1.3c-.6 1.4-.5 1.5.5.6.7-.7 1-1.5.7-1.8s-.9.2-1.2 1.2m16.3 0c-1.3 1.6-1.2 1.7.4.4.9-.7 1.7-1.5 1.7-1.7 0-.8-.8-.3-2.1 1.3M670 898.4c0 .2.8 1 1.8 1.7 1.5 1.3 1.6 1.2.3-.4s-2.1-2.1-2.1-1.3m-8.1 19.3-3.4 3.8 3.8-3.4c3.4-3.3 4.2-4.1 3.4-4.1-.2 0-1.9 1.7-3.8 3.7m-64.9 5.6c0 .2 1.5 1.6 3.3 3.3l3.2 2.9-2.9-3.3c-2.8-3-3.6-3.7-3.6-2.9m48.4 11.9-2.9 3.3 3.3-2.9c1.7-1.7 3.2-3.1 3.2-3.3 0-.8-.8-.1-3.6 2.9m-404.6 1.5c.7.3 1.6.2 1.9-.1.4-.3-.2-.6-1.3-.5-1.1 0-1.4.3-.6.6m131.4 6.3c0 1.4.2 1.9.5 1.2.2-.6.2-1.8 0-2.5-.3-.6-.5-.1-.5 1.3m248.3 5c1 1.1 2 2 2.3 2s-.3-.9-1.3-2-2-2-2.3-2 .3.9 1.3 2m10.8 6c0 2.5.2 3.5.4 2.2.2-1.2.2-3.2 0-4.5-.2-1.2-.4-.2-.4 2.3m-7.9 26.5c0 16.5.2 23.4.3 15.3.2-8.1.2-21.6 0-30-.1-8.4-.3-1.8-.3 14.7M883.2 962c0 1.4.2 1.9.5 1.2.2-.6.2-1.8 0-2.5-.3-.6-.5-.1-.5 1.3m-251.9 8c0 4.7.2 6.6.4 4.2.2-2.3.2-6.1 0-8.5-.2-2.3-.4-.4-.4 4.3m246.8 7.6c0 1.1.3 1.4.6.6.3-.7.2-1.6-.1-1.9-.3-.4-.6.2-.5 1.3M631.4 997c0 8 .2 11.2.3 7.2.2-3.9.2-10.5 0-14.5-.1-3.9-.3-.7-.3 7.3m253.7-6.4c0 1.1.3 1.4.6.6.3-.7.2-1.6-.1-1.9-.3-.4-.6.2-.5 1.3m-5.8 4.9c0 2.2.2 3 .4 1.7.2-1.2.2-3 0-4-.3-.9-.5.1-.4 2.3m-256.1 74.2-.2 50.2-4.7.4-4.8.3 4.8.2c3 .1 4.9-.3 5.2-1.1.3-.6.4-23.5.3-50.7l-.3-49.5zm8.3 1.8c0 26.9.1 37.8.2 24.2.2-13.7.2-35.7 0-49-.1-13.3-.2-2.2-.2 24.8m97.3-15.8c.7.3 1.6.2 1.9-.1.4-.3-.2-.6-1.3-.5-1.1 0-1.4.3-.6.6m-236 2c.7.3 1.6.2 1.9-.1.4-.3-.2-.6-1.3-.5-1.1 0-1.4.3-.6.6m268 0c.7.3 1.6.2 1.9-.1.4-.3-.2-.6-1.3-.5-1.1 0-1.4.3-.6.6m-284 1c.7.3 1.6.2 1.9-.1.4-.3-.2-.6-1.3-.5-1.1 0-1.4.3-.6.6m301 0c.7.3 1.6.2 1.9-.1.4-.3-.2-.6-1.3-.5-1.1 0-1.4.3-.6.6m17 1c.7.3 1.6.2 1.9-.1.4-.3-.2-.6-1.3-.5-1.1 0-1.4.3-.6.6m-293 50c.7.3 1.6.2 1.9-.1.4-.3-.2-.6-1.3-.5-1.1 0-1.4.3-.6.6m252 0c.7.3 1.6.2 1.9-.1.4-.3-.2-.6-1.3-.5-1.1 0-1.4.3-.6.6m-13 1c.7.3 1.6.2 1.9-.1.4-.3-.2-.6-1.3-.5-1.1 0-1.4.3-.6.6"/><path fill="gray" d="m957.4 93.2-1.9 2.3 2.3-1.9c2.1-1.8 2.7-2.6 1.9-2.6-.2 0-1.2 1-2.3 2.2m-18.5 24.5c-1.3 1.6-1.2 1.7.4.4s2.1-2.1 1.3-2.1c-.2 0-1 .8-1.7 1.7m-39.5 29.5-2.9 3.3 3.3-2.9c3-2.8 3.7-3.6 2.9-3.6-.2 0-1.6 1.5-3.3 3.2M356.5 149c1 1.1 2 2 2.3 2s-.3-.9-1.3-2-2-2-2.3-2 .3.9 1.3 2m17 16c1 1.1 2 2 2.3 2s-.3-.9-1.3-2-2-2-2.3-2 .3.9 1.3 2m499.4 7.7c-1.3 1.6-1.2 1.7.4.4s2.1-2.1 1.3-2.1c-.2 0-1 .8-1.7 1.7M375.5 174c1 1.1 2 2 2.3 2s-.3-.9-1.3-2-2-2-2.3-2 .3.9 1.3 2m495.9 7.2-1.9 2.3 2.3-1.9c2.1-1.8 2.7-2.6 1.9-2.6-.2 0-1.2 1-2.3 2.2M391 188.4c0 .2.8 1 1.8 1.7 1.5 1.3 1.6 1.2.3-.4s-2.1-2.1-2.1-1.3M790.2 421c0 1.9.2 2.7.5 1.7.2-.9.2-2.5 0-3.5-.3-.9-.5-.1-.5 1.8m-323 7.5c0 1.6.2 2.2.5 1.2.2-.9.2-2.3 0-3-.3-.6-.5.1-.5 1.8m1 41.5c0 1.9.2 2.7.5 1.7.2-.9.2-2.5 0-3.5-.3-.9-.5-.1-.5 1.8m321.1 10c0 2.5.2 3.5.4 2.2.2-1.2.2-3.2 0-4.5-.2-1.2-.4-.2-.4 2.3m-320.1 39.5c0 1.6.2 2.2.5 1.2.2-.9.2-2.3 0-3-.3-.6-.5.1-.5 1.8m95 23c0 1.6.2 2.2.5 1.2.2-.9.2-2.3 0-3-.3-.6-.5.1-.5 1.8m224.1 3c0 2.2.2 3 .4 1.7.2-1.2.2-3 0-4-.3-.9-.5.1-.4 2.3M559.2 549c0 1.4.2 1.9.5 1.2.2-.6.2-1.8 0-2.5-.3-.6-.5-.1-.5 1.3m168.6 4.7c.7.3 1.6.2 1.9-.1.4-.3-.2-.6-1.3-.5-1.1 0-1.4.3-.6.6m-257.6 8.8c0 1.6.2 2.2.5 1.2.2-.9.2-2.3 0-3-.3-.6-.5.1-.5 1.8m249.6-.8c.7.3 1.6.2 1.9-.1.4-.3-.2-.6-1.3-.5-1.1 0-1.4.3-.6.6m-154.7 7.9c0 1.1.3 1.4.6.6.3-.7.2-1.6-.1-1.9-.3-.4-.6.2-.5 1.3m-5 6c0 1.1.3 1.4.6.6.3-.7.2-1.6-.1-1.9-.3-.4-.6.2-.5 1.3m13.3 19.6-2.9 3.3 3.3-2.9c3-2.8 3.7-3.6 2.9-3.6-.2 0-1.6 1.5-3.3 3.2m213.9 14.3c0 2.7.2 3.8.4 2.2.2-1.5.2-3.7 0-5-.2-1.2-.4 0-.4 2.8m-316.1.5c0 1.9.2 2.7.5 1.7.2-.9.2-2.5 0-3.5-.3-.9-.5-.1-.5 1.8m97.1 21c0 2.5.2 3.5.4 2.2.2-1.2.2-3.2 0-4.5-.2-1.2-.4-.2-.4 2.3m-55 15.7c5.3.2 14.1.2 19.5 0 5.3-.1.9-.3-9.8-.3s-15.1.2-9.7.3m207 0c3.7.2 9.6.2 13 0s.4-.3-6.8-.3c-7.1 0-9.9.1-6.2.3m-241.5 5c3.4.2 9 .2 12.5 0 3.4-.2.6-.3-6.3-.3s-9.7.1-6.2.3m291.9 0c1.8.2 5 .2 7 0 2.1-.2.7-.4-3.2-.4-3.8 0-5.5.2-3.8.4m54.6 1c.9.2 2.5.2 3.5 0 .9-.3.1-.5-1.8-.5s-2.7.2-1.7.5m-190.2 13.9c0 1.1.3 1.4.6.6.3-.7.2-1.6-.1-1.9-.3-.4-.6.2-.5 1.3m-7 24c0 1.1.3 1.4.6.6.3-.7.2-1.6-.1-1.9-.3-.4-.6.2-.5 1.3m6 10c0 1.1.3 1.4.6.6.3-.7.2-1.6-.1-1.9-.3-.4-.6.2-.5 1.3m219.9 2.8c0 .2.8 1 1.8 1.7 1.5 1.3 1.6 1.2.3-.4s-2.1-2.1-2.1-1.3m-226.9 16.2c0 1.1.3 1.4.6.6.3-.7.2-1.6-.1-1.9-.3-.4-.6.2-.5 1.3m-30.3 56.1c17.7.2 46.7.2 64.5 0 17.7-.1 3.2-.2-32.3-.2s-50 .1-32.2.2m-31.5 8c4.8.2 12.5.2 17 0 4.5-.1.6-.3-8.8-.3-9.3 0-13 .2-8.2.3m39 0c6.4.2 17 .2 23.5 0 6.4-.1 1.1-.3-11.8-.3s-18.2.2-11.7.3m47.5 0c6.1.2 16.3.2 22.5 0 6.1-.1 1.1-.3-11.3-.3s-17.4.2-11.2.3m51 16c1.2.2 3.2.2 4.5 0 1.2-.2.2-.4-2.3-.4s-3.5.2-2.2.4m200.6 60.5-2.9 3.3 3.3-2.9c1.7-1.7 3.2-3.1 3.2-3.3 0-.8-.8-.1-3.6 2.9M367 876.4c0 .2.8 1 1.8 1.7 1.5 1.3 1.6 1.2.3-.4s-2.1-2.1-2.1-1.3m519.4 1.8-1.9 2.3 2.3-1.9c1.2-1.1 2.2-2.1 2.2-2.3 0-.8-.8-.2-2.6 1.9M379 889.4c0 .2.8 1 1.8 1.7 1.5 1.3 1.6 1.2.3-.4s-2.1-2.1-2.1-1.3m506.1 98.2c0 1.1.3 1.4.6.6.3-.7.2-1.6-.1-1.9-.3-.4-.6.2-.5 1.3m-6 13c0 1.1.3 1.4.6.6.3-.7.2-1.6-.1-1.9-.3-.4-.6.2-.5 1.3m-81.3 59.1c.7.3 1.6.2 1.9-.1.4-.3-.2-.6-1.3-.5-1.1 0-1.4.3-.6.6m-300.5 50c.9.2 2.3.2 3 0 .6-.3-.1-.5-1.8-.5-1.6 0-2.2.2-1.2.5m95 11c4.3.2 11 .2 15 0 4-.1.5-.3-7.8-.3-8.2 0-11.5.2-7.2.3m49.5 0c5.7.2 14.7.2 20 0 5.3-.1.7-.3-10.3-.3s-15.4.2-9.7.3m51 88c.7.3 1.6.2 1.9-.1.4-.3-.2-.6-1.3-.5-1.1 0-1.4.3-.6.6"/><g fill="#fff" stroke-width="0"><path d="M277.7 73.7c.3 2.4 1.5 4.7 3.2 6.2 1.4 1.3 6.8 6 12 10.5 5.2 4.4 14.2 12.3 19.9 17.3 5.7 5.1 10.9 9 11.5 8.6.5-.3.7-.2.4.4-.4.6 3.7 5 9.1 9.9 8.2 7.5 26.1 24.3 70.8 66.6l7.1 6.8 12.4-4.6c6.8-2.5 13-4.7 13.7-4.9 1.1-.4-5.4-8.8-54-69.9l-15.9-19.9-6.7-2.3c-3.7-1.2-23.9-8.1-45-15.3S277.7 70 277.5 70s-.1 1.7.2 3.7m679.8 1.2c-7.1 2.6-25.6 9.4-41 15.1l-28 10.2-29 36.9c-15.9 20.3-31.8 40.5-35.2 44.8l-6.2 8 5.2 1.9c2.9 1.1 8.9 3.2 13.4 4.8l8.2 2.9 7.3-7c4-3.9 14.9-14.5 24.3-23.6 22.6-22 40.5-39 54.7-52.3 6.5-6 11.5-11.3 11.1-11.9-.3-.6-.1-.7.5-.3.7.4 5.4-3.2 11.3-8.6 5.6-5.1 11.7-10.7 13.5-12.3 2.9-2.5 3.6-3.9 4.1-8.3.3-2.8.2-5.2-.3-5.1-.5 0-6.7 2.2-13.9 4.8m12.7-1.7c-.7.7-1.2.8-1.2.2 0-1.4 1.2-2.6 1.9-1.9.2.3-.1 1.1-.7 1.7m6.9 9.2c-.1 4.7-4 47.8-13.2 147-3.8 41.7-6.9 76-6.7 76.1.3.3 10-11.6 19.9-24.5l6.7-8.6 7.1-50c3.8-27.4 7.7-55.3 8.6-61.9l1.6-12-10.9-32.5c-6.1-17.9-11.5-33.6-12-35-1-2.4-1.1-2.3-1.1 1.4m-.4 25.3c-.3 1-.5.4-.5-1.2 0-1.7.2-2.4.5-1.8.2.7.2 2.1 0 3m-2 22.5c-.3.8-.6.5-.6-.6-.1-1.1.2-1.7.5-1.3.3.3.4 1.2.1 1.9m-3 34.5c-.3 1-.5.4-.5-1.2 0-1.7.2-2.4.5-1.8.2.7.2 2.1 0 3m-2 22.5c-.3.7-.5.2-.5-1.2s.2-1.9.5-1.3c.2.7.2 1.9 0 2.5m-10 106c-.3.8-.6.5-.6-.6-.1-1.1.2-1.7.5-1.3.3.3.4 1.2.1 1.9m1.3 6.2c0 .3-.4.8-1 1.1-.5.3-1 .1-1-.4 0-.6.5-1.1 1-1.1.6 0 1 .2 1 .4M266.1 99.5c-13 43.5-15.3 52-14.7 55 .3 1.6 3.2 16.3 6.6 32.5s6.8 33.1 7.6 37.5c.9 4.4 1.9 8.5 2.2 9.1.5.8 4.3.4 13.9-1.5 7.2-1.4 13.4-2.9 13.8-3.2.3-.3-2.5-19.8-6.2-43.3-4.2-26.7-7-42.1-7.5-40.9-.4 1-.5.3-.2-1.8.7-4.5-3.9-35.4-7.1-47.4-1.3-5-2.5-10.1-2.7-11.5-.2-1.5-2.5 4.8-5.7 15.5m5.9-9.4c0 1.1-.4 1.7-1 1.4-.5-.3-1-1.3-1-2.1s.5-1.4 1-1.4c.6 0 1 .9 1 2.1m4.7 22.1c-.3.8-.6.5-.6-.6-.1-1.1.2-1.7.5-1.3.3.3.4 1.2.1 1.9m2 14c-.3.8-.6.5-.6-.6-.1-1.1.2-1.7.5-1.3.3.3.4 1.2.1 1.9m15 96c-.3.8-.6.5-.6-.6-.1-1.1.2-1.7.5-1.3.3.3.4 1.2.1 1.9M281 88.9c0 1.1 4.2 28.1 15.6 101.1 2.5 15.7 4.7 30.6 5.1 33.2.5 4.2.8 4.7 2.7 4.3 25.2-5.7 25.4-5.7 28.8-4 8.2 4 8.6 4.7 12.4 22.9 1.8 9.2 3.4 18.1 3.4 19.7 0 1.8-1.3 4.7-3.2 7.3l-3.3 4.4-14 2.8c-7.7 1.5-14.7 3-15.5 3.3-1.4.5-1.3 2.7 1.2 18.5l2.7 17.8 6.2 11.7c3.4 6.4 10.4 19.8 15.6 29.9 5.8 11.1 9.9 18 10.5 17.6s.8-.2.5.4c-1 1.5.3 4.3 1.6 3.5.5-.3.7-.1.3.5-.9 1.4 3.5 10.3 4.7 9.5.6-.3.7-.1.4.5-1 1.5.3 4.3 1.6 3.5.6-.3.7-.1.3.5-.9 1.4 13.5 30.2 14.8 29.5.5-.3.6-.1.2.5-.8 1.3 3.4 10.3 4.6 9.6.4-.3.5.2.2 1-.4.9 17.4 37.5 43.6 89.8 24.3 48.6 44.3 88.4 44.4 88.5s1.2-.6 2.5-1.6l2.4-1.8-1.7-70.9c-.9-39-1.9-86-2.2-104.4-.5-32.3-.6-33.8-3.1-42.8-1.8-6.2-2.9-8.8-3.5-8-.6.9-.7.5-.3-.9.8-2.8-3.4-17.5-4.8-16.6-.6.4-.7.1-.2-.6 1.1-1.8-1.5-10.6-2.7-8.9-.6.9-.8.7-.3-.8.3-1.2-2.2-11.3-6-24-3.6-12-7.9-26.6-9.6-32.4s-4.1-13.9-5.4-18-6.9-23-12.5-42-10.4-35.5-10.8-36.6c-.7-2.1-40.6-40.1-69.8-66.4-8.2-7.4-18.2-16.5-22.2-20.3-4.1-3.8-7.8-6.5-8.4-6.1s-.8.3-.5-.3c.4-.6-3.5-4.8-8.6-9.4-5-4.6-11.1-10.1-13.4-12.3-2.4-2.1-4.3-3.3-4.3-2.7m3 2.6c1 1.2 1 1.5-.4 1.5-.9 0-1.6-.7-1.6-1.5s.2-1.5.4-1.5.9.7 1.6 1.5m62.7 152.7c-.3.8-.6.5-.6-.6-.1-1.1.2-1.7.5-1.3.3.3.4 1.2.1 1.9m119 175c-.2 1.3-.4.3-.4-2.2s.2-3.5.4-2.3c.2 1.3.2 3.3 0 4.5m2 100.5c-.2 2.7-.3.5-.3-4.7s.1-7.4.3-4.8c.2 2.7.2 6.9 0 9.5m2 92.5c-.3.8-.6.5-.6-.6-.1-1.1.2-1.7.5-1.3.3.3.4 1.2.1 1.9m-2.2 1.8c.3.5.1 1-.4 1-.6 0-1.1-.5-1.1-1 0-.6.2-1 .4-1 .3 0 .8.4 1.1 1M952 106.5c-9.1 8.5-16.4 16-16.2 16.6.1.6-.2.8-.7.5s-1.4.1-2.1.9-.9 1.5-.5 1.5.2.7-.5 1.5-1.6 1.2-2.1.9c-.9-.5-14.7 12-37.9 34.2-6.3 6.1-18.7 17.9-27.5 26.3-10 9.6-16.2 16.3-16.6 18-.4 1.4-1.8 6.4-3.2 11.1-10.4 34.8-28 95.3-36.8 126.5-3.3 11.5-8.4 29.3-11.3 39.5l-5.4 18.5-1.2 73.3c-1.1 66.6-1.1 73.5.4 75.1 1.4 1.6 1.4 1.9 0 3.3s-1.7 5.8-2.2 30.6l-.5 28.9 2.4 1.7 2.4 1.6 9.5-19.3c5.2-10.6 15-30.5 21.7-44.3 6.8-13.7 19.3-38.2 27.9-54.4 22.2-41.9 33.6-64.9 32.8-66.2-.4-.6-.3-.8.2-.5 1.4.8 10.7-17 9.8-18.5-.4-.7-.3-1 .1-.6 1 1 2.7-1.9 22.2-39.7 15.4-29.8 26.3-49.7 30.7-56 1.8-2.6 2.4-6.4 4.3-26.5 1.2-12.9 4-43.1 6.2-67C964.3 154.9 970 93.1 970 91.7c0-1.7-2.3.2-18 14.8M792.7 419.7c-.2 1.6-.4.5-.4-2.2 0-2.8.2-4 .4-2.8.2 1.3.2 3.5 0 5m-2 119c-.2 3.2-.3.6-.3-5.7s.1-8.9.3-5.8c.2 3.2.2 8.4 0 11.5m0 9.5c-.3.8-.6.5-.6-.6-.1-1.1.2-1.7.5-1.3.3.3.4 1.2.1 1.9M427.9 200.3l-13.6 5 1.8 6.1c1 3.4 5.4 18 9.8 32.6 10.9 36.2 24.1 80.5 25.6 86 1.6 5.6 17.4 58 18.1 60 .6 1.6.7 1.6 7.8-17.5 2.4-6.6 8.8-23.5 14.1-37.5s9.7-26.2 9.7-27c.1-1.4-22.5-45.1-42.4-82-4.8-9.1-10.5-19.8-12.6-23.7-2-4-3.9-7.2-4.2-7.2-.3.1-6.6 2.4-14.1 5.2m374.2 18.3c-6.7 12.9-11.8 24-11.5 24.6.4.6.3.8-.3.5-1.2-.7-10.6 18.1-9.7 19.5.4.6.3.8-.3.5-1.2-.8-5.6 8.1-4.7 9.5.4.7.2.8-.5.4-1.3-.9-5.5 8-4.4 9.6.3.7.1.8-.5.4-1.2-.7-14.2 23.9-14.2 26.9 0 2.8 3.2 9.5 4.3 8.8.5-.3.7-.1.4.5-1 1.5 3.3 12.3 4.6 11.5q.9-.45.3.6c-1 1.6 8.3 25.3 9.6 24.5.7-.4.8-.2.4.5-.9 1.5.3 5.3 1.5 4.6.5-.3.7 0 .4.7s1.9 7.5 4.8 15.1l5.4 13.9 2.6-8.4c1.4-4.6 5.1-17.5 8.2-28.8 5.9-20.9 12.4-43.9 19.6-68 2.2-7.4 8.4-28.6 13.8-47l9.8-33.5-2.6-1.2c-2.3-1.1-24.1-9.3-24.7-9.3-.1 0-5.7 10.6-12.3 23.6"/><path d="M316 234.5c-17.6 3.8-49.9 10.4-61 12.6-8.2 1.5-11 2.5-12.6 4.3l-2.1 2.3 2.3 11.5c1.2 6.3 2.4 12.9 2.6 14.7.3 2.2 1.2 3.8 2.9 4.8 2.8 1.7.7 2.1 60.8-10.2 28.4-5.8 30-6.4 30.1-11.1 0-1.1-1.2-7.9-2.6-15-1.9-9.6-3.1-13.3-4.6-14.7-2.4-2.1-2.6-2.1-15.8.8m1.7 37.1c-.3.3-1.2.4-1.9.1-.8-.3-.5-.6.6-.6 1.1-.1 1.7.2 1.3.5m-23.2 15.8c-5.5 1.1-9 2.2-7.7 2.4 1.2.2 2.2.8 2.2 1.3 0 .6-.6.7-1.2.3-.7-.4-.6.1.3 1.2 15.2 18.3 21.2 25.4 21.6 25.1.4-.5-4.4-31.8-4.9-32.2-.2-.1-4.8.8-10.3 1.9m13.2 25.8c-.3.8-.6.5-.6-.6-.1-1.1.2-1.7.5-1.3.3.3.4 1.2.1 1.9m667.2-19.5c-2.4 3.2-4.4 6.5-4.4 7.3s-.5 1.5-1.1 1.5c-1.5 0-9.5 10.1-9.2 11.7.2.7-.1 1.2-.7 1.3-2 .2-10.6 9.7-10.1 11.2.3.8.2 1.2-.3.9-1.1-.7-2.3 2.2-1.4 3.6.3.6.1.8-.4.5-1.3-.8-15.7 25.9-14.8 27.3.4.6.1.9-.5.8-1-.3-8.3 13-42.4 76.7-6.8 12.6-20 38.7-29.4 57.8-14.5 29.4-16.7 34.6-14.4 33.1 24.3-15.8 57.6-38.7 57.4-39.5-.1-.6.2-.8.7-.4 1.3.8 23.3-13.9 22.3-14.9-.4-.4-.2-.7.3-.6 1.8.4 3 0 5.2-1.8 1.8-1.3 3.4-6.2 7.8-23.7 3.1-12.1 6.2-24.7 7-28 .7-3.3 2.3-9.6 3.5-14 1.1-4.4 5.9-23.1 10.6-41.5s11-42.7 14-53.9c3.1-11.2 5.3-20.5 5.1-20.7-.2-.3-2.4 2.1-4.8 5.3m3.1-.7c0 .5-.5 1-1.1 1-.5 0-.7-.5-.4-1 .3-.6.8-1 1.1-1 .2 0 .4.4.4 1m-694.4 15.7c2.4 9.4 8 30.5 12.4 47 4.4 16.4 12.3 46.7 17.6 67.3 5.2 20.6 10.2 39.7 11.1 42.3 1.5 4 2.7 5.5 7.6 8.8 3.3 2.1 6.4 3.6 7.1 3.2.6-.3.8-.3.4.2-1.1 1.2 6 5.8 7.5 4.9.6-.4.9-.4.5.1-1 1 2.9 3.8 4.1 3 .5-.3 1.3 0 1.7.6.4.8.3.9-.4.5s-1.2-.5-1.2-.3c0 1.3 13.1 8.8 14.1 8.1q1.05-.6.6.3c-.4.6 4.6 4.4 11.1 8.5 6.4 4.1 17.4 11.1 24.3 15.6l12.6 8-11-22.6c-18.7-38.2-41.9-83.7-43.1-84.4-.6-.4-.8-.8-.3-.8.7 0-13.7-28.6-32.6-64.5-9.4-17.8-12.1-22.1-17.8-28-3.6-3.9-8.1-8.7-9.9-10.7-1.7-2.1-3.7-3.5-4.3-3.1-.5.3-.7.1-.3-.5.7-1.2-11-14.8-12.5-14.4q-.9.15-.6-.6c.3-.4-.3-1.8-1.3-3.2-1.4-1.8-.8 1.6 2.6 14.7m218.2 18c-2 5.4-8.7 22.8-14.7 38.7-6.1 15.8-11.6 30.5-12.2 32.5-.9 3-.1 9.2 4.6 38.1 7.5 46.1 9.1 55.9 17.9 108.6 4.2 24.9 7.6 45.5 7.6 45.8s2.5-1 5.5-3l5.5-3.7v-9.5c0-5.4-.7-12.3-1.6-15.9-1.4-5.7-1.4-6.9 0-12.6 2.1-8.4 11-49.2 13.1-59.8 1.9-9.6 2.9-11.9 4.4-10.4.5.6 4 6.2 7.6 12.5 3.7 6.3 6.4 10.6 6.1 9.5-1-3.9-30.5-136.3-34.6-155.5-2.3-10.7-4.5-20.8-4.9-22.3-.6-2.6-1.1-1.8-4.3 7M542 486.1c0 1.5-1.8 1.9-2.3.6-.3-.8.1-1.4.9-1.4s1.4.4 1.4.8M751.6 321c-.9 3.6-26.5 124.6-27.6 130-.9 4.4-10.6 48.5-11.6 52.6-.5 1.8.4 2.7 5.2 5.3 3.1 1.7 6.1 2.8 6.7 2.4.5-.3.7-.2.4.4-.6.9 37.2 22.7 38 22 .3-.4 15.5-98.7 18.9-122 2.1-14.9 3.9-8.4-18.2-64.7-4.7-11.8-9.1-23.1-9.9-25-1.3-3.4-1.3-3.4-1.9-1M661 441.1c-7.4 3.4-17.3 7.8-22 9.8-4.7 2.1-14.8 6.6-22.6 10l-14 6.3-17.5 29.1c-9.6 16.1-17.3 29.7-17.3 30.4.1.7-.3 1.1-1 1-1.2-.2-1.1 40.8.2 62.2l.7 11.3 18.3-19.4c10-10.8 19.6-21.6 21.2-24.2 6-9.5 68.5-122.8 67.6-122.6 0 .1-6.2 2.8-13.6 6.1m248.5 52.1c-13.6 8.9-44 28.1-63.8 40.2l-7.7 4.7-11.1 22.2c-17.6 35.1-29.1 59.9-28.2 60.7 2.4 2.1 27.4 19 28 19 .5-.1 4.8-6.5 9.7-14.3 5-7.8 13.7-21.6 19.5-30.7 9.5-15.1 53-84.7 64.5-103.3 2.7-4.3 4.7-7.9 4.5-8.1s-7.1 4.1-15.4 9.6m-569.7.7c3.1 4.9 6 8.7 6.3 8.5.4-.2.6.4.5 1.4 0 .9.5 1.6 1.2 1.4.8-.1 1.1.2.7.8-.8 1.3 6.5 13.1 7.6 12.4.5-.3.6.3.2 1.2-.5 1.3-.3 1.5.7.9.8-.5 1.1-.4.6.3-.3.5 5.3 10.4 12.5 21.9 7.3 11.4 23.8 37.7 36.7 58.3s23.8 37.8 24.1 38.3c.5.5 22.8-13.5 29.9-18.8.8-.6-4.3-9.3-5.1-8.8-.6.3-.7.1-.3-.5.8-1.4-10.3-24.4-11.5-23.7-.5.4-.6-.1-.3-.9.7-1.7-22-46.1-23.9-46.9-.7-.2-18.7-11.8-40-25.6-22.3-14.5-39.2-24.9-39.9-24.5-.6.4-.8.3-.5-.3.6-.9-3.2-4.3-4.7-4.3-.3 0 2 4 5.2 8.9"/><path d="M531.7 500.7c-1 5.4-3.8 19.4-6.3 31.2l-4.5 21.3 1.2 14.2c.6 7.7 1.4 14.9 1.8 15.8.6 1.6 6.6 9.4 27 35.2l10.4 13.1-.7-26.5c-1.5-55.3-2.3-68.5-4.7-73.2-2.3-4.7-22.1-40.8-22.3-40.8-.1 0-.9 4.4-1.9 9.7m138 12.8c-17.6 1.9-32 3.5-32.2 3.7-.6.7-24.3 39.7-26.5 43.5-1.3 2.4-2.2 4.5-1.9 4.7.4.4 28.6 18.3 48.9 31 6.3 4 17.6 11.1 25 15.8 17 10.7 18.1 11.3 17.4 9.4-.3-.9-1.1-1.4-1.6-1.3-.6.1-1.3-.4-1.6-1.2-.3-.9 0-1.1.8-.6 1.6 1 2.4 3-10.2-27.2-5.5-13.4-10.4-24-10.9-23.7s-.6-.2-.3-1-.2-2.9-1.1-4.7c-1.6-3-1.6-3.3-.1-4.5.9-.6 7.1-1.4 13.9-1.8 6.7-.4 16.7-1.1 22.2-1.6 5.5-.4 22.2-1.6 37.2-2.6l27.2-1.8-11.2-6.3c-6.2-3.4-11.8-6.1-12.5-5.8s-1.1.1-.8-.3c.8-1.3-14.2-9.4-15.6-8.6-.7.4-1 .4-.6-.1.9-.9-.8-2-17.9-11.6-6.8-3.8-13.1-6.8-14-6.8-1 .1-16.1 1.6-33.6 3.4M770.5 548c.3.5-.3 1-1.5 1s-1.8-.5-1.5-1c.3-.6 1-1 1.5-1s1.2.4 1.5 1"/><path d="M733.3 560.9c-11.1.9-20.5 1.9-20.8 2.3-.6.6 11.5 8.8 34.4 23.5 2.9 1.9 5.6 3.1 6.1 2.6.6-.6 5-26.8 5-29.6 0-.8 1.1-.9-24.7 1.2M753 587c0 .5-.5 1-1.1 1-.5 0-.7-.5-.4-1 .3-.6.8-1 1.1-1 .2 0 .4.4.4 1m-68-22.4c0 .6 5.7 14.5 17.5 42.9 3.5 8.2 6.9 16.7 7.6 18.7l1.3 3.7-6.2 8.1-6.1 8 46.7.2c25.7.1 48.7.2 51 .3 3.7 0 4.6.4 5.8 2.7l1.5 2.8h26.3l-7.2-5.1c-4.3-3-7.7-4.7-8.4-4.3s-1 .3-.5-.1c.9-1.1-3-3.9-34.8-25-29.3-19.4-29.9-19.7-31.1-18.7-.5.4-.6.3-.1-.2 1-1.3-18.1-13.8-19.7-12.9-.6.3-.8.2-.3-.2.9-1.1-4.3-4.6-5.7-3.8-.6.3-.7.2-.3-.2 1-1.2-12.2-9.7-13.7-8.8-.6.3-.8.3-.4-.2 1.1-1.1-6-5.8-7.4-4.9-.7.4-.8.3-.4-.4 1.1-1.8-2.9-3.2-9.3-3.2-3.4 0-6.1.3-6.1.6m19 79.4c0 .5-.7 1-1.6 1-.8 0-1.2-.5-.9-1 .3-.6 1-1 1.6-1 .5 0 .9.4.9 1"/><path d="M597 579.2c-4.1 4.5-7.4 8.5-7.2 9 .1.4-.2.7-.6.5-.9-.2-7.8 7.3-7.5 8.2 0 .3-.3.5-.7.4-.5-.2-3.6 2.8-7 6.5l-6.2 6.7.6 5.9c.3 3.2.6 8.8.6 12.3v6.4l12.2-13.6c6.6-7.4 12.6-13.4 13.2-13.2s10.2 10.4 21.4 22.8l20.3 22.4-.7 30.3c-.4 17.4-.3 30.2.2 30s.9.1.9.7c0 .5-.3.9-.6.8-.4-.1-.9.9-1.2 2.2-.2 1.4-.3 2.5-.2 2.5.6 0 24.7-32.9 24.5-33.6-.1-.4.5-1.1 1.4-1.6s1.4-1.4 1-1.9c-.3-.5-.1-.8.4-.7 1.3.4 12.3-14.2 11.6-15.4-.3-.5-.1-.7.4-.6.9.3 27.1-33.9 27.2-35.3 0-1-4.9-4.1-75-47.2-10.7-6.6-19.9-12.1-20.5-12.3-.5-.1-4.4 3.4-8.5 7.8m0 2.1c0 .2-1.5 1.6-3.2 3.3l-3.3 2.9 2.9-3.3c2.8-3 3.6-3.7 3.6-2.9m-27.3 31.9c-.3.8-.6.5-.6-.6-.1-1.1.2-1.7.5-1.3.3.3.4 1.2.1 1.9m-79.4-2.9c-31.6 20.8-43.7 28.9-61 41-10.8 7.5-11.5 8.2-19.6 20-27.6 40.3-32.1 47.1-29.2 45 1.7-1.1 3.9-3.1 5-4.4l2-2.4-2.2 1.9c-1.3 1.1-2.3 1.4-2.3.8 0-1.3 3.5-3.4 4.3-2.5.9.8 50.2-40.9 50.2-42.5 0-1.4 1.6-3.2 2.4-2.7 1.5.9 9.2-6.8 12.2-12.1 4-7 5.4-8.1 7-5.6 1.2 1.9 1.5 1.9 4 .6 2.3-1.2 11.3-1.4 51.5-1.4h48.8l-2.5-2.8c-1.4-1.5-10.8-13.3-20.9-26.2s-18.8-24-19.4-24.7c-.8-.9-8 3.3-30.3 18m68.4 34.3c-.3.3-1.2.4-1.9.1-.8-.3-.5-.6.6-.6 1.1-.1 1.7.2 1.3.5"/><path d="m582.1 631.8-11.9 13.7 12.4.3c6.9.1 17.9.1 24.4 0l12-.3-12.4-13.7-12.5-13.7zM615 644c0 .5-.4 1-1 1-.5 0-1-.5-1-1 0-.6.5-1 1-1 .6 0 1 .4 1 1m-108.7 8c-22.6.3-41.4.8-41.8 1.1-.4.5 37.9 59.1 40.9 62.6.1.1 20.5 2.6 45.3 5.5 45.1 5.2 45.2 5.3 45.8 7.7.4 1.7-.2 3.4-2.3 6-9.4 11.7-17.1 22.4-16.7 23.1.3.5 0 1.2-.6 1.6-.8.5-.9.3-.4-.7 1.3-2.2-.6-.1-7.3 8.3L563 775h129.2l-2.8-3.8c-1.5-2-4.3-5.7-6.2-8.2-1.8-2.5-3.8-4.5-4.4-4.5s-1.2-.8-1.4-1.7c-.3-2.6-5.5-8.9-6.7-8.1q-.9.45-.3-.6c.8-1.2-3-6.6-4.6-6.6-.6 0-1.2-.8-1.4-1.7-.1-.9-1.4-3.2-2.8-5.1-5-6.6-3.5-8.1 9.4-9.6 36.3-4.2 79.5-9.3 79.6-9.4 0-.1 9.4-14.1 20.8-31 11.4-17 20.5-31.2 20.1-31.5-.9-.9-95.8-2.2-96.6-1.4-.3.4-14.7 19.6-31.9 42.7s-31.5 42.2-31.6 42.4c-.2.2-1.4.1-2.7-.3-2.2-.5-2.4-1-2.1-4.8.2-2.4.9-20.2 1.5-39.7l1.1-35.3-2.9-3-2.8-2.9-38 .3c-20.9.2-56.5.5-79.2.8m305.2 7.3c1.1.6 2.5 1.2 3 1.2.6 0 1 .5 1 1.1 0 1.4 11.3 11.5 43.4 38.9 15.9 13.7 20.9 17.5 18.5 14.4-1-1.3-10.4-15.5-30.1-45.7L840 658h-15.3c-12.2.1-14.8.3-13.2 1.3m61.9 51.3c.5 1.4.4 1.5-.9.4-1.7-1.4-1.9-2-.6-2 .5 0 1.2.7 1.5 1.6"/><path d="M454 666.7c-4.6 10.8-27.7 61.7-28.6 63.2-.3.4-20 5.9-54 15.1l-27 7.3 8 6.6c4.5 3.6 17.7 14.6 29.5 24.6 11.8 9.9 22.5 18.9 23.9 20.1l2.6 2.1-4.3 41.4c-2.3 22.8-4.3 42.6-4.5 44.1-.2 2.4 0 2.6 1.8 1.6 2.6-1.3 63.5-39.9 69.2-43.8 3.7-2.5 4.4-2.6 7-1.5 3.6 1.5 74 27 77.2 28 2.8.8 3.7 4.7-9.4-39.4-7.2-24.6-9.9-35-9.2-35.9 1.6-1.9 181.1-1.8 182.7.2.9 1.1-.1 5.7-4.8 21.3-14 46.6-16.2 54.3-15.2 54.3.5 0 19-6.6 41.2-14.6s40.6-14.6 40.9-14.7 2.5 1.2 5 2.9 16.4 10.6 31 19.9c14.6 9.2 29.2 18.4 32.5 20.6 3.2 2.1 6 3.7 6.2 3.5.6-.6-1-13.5-1.7-13.1-.3.2-.5-.8-.3-2.3.4-2.3-1.7-24-5.8-62.5l-1.1-9.8 2.6-2c1.5-1.2 10.7-9 20.5-17.4s23.1-19.4 29.5-24.5c6.4-5.2 11.5-9.4 11.3-9.6-.1-.1-12.6-3.6-27.7-7.8-15.1-4.1-32.9-9-39.5-10.9l-12-3.3-3.2-6.4c-1.8-3.6-5.5-11.5-8.2-17.5-14.6-33.1-21.6-47.4-22.5-46.5-.6.6-.4 1.6.5 2.7 1.2 1.6 1.2 1.7-.2.5-1.4-1-2-.6-4.4 3-1.6 2.4-2.8 4.8-2.8 5.5s-.3 1.1-.6.9-8.4 11.3-18 25.5c-9.6 14.3-17.9 25.9-18.5 25.9-.6.1-19.5 2.2-41.9 4.8l-40.9 4.7 15.1 19.5c19.3 24.9 21.4 27.8 20.7 29.6-.5 1.2-11.6 1.4-79.6 1.4-59.4 0-79-.3-79-1.2 0-1.2 11-16.1 26.5-35.8 5.2-6.7 9.3-12.5 9-13-.2-.4-3.7-1.1-7.7-1.4-4-.4-22.1-2.5-40.3-4.7-18.1-2.1-33.3-3.9-33.7-3.9-.3 0-10.2-14.3-21.9-31.8-11.6-17.4-21.5-32-21.9-32.5-.3-.4-2.1 2.8-4 7m23.3 44.6 16.7 25.3 33 2.9c33.1 2.9 35.3 3.4 31.5 6.5-.8.7-1.2 1.6-.9 2.1s0 .8-.8.7c-.7-.2-1.2.5-1.2 1.4.1 1-.2 1.6-.6 1.3-1.1-.7-15.3 15.2-14.6 16.3.6 1-3.2 5-4.1 4.4-1-.7-18.4 19.8-17.7 20.9.5.8.3.9-.6.4-1-.6-1.2-.4-.7.7.3.9 2.4 7.4 4.7 14.5 11.3 34.9 15 46.7 14.6 47-.2.2-14.9-5.4-32.7-12.5l-32.3-12.9-27.5 18.4c-15 10-27.7 18.3-28.2 18.3s-.9-.5-.9-1.1c0-1.1 4.2-37.4 6.3-55l1.3-10.5-24.8-21.4c-13.7-11.7-24.6-21.6-24.1-22 .4-.4 13-3.8 27.8-7.4 14.9-3.7 28.6-7.1 30.6-7.6 3.5-1 3.7-1.3 11.9-20.2 4.5-10.6 8.3-20.3 8.4-21.5 0-1.1.4-1.9.7-1.7s1.9-2.6 3.4-6.1c1.5-3.6 3-6.5 3.4-6.5s8.3 11.4 17.4 25.3m320.9-22.8c.6 1.3 1.5 2.2 2.1 1.8q.9-.45.3.6c-.4.6 3.8 11.9 9.6 25.5l10.3 24.4 27 6.8c31.9 8 34.6 8.8 34.6 9.8 0 .4-10.9 10.2-24.3 21.9-23.9 20.7-24.3 21.1-24 24.6.6 7.4 3.4 32.1 5.2 46.9 1.1 8.4 2 15.5 2 15.8 0 1.4-3.7-.6-15.8-8.8-31-20.9-40.1-26.8-41.2-26.8s-9.6 3.2-43.4 16.7c-11.6 4.5-21.2 8.1-21.4 7.8-.2-.2.6-3.4 1.8-7.2 7.9-24.8 17.3-53.9 17.6-54.5.4-.7-21.4-25.8-22.4-25.8-.3 0 .5 1.2 1.9 2.7l2.4 2.8-2.7-2.4c-1.5-1.3-2.5-2.7-2.3-3.2.6-.9-10.6-14.2-11.3-13.4-.9.9-4.1-2.6-3.6-3.9.3-.7-.7-2.3-2.1-3.6-2.9-2.8-3.3-5-.7-5 2.4 0 54.4-4.8 60.3-5.6l4.7-.6 16.3-24.9c9-13.7 16.7-24.9 17.2-24.9.4 0 1.2 1.1 1.9 2.5m25.5 51.1c-.3.3-1.2.4-1.9.1-.8-.3-.5-.6.6-.6 1.1-.1 1.7.2 1.3.5m-157.9 46.1c-21.4.2-56.2.2-77.5 0-21.4-.1-3.9-.2 38.7-.2s60.1.1 38.8.2"/><path d="M537.9 769.7c-1.3 1.6-1.2 1.7.4.4.9-.7 1.7-1.5 1.7-1.7 0-.8-.8-.3-2.1 1.3M701 751.4c0 .2.8 1 1.8 1.7 1.5 1.3 1.6 1.2.3-.4s-2.1-2.1-2.1-1.3m112-81c3 7.9 23.4 51.2 24.5 52.1 1.8 1.4 52.5 15.8 53.2 15.1 1-1-1.9-3.6-3.6-3.4-.9.2-1.5-.2-1.4-.9.3-1.6-16.7-16.4-18-15.6-.5.3-.7.2-.4-.4.3-.5-4.4-5.4-10.6-10.9-6.1-5.4-13.6-12.2-16.7-15-5-4.6-22-19-26.3-22.3-1.6-1.3-1.7-1.2-.7 1.3m-376.5 5.8c-3.8 3.3-21.1 18.2-38.2 33.1-28.5 24.5-33.8 29.5-30 28.2.6-.3 9.5-2.7 19.6-5.5 10.1-2.7 21.4-5.9 25.1-7l6.7-2 6.6-14.3c8.6-18.6 17.6-38.7 17.4-38.7-.1.1-3.3 2.8-7.2 6.2m-63.1 57.7c.3.5-.5 1.1-1.9 1.3-2 .4-2.3.3-1.4-.8 1.3-1.6 2.5-1.8 3.3-.5m-22.8 69.9c-7.1 32.2-8 36.5-7 34.4.3-.6 1-1.2 1.5-1.2.6 0 .8.4.5.9s.9.9 2.7.9c1.7 0 13.1 2.5 25.2 5.5s22.1 5.4 22.2 5.3 1.1-9.1 2.3-20.1l2-20-2.9-2.5c-1.5-1.4-9.3-8-17.2-14.6-7.9-6.7-16.2-13.8-18.5-15.7l-4-3.5zm539.8-24c-4.3 3.8-14 11.9-21.4 18.1l-13.4 11.4.2 4.1c.2 2.2.7 7.5 1.2 11.6s1.2 11.4 1.6 16.2l.6 8.7 3-.6c1.6-.3 12.5-2.9 24.1-5.7 14.4-3.5 22.2-5 24.3-4.5l3.1.6-2.8-13.1c-1.6-7.2-4.8-22.2-7.1-33.4-2.3-11.1-4.5-20.2-4.9-20.2-.3 0-4.2 3.1-8.5 6.8m8.3-3.6c-.3.8-.6.5-.6-.6-.1-1.1.2-1.7.5-1.3.3.3.4 1.2.1 1.9m13.3 60.3c0 .8-.4 1.5-1 1.5-.5 0-.7-.7-.4-1.5.4-.8.8-1.5 1-1.5s.4.7.4 1.5M550 809c3 .5 3.6.7 1.8.8-1.6.1-2.8.8-2.8 1.4 0 .9-.4.8-1-.2-.5-.8-1-1.1-1-.5 0 1 8.7 31.8 11.4 40.5.8 2.5 2.6 8.3 4 13l2.5 8.5 62.8-.5 62.7-.5 1.9-6c8.7-28.4 15.8-53.9 15.3-55.1-.3-.9-.1-1.2.4-.9.6.3 1 .1 1-.4 0-.8-24.8-1.1-81.7-.9-45 0-79.8.4-77.3.8m-213.7 41.7c-2.8 3.6-26.8 38-32.6 46.8-1.5 2.1-2.3 4.2-1.9 4.6s7.7 3.6 16.2 7.2 24.9 10.7 36.4 15.6c11.5 5 21 9.1 21.1 9.1s3.1-5.1 6.5-11.3c3.5-6.1 7.3-12.9 8.4-14.9l2.1-3.7-4.1-4.3c-3.4-3.6-44.2-47.5-47.9-51.6-1-1.1-1.8-.6-4.2 2.5m3.7-1.7c0 .5-.5 1-1.1 1-.5 0-.7-.5-.4-1 .3-.6.8-1 1.1-1 .2 0 .4.4.4 1m561.8 14.2c-21.2 22.3-37.2 39.7-37.6 40.9-.4 1.1 14.9 29.9 15.9 29.9.4 0 9.7-3.9 20.6-8.6s27.2-11.8 36.3-15.6 16.9-7.4 17.4-7.8c.8-.8-10.3-17.4-29.5-44.3l-7.7-10.7zm51.7 37.8c.3.5.1 1-.4 1-.6 0-1.1-.5-1.1-1 0-.6.2-1 .4-1 .3 0 .8.4 1.1 1"/><path d="M460.4 865.3c-7.8 5-24.5 15.7-37.1 23.7l-23 14.5-5.9 11c-3.3 6-5.8 11.6-5.8 12.2.1.7-.1 1.1-.5.9-.3-.3-1.8 1.8-3.3 4.6l-2.7 4.9 4.2 1.8c29.8 12.8 40.3 17.4 40.5 17.7.2.1-.1 1.8-.7 3.7-.9 2.8-1.7 3.5-3.6 3.3-1.3 0-2.2-.3-1.9-.5.2-.2-9-4.5-20.4-9.6l-20.7-9.2-1.4 16.4c-.8 9-1.1 16.6-.9 16.9.3.3 9.3 1.8 19.9 3.5 10.6 1.6 19.4 3.1 19.7 3.4.2.2.1 2-.2 4-.7 3.3-1 3.6-3.4 3.1-8.3-1.6-32.8-4.7-34.4-4.3-1 .3-1.6.1-1.2-.4.3-.5.1-.9-.5-.9-.5 0-1.2 3.5-1.5 7.7-.4 4.3-.9 10.3-1.1 13.3l-.6 5.6 37.7 23.3 37.7 23.4 14.6-.7c8-.4 31-1.7 51.1-3l36.5-2.3 22-13c12.1-7.1 28.2-16.5 35.7-20.9l13.8-7.9v-60.7L601 928c-12.1-12.5-22-23.2-22-23.7s2.9-3.8 6.4-7.1l6.4-6.2h36c40.4 0 36.1-.8 44.2 8.2l4.2 4.7-22.1 23.3-22.1 23.3.3 30.4.2 30.4 12 7.2c6.6 4 22.6 13.4 35.5 21l23.5 13.7 36.5 2.4c20.1 1.3 43.3 2.6 51.5 3l15 .6 10.5-6.7c5.8-3.7 21.8-13.7 35.5-22.2 13.8-8.5 25.5-16 26.1-16.6.8-.8 1-5.4.6-14l-.4-12.7H876c-2.2 0-20.2 2.4-32.8 4.4-3.1.5-6-4.5-3.7-6.4.8-.6 9.6-2.4 19.5-4 10-1.6 18.4-3 18.6-3.3.4-.4-1.6-31.8-2.1-32.4-.1-.3-24.7 10.2-37.7 16.1-6.1 2.7-7.1 2.4-8.3-2.4-.6-2.4.1-2.8 21.5-12 12.1-5.2 22-9.7 22-10.1 0-1.8-4.8-8.8-5.5-8.2-.4.5-.5.2-.1-.4.9-1.6-11.2-24.1-13.9-25.8-2.7-1.8-59.5-37.8-67.2-42.7l-6.2-4-5.8 2.2c-18.7 7.1-84 30-85.4 30-.4 0-1.1-1.4-1.4-3.1-.5-2-1-2.7-1.5-1.9s-.9.8-1.3-.4c-.4-.9-.1-1.6.6-1.6.8 0 .7-.3-.2-.9-.8-.5-27-.9-59.7-.9h-58.3l.5 2.7c.3 1.4-.1 3.4-.8 4.4-1.3 1.7-2.6 1.4-24.3-6.3-12.7-4.6-27.3-9.8-32.5-11.7-19.3-7.1-34.1-12.3-34.8-12.3-.4 0-7 4.2-14.8 9.3m-78 81.6c.3.5-.1 1.1-.9 1.5-.9.3-1.5 0-1.5-.9 0-1.6 1.6-2 2.4-.6m492.6 1.6c0 .8-.2 1.5-.4 1.5s-.6-.7-1-1.5c-.3-.8-.1-1.5.4-1.5.6 0 1 .7 1 1.5m3 41c0 .8-.4 1.5-1 1.5-.5 0-1-.7-1-1.5s.5-1.5 1-1.5c.6 0 1 .7 1 1.5m-474.3 2.1c-.3.3-1.2.4-1.9.1-.8-.3-.5-.6.6-.6 1.1-.1 1.7.2 1.3.5M377 1011c0 .5-.5 1-1.1 1-.5 0-.7-.5-.4-1 .3-.6.8-1 1.1-1 .2 0 .4.4.4 1m-85-87.6c-53.5 14.9-49.7 14.1-54.8 12.9-2.6-.5-15.3-3.5-28.3-6.7l-23.7-5.7-32.7 14.5c-18 8-33 14.7-33.2 15-.8.8 3 8.7 4.1 8.3.6-.3 13.5-6 28.6-12.7s29.1-12.9 31.1-13.7c3.5-1.4 4.5-1.3 22 3 37.2 9.2 36 9 42 7.4 11.8-3.2 51.1-14.1 62.8-17.4 6.8-1.9 12.7-3.1 13.1-2.6.5.4 4.3 9.1 8.5 19.3 12 28.9 11.7 28.3 12.6 26.8.7-1 .9-.9.9.3s2 1.8 9.3 2.7c5.1.6 10.6 1.4 12.3 1.8l3.1.6.2-7c.1-3.9.6-11.9 1.1-17.9.4-5.9.8-10.9.7-10.9-.5-.4-23.4-10.7-32.7-14.7-5.8-2.5-13.1-5.7-16.3-7.1s-6.3-2.6-7-2.5c-.7 0-11.3 2.9-23.7 6.3m-170.3 31.1c0 .8-.4 1.2-.9.9s-.6-1-.3-1.5c.9-1.3 1.2-1.1 1.2.6m3.3 4.9c0 .3-.4.8-1 1.1-.5.3-1 .1-1-.4 0-.6.5-1.1 1-1.1.6 0 1 .2 1 .4m807-39.2c-3.6 1.6-12.7 5.6-20.2 8.9-7.5 3.2-17 7.4-21 9.2l-7.3 3.4.8 17.4c.5 9.6 1 17.5 1.2 17.7.7.7 24.1-3.2 25.1-4.2.6-.6 5.5-11.6 10.9-24.4 7.4-17.3 10.3-23.2 11.6-23.2.9 0 5.4 1.1 10 2.4s22.6 6.3 39.9 11.1l31.5 8.7 27.7-6.7 27.8-6.7 24.2 10.8c13.4 5.8 27.2 11.9 30.6 13.5 8.9 4 9 4 11.1-.7l1.8-4-33.4-14.8-33.4-14.7-25.7 6.2c-14.1 3.4-27 6.4-28.7 6.6-2.7.4-19.4-3.9-63.2-16.3-6.8-1.8-12.9-3.4-13.5-3.3-.7 0-4.2 1.4-7.8 3.1m-609.3 60.6c-1.5 1-2.4 2.2-2 2.7.5.4.3.5-.4.1-1.6-.9-6.4 1.4-5.6 2.7.3.6.1.7-.5.3-1.5-.9-9.5 3.8-8.5 4.9.5.4.3.5-.4.1-1.6-.9-9.6 3.2-8.8 4.4.4.6-.1.7-1.1.3-1.2-.4-1.5-.3-1 .5s.1 1-1 .5c-1.3-.5-1.5-.3-.9.7.5.9.4 1.1-.4.6-.6-.4-11.3 4.7-24.9 12-20.8 11.1-32.3 18-74.5 44.8l-9.2 5.8-19.3-3.2c-10.7-1.7-19.5-3-19.7-2.8s-.7 2.2-1.1 4.5l-.6 4.1 5.3 1.1c11.8 2.3 33.8 6.1 35.8 6.1 1.8 0 37.4-21.5 56.1-34 5.4-3.5 29.4-17 30.4-17 .3 0 3.1-1.5 6.3-3.3 3.2-1.9 16-8.8 28.4-15.5l22.6-12.2 9.4 1c5.2.5 10.2 1 11.2 1 1.3 0 2.6 1.8 4.4 6 1.9 4.2 2.9 5.7 3.5 4.8s.7-.6.3.8c-.3 1.3 1.1 6 3.9 12.5l4.5 10.4.1-4.5c.1-2.5.9-11.6 1.8-20.3 1-8.6 1.5-15.7 1.2-15.7-.7 0-35.8-4.9-39.5-5.5-1.9-.3-4 .2-5.8 1.3m44.3 6.7c0 .8-.2 1.5-.4 1.5s-.6-.7-1-1.5c-.3-.8-.1-1.5.4-1.5.6 0 1 .7 1 1.5m-221.3 70.7c-.3.8-.6.5-.6-.6-.1-1.1.2-1.7.5-1.3.3.3.4 1.2.1 1.9m761.5-75.9-21.3 3 .6 7.1c1.5 17.2 2.8 29.1 3.4 30.8.5 1.4 2.5-2.6 7-13.9 3.5-8.7 6.9-16.3 7.5-16.9s6.2-1.7 12.5-2.3l11.3-1.2 15.7 8.4c8.6 4.7 24.2 13.1 34.6 18.7 10.5 5.7 21.7 11.8 25 13.5 3.3 1.8 15.5 9.2 27 16.5 11.6 7.3 25.5 16.1 31 19.5l10 6.3 18-3.4c9.9-1.8 19.4-3.5 21.1-3.9 3-.5 3.1-.6 2.4-4.6-.4-2.2-1-4.2-1.3-4.5-.3-.4-8.8.8-18.9 2.6s-18.7 3.2-19.3 3.3c-.5 0-13.7-8.1-29.1-18-29.7-19-59.7-35.9-61.6-34.7-.6.4-.8.3-.5-.3.6-1-33.9-19.9-36-19.7-.7.1-1.1-.2-.8-.6.7-1.1-2.4-2.2-3.8-1.3-.7.3-.8.2-.4-.2.8-.9-9.9-7.6-11.8-7.4-.5.1-10.6 1.5-22.3 3.2m-17.5 4.3c-.3.3-1.2.4-1.9.1-.8-.3-.5-.6.6-.6 1.1-.1 1.7.2 1.3.5m2 32.6c-.3.8-.6.5-.6-.6-.1-1.1.2-1.7.5-1.3.3.3.4 1.2.1 1.9m-520.1 1c-.3.7-.7 4.7-1.1 9l-.6 7.6 7.2 8.9c3.9 4.8 16.1 19.8 27 33.3s23.1 28.5 27.1 33.5c11.5 14 31.2 38.4 43.5 53.7l11.1 13.9 5.8-9.8c3.1-5.4 8.1-13.9 11.1-19 3.4-5.7 5.2-9.7 4.7-10.5-3.5-5.8-19.1-25.5-42.1-53.1l-19.1-22.8-33.3-20.7c-44.7-27.9-40.8-25.6-41.3-24"/><path d="M608.5 1028.1c-26.1 15.1-52 30.2-52.8 31-1.1.9 7.3 20 8.5 19.3.4-.3.5.3.1 1.2-.5 1.3-.3 1.5.7.9q1.35-.75.6.3c-.9 1.5 10.4 25.3 11.7 24.5q.9-.45.3.6c-.4.6.6 4.1 2.3 7.6l3 6.5H623v-50c0-27.5-.1-50-.2-50-.2 0-6.6 3.7-14.3 8.1m-50.7 34.4c-.3.3-.9-.2-1.2-1.2-.6-1.4-.5-1.5.5-.6.7.7 1 1.5.7 1.8m74.2 7.5v50h39.7l2.7-6.1c1.4-3.3 2.3-6.5 2-7.1-.4-.6-.2-.8.3-.5 1.3.8 2.6-2 1.6-3.5-.3-.6-.2-.8.4-.5 1.3.8 10.8-18.7 9.8-20.3-.5-.8-.4-1.1.2-.7 1.3.8 5.8-8.7 4.8-10.4-.5-.7-.4-1 .2-.6.8.5 6.7-10.3 6-10.9-.2-.2-38.2-22.5-54.2-31.9-4.9-2.9-10-5.8-11.2-6.4l-2.3-1.2zm247.7-48.9c-1 .6-1.4 1.5-1.1 2.1.4.7.2.8-.4.4-1.1-.6-34.4 19.4-63.8 38.4-4 2.6-10 8.9-22.2 23.6-9.2 11-18.8 22.5-21.5 25.5-2.6 2.9-4.5 5.9-4.3 6.6.3.7 0 1.5-.6 1.9-.7.5-.8.2-.3-.7 1.5-2.7-1.1.5-7.5 8.9-3.4 4.5-6.3 9-6.4 10-.2.9-.8 1.7-1.5 1.7-2 0-3 2.7-1.8 4.6.6 1 1.4 1.6 1.8 1.3.4-.2 1.1.1 1.5.7.4.8.3.9-.4.5s-1.2-.5-1.2-.2c0 .5 15.1 25.8 18.5 30.9l1.7 2.6 15.1-18.8c8.4-10.4 31.7-39.3 51.8-64.3 20.2-25 39-48.4 41.9-52.2l5.2-6.8-.7-7.7c-.8-9.1-1.3-10.3-3.8-9m-374.2 104.1 11.4 15.3 19.6 8.8c10.8 4.9 19.8 8.7 19.9 8.5.2-.1-4.9-9.9-11.3-21.5l-11.6-21.3-7-1.5c-6.5-1.4-24.6-3.5-30.1-3.5-2.2 0-1.2 1.7 9.1 15.2m237-13.7c-6.6.7-14.1 2-16.7 3-4.7 1.7-4.8 1.8-13.7 17.8-4.9 8.9-10.3 18.8-11.9 21.9l-3.1 5.7 3.2-1.4c1.8-.8 11.2-5.2 21-9.8 13.2-6.2 18.4-9.2 19.7-11.3 1.1-1.5 1.7-3.2 1.4-3.6-.3-.5-.1-.7.4-.6.6.2 4.7-4.7 9.3-10.7 4.5-6.1 8.7-11.3 9.3-11.7 1.5-1-4.6-.8-18.9.7m15.7 1.7c-.7.7-1.2.8-1.2.2 0-1.4 1.2-2.6 1.9-1.9.2.3-.1 1.1-.7 1.7"/><path d="M502.5 1164.5c-5.8 9.5-10.7 17.9-11 18.7-.4.9 8.7 4.4 33.2 12.8l33.8 11.5 68.2.3 68.1.2 34.1-11.4c18.8-6.3 34.5-11.7 35-12 .6-.4-19.1-34.9-21.3-37.2 0-.1-12.9 5.8-28.6 13.2l-28.5 13.4H570.2l-25.3-12.1c-14-6.6-26.8-12.7-28.6-13.4l-3.2-1.4z"/></g><path fill="#d4d4d4" d="M971.1 78.6c0 1.1.3 1.4.6.6.3-.7.2-1.6-.1-1.9-.3-.4-.6.2-.5 1.3m-7.2 8.1-2.4 2.8 2.8-2.4c1.5-1.4 2.7-2.6 2.7-2.8 0-.8-.8-.1-3.1 2.4m-694.1 2.5c.7 2.8 1.9 3 2.4.5.3-1.6 0-2.3-1.2-2.3q-1.65 0-1.2 1.8m11.8 3.4c-.4 1.4-.5 2.9-.1 3.2.3.3.5-.2.5-1.1 0-.8.7-1.7 1.7-1.9 1.4-.3 1.5-.4.1-1.6-1.3-1.1-1.7-.9-2.2 1.4m4.4-.2c0 .2.8 1 1.8 1.7 1.5 1.3 1.6 1.2.3-.4s-2.1-2.1-2.1-1.3m672.9 7.3-2.4 2.8 2.8-2.4c1.5-1.4 2.7-2.6 2.7-2.8 0-.8-.8-.1-3.1 2.4m10.3-.7c0 1.4.2 1.9.5 1.2.2-.6.2-1.8 0-2.5-.3-.6-.5-.1-.5 1.3m-666.2.4c0 .2.8 1 1.8 1.7 1.5 1.3 1.6 1.2.3-.4s-2.1-2.1-2.1-1.3m-5.5 3.6c1 1.1 2 2 2.3 2s-.3-.9-1.3-2-2-2-2.3-2 .3.9 1.3 2m645 1.8c.3.3-.1 1.2-.7 2.1-.8 1-.4.9 1-.3 2.6-2.3 2.6-2.3.7-2.3-.8 0-1.3.3-1 .5m33.6.8c0 1.1.3 1.4.6.6.3-.7.2-1.6-.1-1.9-.3-.4-.6.2-.5 1.3M312.5 108c1 1.1 2 2 2.3 2s-.3-.9-1.3-2-2-2-2.3-2 .3.9 1.3 2m655.7 3c0 1.4.2 1.9.5 1.2.2-.6.2-1.8 0-2.5-.3-.6-.5-.1-.5 1.3m-23.3 1.7c-1.3 1.6-1.2 1.7.4.4s2.1-2.1 1.3-2.1c-.2 0-1 .8-1.7 1.7m-637.3.1c-.3.5.1.9.9.9s1.2-.4.9-.9c-.3-.4-.7-.8-.9-.8s-.6.4-.9.8m14.9 4.2c1 1.1 2 2 2.3 2s-.3-.9-1.3-2-2-2-2.3-2 .3.9 1.3 2m607.4.7-2.4 2.8 2.8-2.4c1.5-1.4 2.7-2.6 2.7-2.8 0-.8-.8-.1-3.1 2.4m37.2 3.9c0 1.1.3 1.4.6.6.3-.7.2-1.6-.1-1.9-.3-.4-.6.2-.5 1.3M320 123.5c1.3 1.4 2.6 2.5 2.8 2.5.3 0-.5-1.1-1.8-2.5s-2.6-2.5-2.8-2.5c-.3 0 .5 1.1 1.8 2.5m611.4 1.7c-1.6 1.8-2.2 2.7-1.3 2 .9-.6 2-.8 2.4-.4.5.4.5.2.2-.4-.8-1.4 1.7-3.7 2.8-2.6.5.4.5.1.1-.6-.9-1.6-.8-1.7-4.2 2m41.7-1.6c0 1.1.3 1.4.6.6.3-.7.2-1.6-.1-1.9-.3-.4-.6.2-.5 1.3m-695 2c0 1.1.3 1.4.6.6.3-.7.2-1.6-.1-1.9-.3-.4-.6.2-.5 1.3m55.4 1.4c1 1.1 2 2 2.3 2s-.3-.9-1.3-2-2-2-2.3-2 .3.9 1.3 2m579 7.2-4 4.3 4.3-4c2.3-2.1 4.2-4 4.2-4.2 0-.8-.9 0-4.5 3.9m53.7-2.2c0 1.4.2 1.9.5 1.2.2-.6.2-1.8 0-2.5-.3-.6-.5-.1-.5 1.3m-635.7 1c1 1.1 2 2 2.3 2s-.3-.9-1.3-2-2-2-2.3-2 .3.9 1.3 2m586.4 5.7-3.4 3.8 3.8-3.4c2-1.9 3.7-3.6 3.7-3.8 0-.8-.8 0-4.1 3.4M344 136.3c0 .2 1.5 1.6 3.3 3.3l3.2 2.9-2.9-3.3c-2.8-3-3.6-3.7-3.6-2.9m-3 6.1c0 .2.8 1 1.8 1.7 1.5 1.3 1.6 1.2.3-.4s-2.1-2.1-2.1-1.3m624.1 2.2c0 1.1.3 1.4.6.6.3-.7.2-1.6-.1-1.9-.3-.4-.6.2-.5 1.3m-60.7 5.6-1.9 2.3 2.3-1.9c2.1-1.8 2.7-2.6 1.9-2.6-.2 0-1.2 1-2.3 2.2m-654.3 1.4c0 1.1.3 1.4.6.6.3-.7.2-1.6-.1-1.9-.3-.4-.6.2-.5 1.3m102.4 1.4c1 1.1 2 2 2.3 2s-.3-.9-1.3-2-2-2-2.3-2 .3.9 1.3 2m8.5-.7c0 .2 1.5 1.6 3.3 3.3l3.2 2.9-2.9-3.3c-2.8-3-3.6-3.7-3.6-2.9m527 5.4-5.5 5.8 5.8-5.5c5.3-5 6.2-6 5.4-6-.1 0-2.7 2.6-5.7 5.7m76.1-3.1c0 1.1.3 1.4.6.6.3-.7.2-1.6-.1-1.9-.3-.4-.6.2-.5 1.3m36 0c0 1.1.3 1.4.6.6.3-.7.2-1.6-.1-1.9-.3-.4-.6.2-.5 1.3m-30 4c0 1.1.3 1.4.6.6.3-.7.2-1.6-.1-1.9-.3-.4-.6.2-.5 1.3m29.1 3.4c0 1.4.2 1.9.5 1.2.2-.6.2-1.8 0-2.5-.3-.6-.5-.1-.5 1.3m-28.1.6c0 1.1.3 1.4.6.6.3-.7.2-1.6-.1-1.9-.3-.4-.6.2-.5 1.3M367 166.5c1.3 1.4 2.6 2.5 2.8 2.5.3 0-.5-1.1-1.8-2.5s-2.6-2.5-2.8-2.5c-.3 0 .5 1.1 1.8 2.5m596.1-.9c0 1.1.3 1.4.6.6.3-.7.2-1.6-.1-1.9-.3-.4-.6.2-.5 1.3m-79.1 3.9c-2.4 2.5-4.2 4.5-3.9 4.5s2.5-2 4.9-4.5 4.2-4.5 3.9-4.5-2.5 2-4.9 4.5m114.1.1c0 1.1.3 1.4.6.6.3-.7.2-1.6-.1-1.9-.3-.4-.6.2-.5 1.3m-744 1c0 1.1.3 1.4.6.6.3-.7.2-1.6-.1-1.9-.3-.4-.6.2-.5 1.3m128.4 2.4c2.1 2.2 4.1 4 4.4 4s-1.3-1.8-3.4-4-4.1-4-4.4-4 1.3 1.8 3.4 4m579.6 4.6c0 1.1.3 1.4.6.6.3-.7.2-1.6-.1-1.9-.3-.4-.6.2-.5 1.3m35 0c0 1.1.3 1.4.6.6.3-.7.2-1.6-.1-1.9-.3-.4-.6.2-.5 1.3m-741 3c0 1.1.3 1.4.6.6.3-.7.2-1.6-.1-1.9-.3-.4-.6.2-.5 1.3m126.9.9c1.3 1.4 2.6 2.5 2.8 2.5.3 0-.5-1.1-1.8-2.5s-2.6-2.5-2.8-2.5c-.3 0 .5 1.1 1.8 2.5m613.1 3.1c0 1.1.3 1.4.6.6.3-.7.2-1.6-.1-1.9-.3-.4-.6.2-.5 1.3m-739 1c0 1.1.3 1.4.6.6.3-.7.2-1.6-.1-1.9-.3-.4-.6.2-.5 1.3m712.1.4c0 1.4.2 1.9.5 1.2.2-.6.2-1.8 0-2.5-.3-.6-.5-.1-.5 1.3m-8 1c0 1.4.2 1.9.5 1.2.2-.6.2-1.8 0-2.5-.3-.6-.5-.1-.5 1.3M854 190.5c-2.4 2.5-4.2 4.5-3.9 4.5s2.5-2 4.9-4.5 4.2-4.5 3.9-4.5-2.5 2-4.9 4.5m-453.5-.5c1 1.1 2 2 2.3 2s-.3-.9-1.3-2-2-2-2.3-2 .3.9 1.3 2m566.6.6c0 1.1.3 1.4.6.6.3-.7.2-1.6-.1-1.9-.3-.4-.6.2-.5 1.3m28 1c0 1.1.3 1.4.6.6.3-.7.2-1.6-.1-1.9-.3-.4-.6.2-.5 1.3m-137.2 3.1-3.4 3.8 3.8-3.4c3.4-3.3 4.2-4.1 3.4-4.1-.2 0-1.9 1.7-3.8 3.7M401 198.5c1.3 1.4 2.6 2.5 2.8 2.5.3 0-.5-1.1-1.8-2.5s-2.6-2.5-2.8-2.5c-.3 0 .5 1.1 1.8 2.5m559.1-.9c0 1.1.3 1.4.6.6.3-.7.2-1.6-.1-1.9-.3-.4-.6.2-.5 1.3m34 1c0 1.1.3 1.4.6.6.3-.7.2-1.6-.1-1.9-.3-.4-.6.2-.5 1.3m-1 7c0 1.1.3 1.4.6.6.3-.7.2-1.6-.1-1.9-.3-.4-.6.2-.5 1.3m-34 3c0 1.1.3 1.4.6.6.3-.7.2-1.6-.1-1.9-.3-.4-.6.2-.5 1.3m33 4c0 1.1.3 1.4.6.6.3-.7.2-1.6-.1-1.9-.3-.4-.6.2-.5 1.3m-34 7c0 1.1.3 1.4.6.6.3-.7.2-1.6-.1-1.9-.3-.4-.6.2-.5 1.3m33 0c0 1.1.3 1.4.6.6.3-.7.2-1.6-.1-1.9-.3-.4-.6.2-.5 1.3m-1 7c0 1.1.3 1.4.6.6.3-.7.2-1.6-.1-1.9-.3-.4-.6.2-.5 1.3m-33 3c0 1.1.3 1.4.6.6.3-.7.2-1.6-.1-1.9-.3-.4-.6.2-.5 1.3m32 4c0 1.1.3 1.4.6.6.3-.7.2-1.6-.1-1.9-.3-.4-.6.2-.5 1.3m-655 4c0 1.1.3 1.4.6.6.3-.7.2-1.6-.1-1.9-.3-.4-.6.2-.5 1.3m654 3c0 1.1.3 1.4.6.6.3-.7.2-1.6-.1-1.9-.3-.4-.6.2-.5 1.3m-702.3.1c.7.3 1.6.2 1.9-.1.4-.3-.2-.6-1.3-.5-1.1 0-1.4.3-.6.6m670.3.9c0 1.1.3 1.4.6.6.3-.7.2-1.6-.1-1.9-.3-.4-.6.2-.5 1.3m-675.3.1c.7.3 1.6.2 1.9-.1.4-.3-.2-.6-1.3-.5-1.1 0-1.4.3-.6.6m706.3 6.9c0 1.1.3 1.4.6.6.3-.7.2-1.6-.1-1.9-.3-.4-.6.2-.5 1.3m-745.2 2.1c-1.3 1.6-1.2 1.7.4.4.9-.7 1.7-1.5 1.7-1.7 0-.8-.8-.3-2.1 1.3m713.2 1.9c0 1.1.3 1.4.6.6.3-.7.2-1.6-.1-1.9-.3-.4-.6.2-.5 1.3m31 3c0 1.1.3 1.4.6.6.3-.7.2-1.6-.1-1.9-.3-.4-.6.2-.5 1.3m-32 7c0 1.1.3 1.4.6.6.3-.7.2-1.6-.1-1.9-.3-.4-.6.2-.5 1.3m31 0c0 1.1.3 1.4.6.6.3-.7.2-1.6-.1-1.9-.3-.4-.6.2-.5 1.3m-646 1c0 1.1.3 1.4.6.6.3-.7.2-1.6-.1-1.9-.3-.4-.6.2-.5 1.3m614 9c0 1.1.3 1.4.6.6.3-.7.2-1.6-.1-1.9-.3-.4-.6.2-.5 1.3m28.8 2.1c-1.3 1.6-1.2 1.7.4.4s2.1-2.1 1.3-2.1c-.2 0-1 .8-1.7 1.7m-737.8 1.9c0 1.1.3 1.4.6.6.3-.7.2-1.6-.1-1.9-.3-.4-.6.2-.5 1.3m715 0c0 1.1.3 1.4.6.6.3-.7.2-1.6-.1-1.9-.3-.4-.6.2-.5 1.3m-7 6c0 1.1.3 1.4.6.6.3-.7.2-1.6-.1-1.9-.3-.4-.6.2-.5 1.3M287.5 291c.3.5.8 1 1.1 1 .2 0 .4-.5.4-1 0-.6-.5-1-1.1-1-.5 0-.7.4-.4 1m688.1.8c-.3.6-.1 1.4.5 1.7 1.5 1 2.5-.3 1.2-1.6-.7-.7-1.3-.7-1.7-.1m-24.5 1.8c0 1.1.3 1.4.6.6.3-.7.2-1.6-.1-1.9-.3-.4-.6.2-.5 1.3m7.9 6.5c0 .5.5.7 1 .4.6-.3 1-.8 1-1.1 0-.2-.4-.4-1-.4-.5 0-1 .5-1 1.1m-672 1.3c0 .2.8 1 1.8 1.7 1.5 1.3 1.6 1.2.3-.4s-2.1-2.1-2.1-1.3m671.9 2.3c-1.3 1.6-1.2 1.7.4.4.9-.7 1.7-1.5 1.7-1.7 0-.8-.8-.3-2.1 1.3m-663.3 8.1c-.3.5.1.9.9.9s1.2-.4.9-.9c-.3-.4-.7-.8-.9-.8s-.6.4-.9.8m11.5.8c0 1.1.3 1.4.6.6.3-.7.2-1.6-.1-1.9-.3-.4-.6.2-.5 1.3m-3.6 7.4c1 1.1 2 2 2.3 2s-.3-.9-1.3-2-2-2-2.3-2 .3.9 1.3 2m157 66.1c-.4.6-.5 1.2-.2 1.5.2.3.7-.2 1-1.1.7-1.7.1-2-.8-.4M783.2 400c0 1.4.2 1.9.5 1.2.2-.6.2-1.8 0-2.5-.3-.6-.5-.1-.5 1.3m-1.1 6.6c0 1.1.3 1.4.6.6.3-.7.2-1.6-.1-1.9-.3-.4-.6.2-.5 1.3m-1 7c0 1.1.3 1.4.6.6.3-.7.2-1.6-.1-1.9-.3-.4-.6.2-.5 1.3M465.2 416c0 1.9.2 2.7.5 1.7.2-.9.2-2.5 0-3.5-.3-.9-.5-.1-.5 1.8m327.1 1c0 2.5.2 3.5.4 2.2.2-1.2.2-3.2 0-4.5-.2-1.2-.4-.2-.4 2.3m-12.2 3.6c0 1.1.3 1.4.6.6.3-.7.2-1.6-.1-1.9-.3-.4-.6.2-.5 1.3m-303 5c0 1.1.3 1.4.6.6.3-.7.2-1.6-.1-1.9-.3-.4-.6.2-.5 1.3m301 8c0 1.1.3 1.4.6.6.3-.7.2-1.6-.1-1.9-.3-.4-.6.2-.5 1.3m-1 7c0 1.1.3 1.4.6.6.3-.7.2-1.6-.1-1.9-.3-.4-.6.2-.5 1.3m13.2 3.4c0 3 .2 4.3.4 2.7.2-1.5.2-3.9 0-5.5-.2-1.5-.4-.2-.4 2.8m-323-.5c0 2.2.2 3 .4 1.7.2-1.2.2-3 0-4-.3-.9-.5.1-.4 2.3m308.8 4.1c0 1.1.3 1.4.6.6.3-.7.2-1.6-.1-1.9-.3-.4-.6.2-.5 1.3m-1 6c0 1.1.3 1.4.6.6.3-.7.2-1.6-.1-1.9-.3-.4-.6.2-.5 1.3m-293 2c0 1.1.3 1.4.6.6.3-.7.2-1.6-.1-1.9-.3-.4-.6.2-.5 1.3m290 17c0 1.1.3 1.4.6.6.3-.7.2-1.6-.1-1.9-.3-.4-.6.2-.5 1.3m-287 2c0 1.1.3 1.4.6.6.3-.7.2-1.6-.1-1.9-.3-.4-.6.2-.5 1.3m286 5c0 1.1.3 1.4.6.6.3-.7.2-1.6-.1-1.9-.3-.4-.6.2-.5 1.3M333 484c0 .5.5 1 1.1 1 .5 0 .7-.5.4-1-.3-.6-.8-1-1.1-1-.2 0-.4.4-.4 1m135.3 5.5c0 3.3.2 4.5.4 2.7s.2-4.5 0-6-.4 0-.4 3.3m70-3.2c-.4.6-.1.7.7.2 1-.6 1.2-.4.6 1-.5 1.5-.4 1.6.9.5.8-.7 1.5-1.6 1.5-2 0-1-3-.8-3.7.3m230.8 6.3c0 1.1.3 1.4.6.6.3-.7.2-1.6-.1-1.9-.3-.4-.6.2-.5 1.3m20.2 10.9c0 2.7.2 3.8.4 2.2.2-1.5.2-3.7 0-5-.2-1.2-.4 0-.4 2.8m-22.2 2.1c0 1.1.3 1.4.6.6.3-.7.2-1.6-.1-1.9-.3-.4-.6.2-.5 1.3m-299.8 9.9c0 4.4.2 6.1.4 3.7.2-2.3.2-5.9 0-8-.2-2-.4-.1-.4 4.3m298.8-3.9c0 1.1.3 1.4.6.6.3-.7.2-1.6-.1-1.9-.3-.4-.6.2-.5 1.3m-86.3 1.1c.7.3 1.6.2 1.9-.1.4-.3-.2-.6-1.3-.5-1.1 0-1.4.3-.6.6m-41 4c.7.3 1.6.2 1.9-.1.4-.3-.2-.6-1.3-.5-1.1 0-1.4.3-.6.6m126.3 1.9c0 1.1.3 1.4.6.6.3-.7.2-1.6-.1-1.9-.3-.4-.6.2-.5 1.3m25.3 14.4c0 5.8.1 8.1.3 5.2.2-2.8.2-7.6 0-10.5-.2-2.8-.3-.5-.3 5.3m-321.1 1.5c0 2.2.2 3 .4 1.7.2-1.2.2-3 0-4-.3-.9-.5.1-.4 2.3m89 5.5c0 2.5.2 3.5.4 2.2.2-1.2.2-3.2 0-4.5-.2-1.2-.4-.2-.4 2.3m210.1 7.5c-1.9 1.4-1.9 1.4.2 1.5 1.2 0 2.1-.6 2.1-1.5 0-1.8.1-1.8-2.3 0m21.7.1c0 1.1.3 1.4.6.6.3-.7.2-1.6-.1-1.9-.3-.4-.6.2-.5 1.3m-27.8 3.1c.9.2 2.5.2 3.5 0 .9-.3.1-.5-1.8-.5s-2.7.2-1.7.5m-14.5 1c.6.2 1.8.2 2.5 0 .6-.3.1-.5-1.3-.5s-1.9.2-1.2.5m-13.5 1c.9.2 2.3.2 3 0 .6-.3-.1-.5-1.8-.5-1.6 0-2.2.2-1.2.5m-14.5 1c.6.2 1.8.2 2.5 0 .6-.3.1-.5-1.3-.5s-1.9.2-1.2.5m-12.5 1c.9.2 2.3.2 3 0 .6-.3-.1-.5-1.8-.5-1.6 0-2.2.2-1.2.5m-15 1c.9.2 2.5.2 3.5 0 .9-.3.1-.5-1.8-.5s-2.7.2-1.7.5m-14 1c.9.2 2.3.2 3 0 .6-.3-.1-.5-1.8-.5-1.6 0-2.2.2-1.2.5M565.2 560c0 1.4.2 1.9.5 1.2.2-.6.2-1.8 0-2.5-.3-.6-.5-.1-.5 1.3m223.1 4c0 3 .2 4.3.4 2.7.2-1.5.2-3.9 0-5.5-.2-1.5-.4-.2-.4 2.8m-229 1.5c0 2.7.2 3.8.4 2.2.2-1.5.2-3.7 0-5-.2-1.2-.4 0-.4 2.8m151.2-2.5c.3.5 1.2.7 2 .3 2.1-.7 1.9-1.3-.6-1.3-1.1 0-1.8.4-1.4 1m-15.7.7c.7.3 1.6.2 1.9-.1.4-.3-.2-.6-1.3-.5-1.1 0-1.4.3-.6.6m-96.3 4.5-4 4.3 4.3-4c2.3-2.1 4.2-4 4.2-4.2 0-.8-.9 0-4.5 3.9m-82.3 2.8c0 1.9.2 2.7.5 1.7.2-.9.2-2.5 0-3.5-.3-.9-.5-.1-.5 1.8m-46 7.5c0 1.6.2 2.2.5 1.2.2-.9.2-2.3 0-3-.3-.6-.5.1-.5 1.8m122.7 6.2-2.4 2.8 2.8-2.4c1.5-1.4 2.7-2.6 2.7-2.8 0-.8-.8-.1-3.1 2.4m-12 2-3.4 3.8 3.8-3.4c3.4-3.3 4.2-4.1 3.4-4.1-.2 0-1.9 1.7-3.8 3.7m-14.8-1.1c0 1.1.3 1.4.6.6.3-.7.2-1.6-.1-1.9-.3-.4-.6.2-.5 1.3m-5.8 7.9c0 4.4.2 6.1.4 3.7.2-2.3.2-5.9 0-8-.2-2-.4-.1-.4 4.3m192.2-3.5c-.3.5-.1 1 .4 1 .6 0 1.1-.5 1.1-1 0-.6-.2-1-.4-1-.3 0-.8.4-1.1 1m-183.6 18.7c-1.3 1.6-1.2 1.7.4.4.9-.7 1.7-1.5 1.7-1.7 0-.8-.8-.3-2.1 1.3m-99.8 2.9c0 1.1.3 1.4.6.6.3-.7.2-1.6-.1-1.9-.3-.4-.6.2-.5 1.3m119.3 1.6-1.9 2.3 2.3-1.9c2.1-1.8 2.7-2.6 1.9-2.6-.2 0-1.2 1-2.3 2.2m-122.7 1.1c-.3.7.3 1.3 1.4 1.3 1.3 0 1.5-.3.7-1.3-.6-.7-1.2-1.3-1.3-1.3-.2 0-.5.6-.8 1.3m135.3 1.1c0 .2.8 1 1.8 1.7 1.5 1.3 1.6 1.2.3-.4s-2.1-2.1-2.1-1.3m96 3.5c0 .5.5 1.3 1 1.6.6.3 1 .2 1-.4 0-.5-.4-1.3-1-1.6-.5-.3-1-.2-1 .4m-128.9 1.7c0 1.1.3 1.4.6.6.3-.7.2-1.6-.1-1.9-.3-.4-.6.2-.5 1.3m28.4.4c1 1.1 2 2 2.3 2s-.3-.9-1.3-2-2-2-2.3-2 .3.9 1.3 2m-15.6.7c-1.3 1.6-1.2 1.7.4.4s2.1-2.1 1.3-2.1c-.2 0-1 .8-1.7 1.7m6 4c-1.3 1.6-1.2 1.7.4.4.9-.7 1.7-1.5 1.7-1.7 0-.8-.8-.3-2.1 1.3m-14 5-2.4 2.8 2.8-2.4c1.5-1.4 2.7-2.6 2.7-2.8 0-.8-.8-.1-3.1 2.4m33.6 1.3c1 1.1 2 2 2.3 2s-.3-.9-1.3-2-2-2-2.3-2 .3.9 1.3 2m13.5 4.4c0 .2.8 1 1.8 1.7 1.5 1.3 1.6 1.2.3-.4s-2.1-2.1-2.1-1.3m-4.5 5.6c1 1.1 2 2 2.3 2s-.3-.9-1.3-2-2-2-2.3-2 .3.9 1.3 2m86.1-.2c-.7 1.2 1.2 3.8 2.1 2.8.4-.5.2-1.1-.5-1.3-.6-.3-1-.9-.6-1.4.3-.5.3-.9 0-.9s-.7.4-1 .8M613 644c0 .5.5 1 1 1 .6 0 1-.5 1-1 0-.6-.4-1-1-1-.5 0-1 .4-1 1m167.8 2.7c1.2.2 3 .2 4 0 .9-.3-.1-.5-2.3-.4-2.2 0-3 .2-1.7.4m-251.5 5c3.1.2 8.3.2 11.5 0 3.1-.2.5-.3-5.8-.3s-8.9.1-5.7.3m26 0c.9.2 2.5.2 3.5 0 .9-.3.1-.5-1.8-.5s-2.7.2-1.7.5m169.5 0c3.9.2 10.5.2 14.5 0 3.9-.1.7-.3-7.3-.3s-11.2.2-7.2.3m64.2.7c0 .2.9.6 2 .9s2 .1 2-.4-.9-.9-2-.9-2 .2-2 .4m25.8 5.3c2.9.2 7.4.2 10 0s.2-.3-5.3-.3-7.6.1-4.7.3m-18.8 3.7c0 .2.8 1 1.8 1.7 1.5 1.3 1.6 1.2.3-.4s-2.1-2.1-2.1-1.3m15 5.4c0 .4 1 1.3 2.3 2.1 2.2 1.4 2.2 1.4.3-.8-2-2.2-2.6-2.5-2.6-1.3m7 5.6c0 .2.8 1 1.8 1.7 1.5 1.3 1.6 1.2.3-.4s-2.1-2.1-2.1-1.3m-182.7 5.1c0 2.2.2 3 .4 1.7.2-1.2.2-3 0-4-.3-.9-.5.1-.4 2.3m-7.1 1c0 1.6.2 2.2.5 1.2.2-.9.2-2.3 0-3-.3-.6-.5.1-.5 1.8m-203.3.2c-1.3 1.6-1.2 1.7.4.4.9-.7 1.7-1.5 1.7-1.7 0-.8-.8-.3-2.1 1.3m400.6.3c1 1.1 2 2 2.3 2s-.3-.9-1.3-2-2-2-2.3-2 .3.9 1.3 2m-393.6.7c-1.3 1.6-1.2 1.7.4.4.9-.7 1.7-1.5 1.7-1.7 0-.8-.8-.3-2.1 1.3m-13 11c-1.3 1.6-1.2 1.7.4.4.9-.7 1.7-1.5 1.7-1.7 0-.8-.8-.3-2.1 1.3m422.6 2.3c1 1.1 2 2 2.3 2s-.3-.9-1.3-2-2-2-2.3-2 .3.9 1.3 2m7.5 6.4c0 .2.8 1 1.8 1.7 1.5 1.3 1.6 1.2.3-.4s-2.1-2.1-2.1-1.3m-445.6 4.8-1.9 2.3 2.3-1.9c1.2-1.1 2.2-2.1 2.2-2.3 0-.8-.8-.2-2.6 1.9m223.8 5.3c0 1.6.2 2.2.5 1.2.2-.9.2-2.3 0-3-.3-.6-.5.1-.5 1.8m231.8-1.1c0 .2.8 1 1.8 1.7 1.5 1.3 1.6 1.2.3-.4s-2.1-2.1-2.1-1.3M383.3 711c-.2 1.9 2.1 2.2 3.5.4.4-.5.6-.8.3-.7-.2.1-1.1-.2-2-.7-1.3-.6-1.7-.4-1.8 1m12.6-.3c-1.3 1.6-1.2 1.7.4.4.9-.7 1.7-1.5 1.7-1.7 0-.8-.8-.3-2.1 1.3m238.4 3.3c0 3 .2 4.3.4 2.7.2-1.5.2-3.9 0-5.5-.2-1.5-.4-.2-.4 2.8m236.2-4c-.3.5-.5 1-.3 1.1 2.6.6 3.9.5 4.5-.3.3-.7.1-.8-.5-.4-.7.4-1.2.2-1.2-.3 0-1.4-1.7-1.4-2.5-.1M636 714.4c0 .8.4 1.7.9 2 .5.4.7-.3.4-1.4-.6-2.3-1.3-2.6-1.3-.6m-256.6 1.4c.3.6-.2 1.5-1.1 2.1-1 .5-1.5 1.2-1.2 1.5.3.4 1.4-.2 2.3-1.3 1.3-1.4 1.4-2.1.5-2.7-.7-.4-1-.3-.5.4m498.1 1.2c2.1 2.4 2.6 2.5 1.9.6-.3-.8-1.3-1.7-2.2-2.1-1.3-.5-1.3-.2.3 1.5m-10.1.2c-.4.7-.4 1 .1.6.4-.4 1.5-.2 2.4.5 1.4 1.1 1.4 1 .2-.6-1.6-2-1.8-2.1-2.7-.5m-128.6 8.5c.7.3 1.6.2 1.9-.1.4-.3-.2-.6-1.3-.5-1.1 0-1.4.3-.6.6m-215 1c.7.3 1.6.2 1.9-.1.4-.3-.2-.6-1.3-.5-1.1 0-1.4.3-.6.6m197 1c.7.3 1.6.2 1.9-.1.4-.3-.2-.6-1.3-.5-1.1 0-1.4.3-.6.6m164.6 5c.2 1 .6 1.7 1 1.6 1.5-.3 1.6-1.1.2-2.2-1.2-1-1.4-.9-1.2.6m-515.3 1.7c-.9 1.1-.6 1.2 1.4.8 1.4-.2 2.2-.8 1.9-1.3-.8-1.3-2-1.1-3.3.5m213.2.1c0 .8.4 1.2.9.9.4-.3.8-.9.8-1.5 0-.5-.4-.9-.8-.9-.5 0-.9.7-.9 1.5m175.5 2.2c.7.3 1.6.2 1.9-.1.4-.3-.2-.6-1.3-.5-1.1 0-1.4.3-.6.6m128.2.3c-.8.5-1 1-.5 1 .6 0 1.7-.5 2.5-1s1.1-1 .5-1c-.5 0-1.7.5-2.5 1m-138.2.7c.7.3 1.6.2 1.9-.1.4-.3-.2-.6-1.3-.5-1.1 0-1.4.3-.6.6m-10 1c.7.3 1.6.2 1.9-.1.4-.3-.2-.6-1.3-.5-1.1 0-1.4.3-.6.6m-214 1c.7.3 1.6.2 1.9-.1.4-.3-.2-.6-1.3-.5-1.1 0-1.4.3-.6.6m202 0c.7.3 1.6.2 1.9-.1.4-.3-.2-.6-1.3-.5-1.1 0-1.4.3-.6.6m95 0c.7.3 1.6.2 1.9-.1.4-.3-.2-.6-1.3-.5-1.1 0-1.4.3-.6.6m-286 1c.7.3 1.6.2 1.9-.1.4-.3-.2-.6-1.3-.5-1.1 0-1.4.3-.6.6m11 1c.7.3 1.6.2 1.9-.1.4-.3-.2-.6-1.3-.5-1.1 0-1.4.3-.6.6m159 0c.7.3 1.6.2 1.9-.1.4-.3-.2-.6-1.3-.5-1.1 0-1.4.3-.6.6m-148 1c.7.3 1.6.2 1.9-.1.4-.3-.2-.6-1.3-.5-1.1 0-1.4.3-.6.6m142.8 8.1c-.3.5.1 1.5.8 2.1 1.1 1 1.4.9 1.2-.3-.3-2.1-1.3-2.9-2-1.8m200.3 9.9c-1.3 1.6-1.2 1.7.4.4.9-.7 1.7-1.5 1.7-1.7 0-.8-.8-.3-2.1 1.3M360 765.4c0 .2.8 1 1.8 1.7 1.5 1.3 1.6 1.2.3-.4s-2.1-2.1-2.1-1.3m355.3 2.1c0 .8 1.2 2.5 2.6 3.7l2.6 2.3-2.5-2.8c-1.4-1.6-2.3-3.1-2.2-3.4.2-.2.2-.7 0-.9-.3-.2-.5.3-.5 1.1m-176.4-.3c0 .2-.2 1.1-.4 2.1-.3 1.5-.1 1.6 1.1.6.7-.6 1.1-1.5.8-2-.5-.9-1.3-1.2-1.5-.7M366 770.4c0 .2.8 1 1.8 1.7 1.5 1.3 1.6 1.2.3-.4s-2.1-2.1-2.1-1.3m518.9 3.3c-1.3 1.6-1.2 1.7.4.4.9-.7 1.7-1.5 1.7-1.7 0-.8-.8-.3-2.1 1.3m-354 3c-1.3 1.6-1.2 1.7.4.4.9-.7 1.7-1.5 1.7-1.7 0-.8-.8-.3-2.1 1.3m327 2c-1.3 1.6-1.2 1.7.4.4.9-.7 1.7-1.5 1.7-1.7 0-.8-.8-.3-2.1 1.3m20 1c-1.3 1.6-1.2 1.7.4.4s2.1-2.1 1.3-2.1c-.2 0-1 .8-1.7 1.7m-499.9.7c0 .2.8 1 1.8 1.7 1.5 1.3 1.6 1.2.3-.4s-2.1-2.1-2.1-1.3m-11 1c0 .2.8 1 1.8 1.7 1.5 1.3 1.6 1.2.3-.4s-2.1-2.1-2.1-1.3m155.9 4.3c-1.3 1.6-1.2 1.7.4.4.9-.7 1.7-1.5 1.7-1.7 0-.8-.8-.3-2.1 1.3m65.4 0c21.3.2 56.1.2 77.5 0 21.3-.1 3.8-.2-38.8-.2s-60.1.1-38.7.2m-203.3.7c0 .2.8 1 1.8 1.7 1.5 1.3 1.6 1.2.3-.4s-2.1-2.1-2.1-1.3m479.9 4.3c-1.3 1.6-1.2 1.7.4.4s2.1-2.1 1.3-2.1c-.2 0-1 .8-1.7 1.7m-22 1c-1.3 1.6-1.2 1.7.4.4s2.1-2.1 1.3-2.1c-.2 0-1 .8-1.7 1.7m33 0c-1.3 1.6-1.2 1.7.4.4s2.1-2.1 1.3-2.1c-.2 0-1 .8-1.7 1.7m-484.9-.3c0 .2.8 1 1.8 1.7 1.5 1.3 1.6 1.2.3-.4s-2.1-2.1-2.1-1.3m7 6c0 .2.8 1 1.8 1.7 1.5 1.3 1.6 1.2.3-.4s-2.1-2.1-2.1-1.3m137.9 3.3c-1.3 1.6-1.2 1.7.4.4.9-.7 1.7-1.5 1.7-1.7 0-.8-.8-.3-2.1 1.3m315 2c-1.3 1.6-1.2 1.7.4.4s2.1-2.1 1.3-2.1c-.2 0-1 .8-1.7 1.7m-303.7 7.7c.7.8 1.5 1 1.8.6s1.2-1 2-1.3 0-.6-1.8-.6c-2.8-.1-3.1.1-2 1.3m308 1.6c0 1.4.2 1.9.5 1.2.2-.6.2-1.8 0-2.5-.3-.6-.5-.1-.5 1.3m-456.1 4.6c0 1.1.3 1.4.6.6.3-.7.2-1.6-.1-1.9-.3-.4-.6.2-.5 1.3m457 6c0 1.1.3 1.4.6.6.3-.7.2-1.6-.1-1.9-.3-.4-.6.2-.5 1.3M398.2 825c0 1.4.2 1.9.5 1.2.2-.6.2-1.8 0-2.5-.3-.6-.5-.1-.5 1.3m458.9 6.6c0 1.1.3 1.4.6.6.3-.7.2-1.6-.1-1.9-.3-.4-.6.2-.5 1.3m-460 4c0 1.1.3 1.4.6.6.3-.7.2-1.6-.1-1.9-.3-.4-.6.2-.5 1.3m513.4 1.4c-.3.5-.1 1 .4 1 .6 0 1.1-.5 1.1-1 0-.6-.2-1-.4-1-.3 0-.8.4-1.1 1m-567.3 1.5c-.7.8-.9 1.5-.4 1.5s1.5-.7 2.2-1.5c1.6-1.9-.1-1.9-1.8 0m514.9 4.1c0 1.1.3 1.4.6.6.3-.7.2-1.6-.1-1.9-.3-.4-.6.2-.5 1.3m-462 3c0 1.1.3 1.4.6.6.3-.7.2-1.6-.1-1.9-.3-.4-.6.2-.5 1.3m-57.5 2.7c.3 1 .9 1.5 1.2 1.2s0-1.1-.7-1.8c-1-.9-1.1-.8-.5.6m6.4 5.2c1.3 1.4 2.6 2.5 2.8 2.5.3 0-.5-1.1-1.8-2.5s-2.6-2.5-2.8-2.5c-.3 0 .5 1.1 1.8 2.5m494.1 2.1c0 1.1.3 1.4.6.6.3-.7.2-1.6-.1-1.9-.3-.4-.6.2-.5 1.3m56.8 13.1-3.4 3.8 3.8-3.4c3.4-3.3 4.2-4.1 3.4-4.1-.2 0-1.9 1.7-3.8 3.7m-536.9-.2c1.3 1.4 2.6 2.5 2.8 2.5.3 0-.5-1.1-1.8-2.5s-2.6-2.5-2.8-2.5c-.3 0 .5 1.1 1.8 2.5m269 3.5-62.5.5 62.2.3c40.6.1 62.4-.1 62.8-.8.3-.6.5-.9.3-.8-.2.2-28.4.5-62.8.8m-72.9 2.3c-1.3 2.1-1.2 2.1.5.5 1-1 1.6-2 1.3-2.2-.3-.3-1.1.5-1.8 1.7m144.9-.4c0 .6.4 1.3 1 1.6s.7-.1.4-.9c-.7-1.8-1.4-2.1-1.4-.7m-130.7 5.8c.9.2 2.5.2 3.5 0 .9-.3.1-.5-1.8-.5s-2.7.2-1.7.5m94.5 0c1.2.2 3 .2 4 0 .9-.3-.1-.5-2.3-.4-2.2 0-3 .2-1.7.4m21 0c.7.3 1.6.2 1.9-.1.4-.3-.2-.6-1.3-.5-1.1 0-1.4.3-.6.6M373 883.5c1.9 1.9 3.6 3.5 3.9 3.5s-1-1.6-2.9-3.5-3.6-3.5-3.9-3.5 1 1.6 2.9 3.5m311.6-1c.4.8.7 1.5.9 1.5s.5-.7.9-1.5c.3-.9 0-1.5-.9-1.5s-1.2.6-.9 1.5m196.8 1.7-1.9 2.3 2.3-1.9c2.1-1.8 2.7-2.6 1.9-2.6-.2 0-1.2 1-2.3 2.2M565 887c-.9.6-1 1-.3 1 .6 0 1.5-.5 1.8-1 .8-1.2.4-1.2-1.5 0m-166 4.9c0 .6.4 1.3 1 1.6s.7-.1.4-.9c-.7-1.8-1.4-2.1-1.4-.7m212.3-.2c9.7.2 25.7.2 35.5 0 9.7-.1 1.7-.2-17.8-.2s-27.5.1-17.7.2m55.2 2.3c1 1.1 2 2 2.3 2s-.3-.9-1.3-2-2-2-2.3-2 .3.9 1.3 2M384 895.4c0 .2.8 1 1.8 1.7 1.5 1.3 1.6 1.2.3-.4s-2.1-2.1-2.1-1.3m485.9 1.3c-1.3 1.6-1.2 1.7.4.4s2.1-2.1 1.3-2.1c-.2 0-1 .8-1.7 1.7M300.5 901c-.8 1.3.9 2 2.4 1.1 1-.6.9-1-.3-1.4-.8-.3-1.8-.2-2.1.3m651.5 0c0 .5.5 1 1.1 1 .5 0 .7-.5.4-1-.3-.6-.8-1-1.1-1-.2 0-.4.4-.4 1m-373 4.3c0 .2 1.5 1.6 3.3 3.3l3.2 2.9-2.9-3.3c-2.8-3-3.6-3.7-3.6-2.9m78.4 17.9-1.9 2.3 2.3-1.9c1.2-1.1 2.2-2.1 2.2-2.3 0-.8-.8-.2-2.6 1.9m-54.9 6.8c1 1.1 2 2 2.3 2s-.3-.9-1.3-2-2-2-2.3-2 .3.9 1.3 2m5.5 5.5c1.3 1.4 2.6 2.5 2.8 2.5.3 0-.5-1.1-1.8-2.5s-2.6-2.5-2.8-2.5c-.3 0 .5 1.1 1.8 2.5m32.4 5.7-2.9 3.3 3.3-2.9c1.7-1.7 3.2-3.1 3.2-3.3 0-.8-.8-.1-3.6 2.9m242.9 6.8c0 3 .2 4.3.4 2.7.2-1.5.2-3.9 0-5.5-.2-1.5-.4-.2-.4 2.8m-502-2.3c-.7.2-1.3 1.1-1.3 1.9 0 .7.6 1.1 1.3.8.8-.3 1.4-1.1 1.4-1.9s-.1-1.5-.1-1.4c-.1 0-.7.3-1.3.6m-10.1 3.3c0 1.9.2 2.7.5 1.7.2-.9.2-2.5 0-3.5-.3-.9-.5-.1-.5 1.8m502.4-.5c.4.8.8 1.5 1 1.5s.4-.7.4-1.5-.4-1.5-1-1.5c-.5 0-.7.7-.4 1.5m-753.5 5.8c-.8 1-.7 1.4.2 1.4.8 0 1.4-.6 1.4-1.4 0-.7-.1-1.3-.2-1.3-.2 0-.8.6-1.4 1.3m756 1.3c0 1.1.3 1.4.6.6.3-.7.2-1.6-.1-1.9-.3-.4-.6.2-.5 1.3M123 960.1c0 .5.5.7 1 .4.6-.3 1-.8 1-1.1 0-.2-.4-.4-1-.4-.5 0-1 .5-1 1.1m247.3 3.4c0 2.2.2 3 .4 1.7.2-1.2.2-3 0-4-.3-.9-.5.1-.4 2.3m514 3c0 2.2.2 3 .4 1.7.2-1.2.2-3 0-4-.3-.9-.5.1-.4 2.3m-7.2 2.1c0 1.1.3 1.4.6.6.3-.7.2-1.6-.1-1.9-.3-.4-.6.2-.5 1.3m-533.5 3.9c-.3.8-.1 1.5.4 1.5.6 0 1-.7 1-1.5s-.2-1.5-.4-1.5-.6.7-1 1.5m6.2 2.2c.7.3 1.6.2 1.9-.1.4-.3-.2-.6-1.3-.5-1.1 0-1.4.3-.6.6m554 0c.7.3 1.6.2 1.9-.1.4-.3-.2-.6-1.3-.5-1.1 0-1.4.3-.6.6m-546 1c.7.3 1.6.2 1.9-.1.4-.3-.2-.6-1.3-.5-1.1 0-1.4.3-.6.6m518 3c.7.3 1.6.2 1.9-.1.4-.3-.2-.6-1.3-.5-1.1 0-1.4.3-.6.6m-491 1c.7.3 1.6.2 1.9-.1.4-.3-.2-.6-1.3-.5-1.1 0-1.4.3-.6.6m485 0c.7.3 1.6.2 1.9-.1.4-.3-.2-.6-1.3-.5-1.1 0-1.4.3-.6.6m-472 2c.7.3 1.6.2 1.9-.1.4-.3-.2-.6-1.3-.5-1.1 0-1.4.3-.6.6m459 0c.7.3 1.6.2 1.9-.1.4-.3-.2-.6-1.3-.5-1.1 0-1.4.3-.6.6m-452 1c.7.3 1.6.2 1.9-.1.4-.3-.2-.6-1.3-.5-1.1 0-1.4.3-.6.6m445 0c.7.3 1.6.2 1.9-.1.4-.3-.2-.6-1.3-.5-1.1 0-1.4.3-.6.6m-6 1c.7.3 1.6.2 1.9-.1.4-.3-.2-.6-1.3-.5-1.1 0-1.4.3-.6.6M365.5 987c.3.5.8 1 1.1 1 .2 0 .4-.5.4-1 0-.6-.5-1-1.1-1-.5 0-.7.4-.4 1m2.6.6c0 1.1.3 1.4.6.6.3-.7.2-1.6-.1-1.9-.3-.4-.6.2-.5 1.3m519.7-.9c.7.3 1.6.2 1.9-.1.4-.3-.2-.6-1.3-.5-1.1 0-1.4.3-.6.6M876 989c0 .5.5 1 1 1 .6 0 1-.5 1-1 0-.6-.4-1-1-1-.5 0-1 .4-1 1m-547.7.7c.9.2 2.3.2 3 0 .6-.3-.1-.5-1.8-.5-1.6 0-2.2.2-1.2.5m596 0c.9.2 2.5.2 3.5 0 .9-.3.1-.5-1.8-.5s-2.7.2-1.7.5m-585 1c.9.2 2.3.2 3 0 .6-.3-.1-.5-1.8-.5-1.6 0-2.2.2-1.2.5m575.5 0c.6.2 1.8.2 2.5 0 .6-.3.1-.5-1.3-.5s-1.9.2-1.2.5m-513 1c.7.3 1.6.2 1.9-.1.4-.3-.2-.6-1.3-.5-1.1 0-1.4.3-.6.6m484.4 2.3c0 1.9.2 2.7.5 1.7.2-.9.2-2.5 0-3.5-.3-.9-.5-.1-.5 1.8m20.6-2.3c.7.3 1.6.2 1.9-.1.4-.3-.2-.6-1.3-.5-1.1 0-1.4.3-.6.6M367.2 997c0 1.4.2 1.9.5 1.2.2-.6.2-1.8 0-2.5-.3-.6-.5-.1-.5 1.3m-11.6 5.7c-.6 1.4-.5 1.5.5.6.7-.7 1-1.5.7-1.8s-.9.2-1.2 1.2m10.6 3.8c0 1.6.2 2.2.5 1.2.2-.9.2-2.3 0-3-.3-.6-.5.1-.5 1.8m512.9.1c0 1.1.3 1.4.6.6.3-.7.2-1.6-.1-1.9-.3-.4-.6.2-.5 1.3m8.1 1.4c0 1.9.2 2.7.5 1.7.2-.9.2-2.5 0-3.5-.3-.9-.5-.1-.5 1.8m-522 8.5c0 1.6.2 2.2.5 1.2.2-.9.2-2.3 0-3-.3-.6-.5.1-.5 1.8m525.8 1.9c0 .8.4 1.7.9 2 .5.4.7-.3.4-1.4-.6-2.3-1.3-2.6-1.3-.6m-358.2 36.3c.6.2 1.8.2 2.5 0 .6-.3.1-.5-1.3-.5s-1.9.2-1.2.5m-16 1c.7.3 1.6.2 1.9-.1.4-.3-.2-.6-1.3-.5-1.1 0-1.4.3-.6.6m220 0c.7.3 1.6.2 1.9-.1.4-.3-.2-.6-1.3-.5-1.1 0-1.4.3-.6.6m-236 1c.7.3 1.6.2 1.9-.1.4-.3-.2-.6-1.3-.5-1.1 0-1.4.3-.6.6m251 0c.7.3 1.6.2 1.9-.1.4-.3-.2-.6-1.3-.5-1.1 0-1.4.3-.6.6m-266 1c.7.3 1.6.2 1.9-.1.4-.3-.2-.6-1.3-.5-1.1 0-1.4.3-.6.6m283 0c.7.3 1.6.2 1.9-.1.4-.3-.2-.6-1.3-.5-1.1 0-1.4.3-.6.6m-300 1c.7.3 1.6.2 1.9-.1.4-.3-.2-.6-1.3-.5-1.1 0-1.4.3-.6.6m-19 1c.7.3 1.6.2 1.9-.1.4-.3-.2-.6-1.3-.5-1.1 0-1.4.3-.6.6m354 0c.7.3 1.6.2 1.9-.1.4-.3-.2-.6-1.3-.5-1.1 0-1.4.3-.6.6m-620 12c.7.3 1.6.2 1.9-.1.4-.3-.2-.6-1.3-.5-1.1 0-1.4.3-.6.6m601.1 22c-1.3 1.6-1.2 1.7.4.4s2.1-2.1 1.3-2.1c-.2 0-1 .8-1.7 1.7m-12 14c-1.3 1.6-1.2 1.7.4.4s2.1-2.1 1.3-2.1c-.2 0-1 .8-1.7 1.7m-289.9 1.7c0 .2.8 1 1.8 1.7 1.5 1.3 1.6 1.2.3-.4s-2.1-2.1-2.1-1.3m21.3 1.3c.9.2 2.3.2 3 0 .6-.3-.1-.5-1.8-.5-1.6 0-2.2.2-1.2.5m246 0c.9.2 2.3.2 3 0 .6-.3-.1-.5-1.8-.5-1.6 0-2.2.2-1.2.5m-235.5 1c.6.2 1.8.2 2.5 0 .6-.3.1-.5-1.3-.5s-1.9.2-1.2.5m222.5 0c.9.2 2.5.2 3.5 0 .9-.3.1-.5-1.8-.5s-2.7.2-1.7.5m20.2.3c-.3.5-.1 1 .4 1 .6 0 1.1-.5 1.1-1 0-.6-.2-1-.4-1-.3 0-.8.4-1.1 1m-7.2 26.5c0 .8.4 1.2.9.9s.6-1 .3-1.5c-.9-1.3-1.2-1.1-1.2.6m-.7 7.3c-.3.5.1.9.9.9s1.2-.4.9-.9c-.3-.4-.7-.8-.9-.8s-.6.4-.9.8m-236.1 2.3c-.4.6-.5 1.2-.2 1.5.2.3.7-.2 1-1.1.7-1.7.1-2-.8-.4m56.3 25.6c.7.3 1.6.2 1.9-.1.4-.3-.2-.6-1.3-.5-1.1 0-1.4.3-.6.6m25 0c.7.3 1.6.2 1.9-.1.4-.3-.2-.6-1.3-.5-1.1 0-1.4.3-.6.6"/><path fill="#d4ffff" d="M551.8 651.7c.7.3 1.6.2 1.9-.1.4-.3-.2-.6-1.3-.5-1.1 0-1.4.3-.6.6"/><path fill="#505" d="M631.2 960c0 1.4.2 1.9.5 1.2.2-.6.2-1.8 0-2.5-.3-.6-.5-.1-.5 1.3m-.1 21.6c0 1.1.3 1.4.6.6.3-.7.2-1.6-.1-1.9-.3-.4-.6.2-.5 1.3"/><path fill="#aad4aa" d="M591.8 1173.7c.7.3 1.6.2 1.9-.1.4-.3-.2-.6-1.3-.5-1.1 0-1.4.3-.6.6m7 0c.6.2 1.8.2 2.5 0 .6-.3.1-.5-1.3-.5s-1.9.2-1.2.5m8 0c.6.2 1.8.2 2.5 0 .6-.3.1-.5-1.3-.5s-1.9.2-1.2.5"/><path fill="#055" d="M584.8 646.7c.7.3 1.6.2 1.9-.1.4-.3-.2-.6-1.3-.5-1.1 0-1.4.3-.6.6"/><path fill="#aad4d4" d="M681.8 1173.7c.6.2 1.8.2 2.5 0 .6-.3.1-.5-1.3-.5s-1.9.2-1.2.5"/></svg>